<svg xmlns="http://www.w3.org/2000/svg" xmlns:xlink="http://www.w3.org/1999/xlink" width="500" zoomAndPan="magnify" viewBox="0 0 375 374.999991" height="500" preserveAspectRatio="xMidYMid meet" version="1.0"><defs><g/><clipPath id="1a9d421262"><path d="M 36.480469 129.566406 L 172.980469 129.566406 L 172.980469 266.066406 L 36.480469 266.066406 Z M 36.480469 129.566406 " clip-rule="nonzero"/></clipPath><clipPath id="f137551225"><path d="M 130.066406 152.683594 L 352 152.683594 L 352 244.183594 L 130.066406 244.183594 Z M 130.066406 152.683594 " clip-rule="nonzero"/></clipPath><clipPath id="e13548c5b9"><path d="M 136.554688 156.675781 L 337.554688 156.675781 L 337.554688 239.925781 L 136.554688 239.925781 Z M 136.554688 156.675781 " clip-rule="nonzero"/></clipPath><clipPath id="32d5518aff"><path d="M 46.730469 139.820312 L 162.980469 139.820312 L 162.980469 256.070312 L 46.730469 256.070312 Z M 46.730469 139.820312 " clip-rule="nonzero"/></clipPath><clipPath id="ac1f4e84b4"><path d="M 145.304688 161.644531 L 329.804688 161.644531 L 329.804688 232.144531 L 145.304688 232.144531 Z M 145.304688 161.644531 " clip-rule="nonzero"/></clipPath><clipPath id="92acd6d8e9"><path d="M 130.070312 157.238281 L 160.820312 157.238281 L 160.820312 232.238281 L 130.070312 232.238281 Z M 130.070312 157.238281 " clip-rule="nonzero"/></clipPath><clipPath id="fd2b4c6bc4"><path d="M 107 157.238281 L 117 157.238281 L 117 160 L 107 160 Z M 107 157.238281 " clip-rule="nonzero"/></clipPath><clipPath id="a5fd14f6ec"><path d="M 96 157.238281 L 107 157.238281 L 107 159 L 96 159 Z M 96 157.238281 " clip-rule="nonzero"/></clipPath><clipPath id="a1bb7e4934"><path d="M 102 157.238281 L 112 157.238281 L 112 161 L 102 161 Z M 102 157.238281 " clip-rule="nonzero"/></clipPath><clipPath id="ed7014f573"><path d="M 62.304688 189 L 64 189 L 64 199 L 62.304688 199 Z M 62.304688 189 " clip-rule="nonzero"/></clipPath><clipPath id="6462b654aa"><path d="M 62.304688 195 L 64 195 L 64 205 L 62.304688 205 Z M 62.304688 195 " clip-rule="nonzero"/></clipPath><clipPath id="b6b5b8822c"><path d="M 62.304688 194 L 66 194 L 66 203 L 62.304688 203 Z M 62.304688 194 " clip-rule="nonzero"/></clipPath><clipPath id="3a41f7e8fb"><path d="M 62.304688 202 L 64 202 L 64 211 L 62.304688 211 Z M 62.304688 202 " clip-rule="nonzero"/></clipPath><clipPath id="5160200c23"><path d="M 70 219 L 76 219 L 76 224.738281 L 70 224.738281 Z M 70 219 " clip-rule="nonzero"/></clipPath><clipPath id="289ce190f8"><path d="M 144 184 L 145.554688 184 L 145.554688 189 L 144 189 Z M 144 184 " clip-rule="nonzero"/></clipPath><clipPath id="4aa10a4210"><path d="M 144 184 L 145.554688 184 L 145.554688 186 L 144 186 Z M 144 184 " clip-rule="nonzero"/></clipPath><clipPath id="50d11b40de"><path d="M 144 184 L 145.554688 184 L 145.554688 187 L 144 187 Z M 144 184 " clip-rule="nonzero"/></clipPath></defs><g clip-path="url(#1a9d421262)"><path fill="#003c25" d="M 104.875 266.359375 C 67.089844 266.359375 36.480469 235.539062 36.480469 197.964844 C 36.480469 160.386719 67.089844 129.566406 104.875 129.566406 C 142.660156 129.566406 173.273438 160.175781 173.273438 197.964844 C 173.273438 235.75 142.449219 266.359375 104.875 266.359375 Z M 104.875 133.789062 C 69.410156 133.789062 40.699219 162.5 40.699219 197.964844 C 40.699219 233.429688 69.410156 262.136719 104.875 262.136719 C 140.339844 262.136719 169.050781 233.429688 169.050781 197.964844 C 169.050781 162.5 140.128906 133.789062 104.875 133.789062 Z M 104.875 133.789062 " fill-opacity="1" fill-rule="nonzero"/></g><g clip-path="url(#f137551225)"><path fill="#ffffff" d="M 145.824219 152.75 L 335.992188 152.75 C 337.027344 152.75 338.050781 152.851562 339.066406 153.054688 C 340.082031 153.257812 341.066406 153.554688 342.023438 153.949219 C 342.976562 154.347656 343.886719 154.832031 344.746094 155.40625 C 345.605469 155.980469 346.402344 156.636719 347.132812 157.367188 C 347.867188 158.097656 348.519531 158.894531 349.09375 159.753906 C 349.667969 160.613281 350.152344 161.523438 350.550781 162.480469 C 350.945312 163.433594 351.246094 164.421875 351.445312 165.433594 C 351.648438 166.449219 351.75 167.476562 351.75 168.507812 L 351.75 228.34375 C 351.75 229.378906 351.648438 230.402344 351.445312 231.417969 C 351.246094 232.433594 350.945312 233.417969 350.550781 234.375 C 350.152344 235.332031 349.667969 236.238281 349.09375 237.097656 C 348.519531 237.960938 347.867188 238.753906 347.132812 239.488281 C 346.402344 240.21875 345.605469 240.871094 344.746094 241.445312 C 343.886719 242.023438 342.976562 242.507812 342.023438 242.902344 C 341.066406 243.300781 340.082031 243.597656 339.066406 243.800781 C 338.050781 244 337.027344 244.101562 335.992188 244.101562 L 145.824219 244.101562 C 144.789062 244.101562 143.765625 244 142.75 243.800781 C 141.734375 243.597656 140.75 243.300781 139.792969 242.902344 C 138.839844 242.507812 137.929688 242.023438 137.070312 241.445312 C 136.210938 240.871094 135.414062 240.21875 134.683594 239.488281 C 133.949219 238.753906 133.296875 237.960938 132.722656 237.097656 C 132.148438 236.238281 131.660156 235.332031 131.265625 234.375 C 130.871094 233.417969 130.570312 232.433594 130.367188 231.417969 C 130.167969 230.402344 130.066406 229.378906 130.066406 228.34375 L 130.066406 168.507812 C 130.066406 167.476562 130.167969 166.449219 130.367188 165.433594 C 130.570312 164.421875 130.871094 163.433594 131.265625 162.480469 C 131.660156 161.523438 132.148438 160.613281 132.722656 159.753906 C 133.296875 158.894531 133.949219 158.097656 134.683594 157.367188 C 135.414062 156.636719 136.210938 155.980469 137.070312 155.40625 C 137.929688 154.832031 138.839844 154.347656 139.792969 153.949219 C 140.75 153.554688 141.734375 153.257812 142.75 153.054688 C 143.765625 152.851562 144.789062 152.75 145.824219 152.75 Z M 145.824219 152.75 " fill-opacity="1" fill-rule="nonzero"/></g><g clip-path="url(#e13548c5b9)"><path fill="#003c25" d="M 150.835938 156.742188 L 323.210938 156.742188 C 324.148438 156.742188 325.078125 156.832031 325.996094 157.015625 C 326.917969 157.199219 327.808594 157.46875 328.675781 157.828125 C 329.542969 158.1875 330.367188 158.625 331.148438 159.148438 C 331.925781 159.667969 332.648438 160.261719 333.3125 160.925781 C 333.972656 161.585938 334.566406 162.308594 335.085938 163.089844 C 335.609375 163.867188 336.046875 164.691406 336.40625 165.558594 C 336.765625 166.425781 337.039062 167.316406 337.21875 168.238281 C 337.402344 169.15625 337.496094 170.085938 337.496094 171.023438 L 337.496094 225.261719 C 337.496094 226.199219 337.402344 227.128906 337.21875 228.046875 C 337.039062 228.96875 336.765625 229.859375 336.40625 230.726562 C 336.046875 231.59375 335.609375 232.417969 335.085938 233.195312 C 334.566406 233.976562 333.972656 234.699219 333.3125 235.359375 C 332.648438 236.023438 331.925781 236.617188 331.148438 237.136719 C 330.367188 237.65625 329.542969 238.097656 328.675781 238.457031 C 327.808594 238.816406 326.917969 239.085938 325.996094 239.269531 C 325.078125 239.453125 324.148438 239.542969 323.210938 239.542969 L 150.835938 239.542969 C 149.898438 239.542969 148.96875 239.453125 148.050781 239.269531 C 147.132812 239.085938 146.238281 238.816406 145.371094 238.457031 C 144.503906 238.097656 143.679688 237.65625 142.902344 237.136719 C 142.121094 236.617188 141.398438 236.023438 140.738281 235.359375 C 140.074219 234.699219 139.480469 233.976562 138.960938 233.195312 C 138.441406 232.417969 138 231.59375 137.640625 230.726562 C 137.28125 229.859375 137.011719 228.96875 136.828125 228.046875 C 136.644531 227.128906 136.554688 226.199219 136.554688 225.261719 L 136.554688 171.023438 C 136.554688 170.085938 136.644531 169.15625 136.828125 168.238281 C 137.011719 167.316406 137.28125 166.425781 137.640625 165.558594 C 138 164.691406 138.441406 163.867188 138.960938 163.089844 C 139.480469 162.308594 140.074219 161.585938 140.738281 160.925781 C 141.398438 160.261719 142.121094 159.667969 142.902344 159.148438 C 143.679688 158.625 144.503906 158.1875 145.371094 157.828125 C 146.238281 157.46875 147.132812 157.199219 148.050781 157.015625 C 148.96875 156.832031 149.898438 156.742188 150.835938 156.742188 Z M 150.835938 156.742188 " fill-opacity="1" fill-rule="nonzero"/></g><g clip-path="url(#32d5518aff)"><path fill="#003c25" d="M 163.023438 197.964844 C 163.023438 199.871094 162.933594 201.769531 162.746094 203.664062 C 162.558594 205.5625 162.28125 207.441406 161.90625 209.308594 C 161.535156 211.179688 161.074219 213.023438 160.519531 214.84375 C 159.96875 216.667969 159.328125 218.457031 158.597656 220.21875 C 157.871094 221.976562 157.058594 223.695312 156.160156 225.375 C 155.261719 227.054688 154.285156 228.6875 153.226562 230.269531 C 152.167969 231.855469 151.035156 233.382812 149.828125 234.855469 C 148.617188 236.328125 147.339844 237.734375 145.992188 239.082031 C 144.648438 240.429688 143.238281 241.707031 141.765625 242.914062 C 140.292969 244.121094 138.765625 245.257812 137.183594 246.3125 C 135.597656 247.371094 133.96875 248.351562 132.289062 249.246094 C 130.609375 250.144531 128.890625 250.957031 127.128906 251.6875 C 125.371094 252.417969 123.578125 253.058594 121.757812 253.609375 C 119.933594 254.164062 118.089844 254.625 116.222656 254.996094 C 114.355469 255.367188 112.472656 255.648438 110.578125 255.832031 C 108.683594 256.019531 106.78125 256.113281 104.878906 256.113281 C 102.972656 256.113281 101.074219 256.019531 99.179688 255.832031 C 97.28125 255.648438 95.402344 255.367188 93.535156 254.996094 C 91.664062 254.625 89.820312 254.164062 88 253.609375 C 86.175781 253.058594 84.386719 252.417969 82.625 251.6875 C 80.867188 250.957031 79.148438 250.144531 77.46875 249.246094 C 75.789062 248.351562 74.15625 247.371094 72.574219 246.3125 C 70.988281 245.257812 69.460938 244.121094 67.988281 242.914062 C 66.515625 241.707031 65.109375 240.429688 63.761719 239.082031 C 62.414062 237.734375 61.136719 236.328125 59.929688 234.855469 C 58.722656 233.382812 57.585938 231.855469 56.53125 230.269531 C 55.472656 228.6875 54.492188 227.054688 53.597656 225.375 C 52.699219 223.695312 51.886719 221.976562 51.15625 220.21875 C 50.425781 218.457031 49.785156 216.667969 49.234375 214.84375 C 48.679688 213.023438 48.21875 211.179688 47.847656 209.308594 C 47.476562 207.441406 47.195312 205.5625 47.011719 203.664062 C 46.824219 201.769531 46.730469 199.871094 46.730469 197.964844 C 46.730469 196.0625 46.824219 194.160156 47.011719 192.265625 C 47.195312 190.371094 47.476562 188.488281 47.847656 186.621094 C 48.21875 184.753906 48.679688 182.910156 49.234375 181.085938 C 49.785156 179.265625 50.425781 177.472656 51.15625 175.714844 C 51.886719 173.953125 52.699219 172.234375 53.597656 170.554688 C 54.492188 168.875 55.472656 167.246094 56.53125 165.660156 C 57.585938 164.078125 58.722656 162.550781 59.929688 161.078125 C 61.136719 159.605469 62.414062 158.195312 63.761719 156.851562 C 65.109375 155.503906 66.515625 154.226562 67.988281 153.015625 C 69.460938 151.808594 70.988281 150.675781 72.574219 149.617188 C 74.15625 148.558594 75.789062 147.582031 77.46875 146.683594 C 79.148438 145.785156 80.867188 144.972656 82.625 144.246094 C 84.386719 143.515625 86.175781 142.875 88 142.324219 C 89.820312 141.769531 91.664062 141.308594 93.535156 140.9375 C 95.402344 140.5625 97.28125 140.285156 99.179688 140.097656 C 101.074219 139.910156 102.972656 139.820312 104.878906 139.820312 C 106.78125 139.820312 108.683594 139.910156 110.578125 140.097656 C 112.472656 140.285156 114.355469 140.5625 116.222656 140.9375 C 118.089844 141.308594 119.933594 141.769531 121.757812 142.324219 C 123.578125 142.875 125.371094 143.515625 127.128906 144.246094 C 128.890625 144.972656 130.609375 145.785156 132.289062 146.683594 C 133.96875 147.582031 135.597656 148.558594 137.183594 149.617188 C 138.765625 150.675781 140.292969 151.808594 141.765625 153.015625 C 143.238281 154.226562 144.648438 155.503906 145.992188 156.851562 C 147.339844 158.195312 148.617188 159.605469 149.828125 161.078125 C 151.035156 162.550781 152.167969 164.078125 153.226562 165.660156 C 154.285156 167.246094 155.261719 168.875 156.160156 170.554688 C 157.058594 172.234375 157.871094 173.953125 158.597656 175.714844 C 159.328125 177.472656 159.96875 179.265625 160.519531 181.085938 C 161.074219 182.910156 161.535156 184.753906 161.90625 186.621094 C 162.28125 188.488281 162.558594 190.371094 162.746094 192.265625 C 162.933594 194.160156 163.023438 196.0625 163.023438 197.964844 Z M 163.023438 197.964844 " fill-opacity="1" fill-rule="nonzero"/></g><g clip-path="url(#ac1f4e84b4)"><path fill="#ffffff" d="M 311.40625 161.644531 L 163.761719 161.644531 C 153.703125 161.644531 145.535156 169.8125 145.535156 179.871094 L 145.535156 214.015625 C 145.535156 224.074219 153.703125 232.238281 163.761719 232.238281 L 311.367188 232.238281 C 321.425781 232.238281 329.59375 224.074219 329.59375 214.015625 L 329.59375 179.871094 C 329.628906 169.8125 321.464844 161.644531 311.40625 161.644531 Z M 328.070312 214.015625 C 328.070312 223.21875 320.574219 230.679688 311.40625 230.679688 L 163.761719 230.679688 C 154.554688 230.679688 147.09375 223.183594 147.09375 214.015625 L 147.09375 179.871094 C 147.09375 170.664062 154.59375 163.203125 163.761719 163.203125 L 311.367188 163.203125 C 320.574219 163.203125 328.035156 170.703125 328.035156 179.871094 L 328.035156 214.015625 Z M 328.070312 214.015625 " fill-opacity="1" fill-rule="nonzero"/></g><g clip-path="url(#92acd6d8e9)"><path fill="#003c25" d="M 130.089844 226.90625 L 130.089844 162.570312 C 130.089844 162.21875 130.125 161.871094 130.191406 161.527344 C 130.261719 161.183594 130.363281 160.851562 130.496094 160.527344 C 130.628906 160.203125 130.792969 159.898438 130.988281 159.605469 C 131.183594 159.316406 131.40625 159.046875 131.652344 158.796875 C 131.898438 158.550781 132.167969 158.328125 132.460938 158.136719 C 132.75 157.941406 133.058594 157.777344 133.382812 157.644531 C 133.703125 157.507812 134.039062 157.40625 134.382812 157.339844 C 134.726562 157.269531 135.070312 157.238281 135.421875 157.238281 L 155.664062 157.238281 C 156.015625 157.238281 156.363281 157.269531 156.707031 157.339844 C 157.046875 157.40625 157.382812 157.507812 157.707031 157.644531 C 158.027344 157.777344 158.335938 157.941406 158.628906 158.136719 C 158.917969 158.328125 159.1875 158.550781 159.433594 158.796875 C 159.683594 159.046875 159.902344 159.316406 160.097656 159.605469 C 160.292969 159.898438 160.457031 160.203125 160.589844 160.527344 C 160.722656 160.851562 160.824219 161.183594 160.894531 161.527344 C 160.960938 161.871094 160.996094 162.21875 160.996094 162.570312 L 160.996094 226.90625 C 160.996094 227.253906 160.960938 227.601562 160.894531 227.945312 C 160.824219 228.289062 160.722656 228.621094 160.589844 228.945312 C 160.457031 229.269531 160.292969 229.578125 160.097656 229.867188 C 159.902344 230.160156 159.683594 230.429688 159.433594 230.675781 C 159.1875 230.921875 158.917969 231.144531 158.628906 231.339844 C 158.335938 231.53125 158.027344 231.695312 157.707031 231.832031 C 157.382812 231.964844 157.046875 232.066406 156.707031 232.132812 C 156.363281 232.203125 156.015625 232.238281 155.664062 232.238281 L 135.421875 232.238281 C 135.070312 232.238281 134.726562 232.203125 134.382812 232.132812 C 134.039062 232.066406 133.703125 231.964844 133.382812 231.832031 C 133.058594 231.695312 132.75 231.53125 132.460938 231.339844 C 132.167969 231.144531 131.898438 230.921875 131.652344 230.675781 C 131.40625 230.429688 131.183594 230.160156 130.988281 229.867188 C 130.792969 229.578125 130.628906 229.269531 130.496094 228.945312 C 130.363281 228.621094 130.261719 228.289062 130.191406 227.945312 C 130.125 227.601562 130.089844 227.253906 130.089844 226.90625 Z M 130.089844 226.90625 " fill-opacity="1" fill-rule="nonzero"/></g><g fill="#ffffff" fill-opacity="1"><g transform="translate(168.203021, 197.757381)"><g><path d="M 18.75 -9 L 13.015625 -9 L 13.015625 -3.125 L 7.671875 -3.125 L 7.671875 -9 L 1.9375 -9 L 1.9375 -14.03125 L 7.671875 -14.03125 L 7.671875 -19.9375 L 13.015625 -19.9375 L 13.015625 -14.03125 L 18.75 -14.03125 Z M 18.75 -9 "/></g></g></g><g fill="#ffffff" fill-opacity="1"><g transform="translate(189.424868, 197.757381)"><g><path d="M 28.234375 -23.140625 L 28.234375 0 L 22.609375 0 L 22.609375 -13.875 L 17.4375 0 L 12.890625 0 L 7.671875 -13.90625 L 7.671875 0 L 2.046875 0 L 2.046875 -23.140625 L 8.703125 -23.140625 L 15.1875 -7.125 L 21.609375 -23.140625 Z M 28.234375 -23.140625 "/></g></g></g><g fill="#ffffff" fill-opacity="1"><g transform="translate(220.203116, 197.757381)"><g><path d="M 16.4375 -4.09375 L 7.8125 -4.09375 L 6.421875 0 L 0.53125 0 L 8.890625 -23.140625 L 15.421875 -23.140625 L 23.796875 0 L 17.828125 0 Z M 15 -8.4375 L 12.125 -16.90625 L 9.296875 -8.4375 Z M 15 -8.4375 "/></g></g></g><g fill="#ffffff" fill-opacity="1"><g transform="translate(245.016852, 197.757381)"><g><path d="M 16.21875 0 L 11.5 -7.078125 L 7.34375 0 L 0.953125 0 L 8.375 -11.765625 L 0.796875 -23.140625 L 7.34375 -23.140625 L 12 -16.140625 L 16.078125 -23.140625 L 22.46875 -23.140625 L 15.125 -11.46875 L 22.765625 0 Z M 16.21875 0 "/></g></g></g><g fill="#ffffff" fill-opacity="1"><g transform="translate(269.105617, 197.757381)"><g><path d="M 16.21875 0 L 11.5 -7.078125 L 7.34375 0 L 0.953125 0 L 8.375 -11.765625 L 0.796875 -23.140625 L 7.34375 -23.140625 L 12 -16.140625 L 16.078125 -23.140625 L 22.46875 -23.140625 L 15.125 -11.46875 L 22.765625 0 Z M 16.21875 0 "/></g></g></g><g fill="#ffffff" fill-opacity="1"><g transform="translate(293.194376, 197.757381)"><g><path d="M 16.21875 -13.90625 L 16.21875 -9.234375 L 1.71875 -9.234375 L 1.71875 -13.90625 Z M 16.21875 -13.90625 "/></g></g></g><g fill="#ffffff" fill-opacity="1"><g transform="translate(161.591751, 220.938134)"><g><path d="M 8.703125 -9.875 L 8.703125 0 L 7.40625 0 L 7.40625 -4.484375 L 2.375 -4.484375 L 2.375 0 L 1.09375 0 L 1.09375 -9.875 L 2.375 -9.875 L 2.375 -5.546875 L 7.40625 -5.546875 L 7.40625 -9.875 Z M 8.703125 -9.875 "/></g></g></g><g fill="#ffffff" fill-opacity="1"><g transform="translate(171.623433, 220.938134)"><g><path d="M 8 -9.875 L 4.796875 -3.734375 L 4.796875 0 L 3.5 0 L 3.5 -3.734375 L 0.265625 -9.875 L 1.703125 -9.875 L 4.140625 -4.875 L 6.578125 -9.875 Z M 8 -9.875 "/></g></g></g><g fill="#ffffff" fill-opacity="1"><g transform="translate(180.124897, 220.938134)"><g><path d="M 7.6875 -6.984375 C 7.6875 -6.160156 7.40625 -5.476562 6.84375 -4.9375 C 6.289062 -4.394531 5.4375 -4.125 4.28125 -4.125 L 2.375 -4.125 L 2.375 0 L 1.09375 0 L 1.09375 -9.875 L 4.28125 -9.875 C 5.394531 -9.875 6.238281 -9.601562 6.8125 -9.0625 C 7.394531 -8.53125 7.6875 -7.835938 7.6875 -6.984375 Z M 4.28125 -5.1875 C 5 -5.1875 5.523438 -5.34375 5.859375 -5.65625 C 6.203125 -5.96875 6.375 -6.410156 6.375 -6.984375 C 6.375 -8.203125 5.675781 -8.8125 4.28125 -8.8125 L 2.375 -8.8125 L 2.375 -5.1875 Z M 4.28125 -5.1875 "/></g></g></g><g fill="#ffffff" fill-opacity="1"><g transform="translate(188.555516, 220.938134)"><g><path d="M 2.375 -8.828125 L 2.375 -5.53125 L 5.984375 -5.53125 L 5.984375 -4.46875 L 2.375 -4.46875 L 2.375 -1.0625 L 6.40625 -1.0625 L 6.40625 0 L 1.09375 0 L 1.09375 -9.890625 L 6.40625 -9.890625 L 6.40625 -8.828125 Z M 2.375 -8.828125 "/></g></g></g><g fill="#ffffff" fill-opacity="1"><g transform="translate(196.050994, 220.938134)"><g><path d="M 6.296875 0 L 3.9375 -4.03125 L 2.375 -4.03125 L 2.375 0 L 1.09375 0 L 1.09375 -9.875 L 4.28125 -9.875 C 5.03125 -9.875 5.660156 -9.742188 6.171875 -9.484375 C 6.679688 -9.234375 7.0625 -8.890625 7.3125 -8.453125 C 7.570312 -8.023438 7.703125 -7.53125 7.703125 -6.96875 C 7.703125 -6.289062 7.503906 -5.691406 7.109375 -5.171875 C 6.722656 -4.648438 6.140625 -4.304688 5.359375 -4.140625 L 7.84375 0 Z M 2.375 -5.078125 L 4.28125 -5.078125 C 4.976562 -5.078125 5.5 -5.25 5.84375 -5.59375 C 6.195312 -5.9375 6.375 -6.394531 6.375 -6.96875 C 6.375 -7.550781 6.203125 -8.003906 5.859375 -8.328125 C 5.515625 -8.648438 4.988281 -8.8125 4.28125 -8.8125 L 2.375 -8.8125 Z M 2.375 -5.078125 "/></g></g></g><g fill="#ffffff" fill-opacity="1"><g transform="translate(204.892502, 220.938134)"><g/></g></g><g fill="#ffffff" fill-opacity="1"><g transform="translate(208.902474, 220.938134)"><g><path d="M 7.171875 -9.875 L 7.171875 -8.828125 L 4.484375 -8.828125 L 4.484375 0 L 3.1875 0 L 3.1875 -8.828125 L 0.484375 -8.828125 L 0.484375 -9.875 Z M 7.171875 -9.875 "/></g></g></g><g fill="#ffffff" fill-opacity="1"><g transform="translate(216.794671, 220.938134)"><g><path d="M 2.375 -8.828125 L 2.375 -5.53125 L 5.984375 -5.53125 L 5.984375 -4.46875 L 2.375 -4.46875 L 2.375 -1.0625 L 6.40625 -1.0625 L 6.40625 0 L 1.09375 0 L 1.09375 -9.890625 L 6.40625 -9.890625 L 6.40625 -8.828125 Z M 2.375 -8.828125 "/></g></g></g><g fill="#ffffff" fill-opacity="1"><g transform="translate(224.290146, 220.938134)"><g><path d="M 0.609375 -4.953125 C 0.609375 -5.910156 0.820312 -6.773438 1.25 -7.546875 C 1.6875 -8.316406 2.28125 -8.914062 3.03125 -9.34375 C 3.789062 -9.78125 4.628906 -10 5.546875 -10 C 6.617188 -10 7.554688 -9.738281 8.359375 -9.21875 C 9.160156 -8.707031 9.75 -7.972656 10.125 -7.015625 L 8.578125 -7.015625 C 8.296875 -7.609375 7.898438 -8.066406 7.390625 -8.390625 C 6.878906 -8.710938 6.265625 -8.875 5.546875 -8.875 C 4.847656 -8.875 4.222656 -8.710938 3.671875 -8.390625 C 3.128906 -8.066406 2.703125 -7.609375 2.390625 -7.015625 C 2.078125 -6.429688 1.921875 -5.742188 1.921875 -4.953125 C 1.921875 -4.160156 2.078125 -3.46875 2.390625 -2.875 C 2.703125 -2.289062 3.128906 -1.835938 3.671875 -1.515625 C 4.222656 -1.191406 4.847656 -1.03125 5.546875 -1.03125 C 6.265625 -1.03125 6.878906 -1.1875 7.390625 -1.5 C 7.898438 -1.820312 8.296875 -2.28125 8.578125 -2.875 L 10.125 -2.875 C 9.75 -1.925781 9.160156 -1.195312 8.359375 -0.6875 C 7.554688 -0.175781 6.617188 0.078125 5.546875 0.078125 C 4.628906 0.078125 3.789062 -0.132812 3.03125 -0.5625 C 2.28125 -0.988281 1.6875 -1.582031 1.25 -2.34375 C 0.820312 -3.113281 0.609375 -3.984375 0.609375 -4.953125 Z M 0.609375 -4.953125 "/></g></g></g><g fill="#ffffff" fill-opacity="1"><g transform="translate(235.455324, 220.938134)"><g><path d="M 8.703125 -9.875 L 8.703125 0 L 7.40625 0 L 7.40625 -4.484375 L 2.375 -4.484375 L 2.375 0 L 1.09375 0 L 1.09375 -9.875 L 2.375 -9.875 L 2.375 -5.546875 L 7.40625 -5.546875 L 7.40625 -9.875 Z M 8.703125 -9.875 "/></g></g></g><g fill="#ffffff" fill-opacity="1"><g transform="translate(245.487004, 220.938134)"><g/></g></g><g fill="#ffffff" fill-opacity="1"><g transform="translate(249.496976, 220.938134)"><g><path d="M 8.671875 0 L 7.390625 -1.296875 C 6.898438 -0.796875 6.378906 -0.425781 5.828125 -0.1875 C 5.285156 0.0507812 4.671875 0.171875 3.984375 0.171875 C 3.304688 0.171875 2.703125 0.0507812 2.171875 -0.1875 C 1.648438 -0.4375 1.242188 -0.785156 0.953125 -1.234375 C 0.671875 -1.691406 0.53125 -2.222656 0.53125 -2.828125 C 0.53125 -3.523438 0.722656 -4.132812 1.109375 -4.65625 C 1.503906 -5.175781 2.082031 -5.585938 2.84375 -5.890625 C 2.539062 -6.253906 2.320312 -6.585938 2.1875 -6.890625 C 2.0625 -7.191406 2 -7.519531 2 -7.875 C 2 -8.289062 2.101562 -8.664062 2.3125 -9 C 2.53125 -9.34375 2.835938 -9.609375 3.234375 -9.796875 C 3.628906 -9.984375 4.085938 -10.078125 4.609375 -10.078125 C 5.117188 -10.078125 5.5625 -9.976562 5.9375 -9.78125 C 6.3125 -9.582031 6.59375 -9.304688 6.78125 -8.953125 C 6.976562 -8.597656 7.066406 -8.203125 7.046875 -7.765625 L 5.75 -7.765625 C 5.757812 -8.148438 5.648438 -8.453125 5.421875 -8.671875 C 5.203125 -8.898438 4.910156 -9.015625 4.546875 -9.015625 C 4.171875 -9.015625 3.863281 -8.90625 3.625 -8.6875 C 3.394531 -8.476562 3.28125 -8.207031 3.28125 -7.875 C 3.28125 -7.59375 3.359375 -7.316406 3.515625 -7.046875 C 3.671875 -6.785156 3.9375 -6.460938 4.3125 -6.078125 L 7.25 -3.125 L 7.515625 -3.515625 L 8.46875 -5.125 L 9.859375 -5.125 L 8.703125 -3.125 C 8.535156 -2.832031 8.347656 -2.53125 8.140625 -2.21875 L 10.359375 0 Z M 3.984375 -0.9375 C 4.492188 -0.9375 4.953125 -1.035156 5.359375 -1.234375 C 5.773438 -1.429688 6.164062 -1.738281 6.53125 -2.15625 L 3.625 -5.078125 C 2.414062 -4.609375 1.8125 -3.875 1.8125 -2.875 C 1.8125 -2.320312 2.007812 -1.859375 2.40625 -1.484375 C 2.8125 -1.117188 3.335938 -0.9375 3.984375 -0.9375 Z M 3.984375 -0.9375 "/></g></g></g><g fill="#ffffff" fill-opacity="1"><g transform="translate(260.194589, 220.938134)"><g/></g></g><g fill="#ffffff" fill-opacity="1"><g transform="translate(264.204566, 220.938134)"><g><path d="M 2.375 -9.875 L 2.375 0 L 1.09375 0 L 1.09375 -9.875 Z M 2.375 -9.875 "/></g></g></g><g fill="#ffffff" fill-opacity="1"><g transform="translate(267.917, 220.938134)"><g><path d="M 8.859375 0 L 7.5625 0 L 2.375 -7.859375 L 2.375 0 L 1.09375 0 L 1.09375 -9.890625 L 2.375 -9.890625 L 7.5625 -2.046875 L 7.5625 -9.890625 L 8.859375 -9.890625 Z M 8.859375 0 "/></g></g></g><g fill="#ffffff" fill-opacity="1"><g transform="translate(278.104541, 220.938134)"><g><path d="M 8.859375 0 L 7.5625 0 L 2.375 -7.859375 L 2.375 0 L 1.09375 0 L 1.09375 -9.890625 L 2.375 -9.890625 L 7.5625 -2.046875 L 7.5625 -9.890625 L 8.859375 -9.890625 Z M 8.859375 0 "/></g></g></g><g fill="#ffffff" fill-opacity="1"><g transform="translate(288.292082, 220.938134)"><g><path d="M 5.5625 0.09375 C 4.644531 0.09375 3.804688 -0.117188 3.046875 -0.546875 C 2.296875 -0.972656 1.703125 -1.570312 1.265625 -2.34375 C 0.828125 -3.113281 0.609375 -3.984375 0.609375 -4.953125 C 0.609375 -5.910156 0.828125 -6.773438 1.265625 -7.546875 C 1.703125 -8.316406 2.296875 -8.914062 3.046875 -9.34375 C 3.804688 -9.769531 4.644531 -9.984375 5.5625 -9.984375 C 6.488281 -9.984375 7.328125 -9.769531 8.078125 -9.34375 C 8.835938 -8.914062 9.4375 -8.316406 9.875 -7.546875 C 10.3125 -6.785156 10.53125 -5.921875 10.53125 -4.953125 C 10.53125 -3.972656 10.3125 -3.097656 9.875 -2.328125 C 9.4375 -1.566406 8.835938 -0.972656 8.078125 -0.546875 C 7.328125 -0.117188 6.488281 0.09375 5.5625 0.09375 Z M 5.5625 -1.015625 C 6.257812 -1.015625 6.882812 -1.175781 7.4375 -1.5 C 7.988281 -1.820312 8.421875 -2.28125 8.734375 -2.875 C 9.054688 -3.46875 9.21875 -4.160156 9.21875 -4.953125 C 9.21875 -5.742188 9.054688 -6.429688 8.734375 -7.015625 C 8.421875 -7.609375 7.988281 -8.066406 7.4375 -8.390625 C 6.894531 -8.710938 6.269531 -8.875 5.5625 -8.875 C 4.863281 -8.875 4.238281 -8.710938 3.6875 -8.390625 C 3.144531 -8.066406 2.710938 -7.609375 2.390625 -7.015625 C 2.078125 -6.429688 1.921875 -5.742188 1.921875 -4.953125 C 1.921875 -4.160156 2.078125 -3.46875 2.390625 -2.875 C 2.710938 -2.28125 3.148438 -1.820312 3.703125 -1.5 C 4.253906 -1.175781 4.875 -1.015625 5.5625 -1.015625 Z M 5.5625 -1.015625 "/></g></g></g><g fill="#ffffff" fill-opacity="1"><g transform="translate(299.655621, 220.938134)"><g><path d="M 9.25 -9.875 L 5.53125 0 L 4.03125 0 L 0.3125 -9.875 L 1.6875 -9.875 L 4.796875 -1.359375 L 7.890625 -9.875 Z M 9.25 -9.875 "/></g></g></g><g fill="#ffffff" fill-opacity="1"><g transform="translate(309.460607, 220.938134)"><g><path d="M 1.5 0.078125 C 1.257812 0.078125 1.050781 -0.00390625 0.875 -0.171875 C 0.707031 -0.335938 0.625 -0.546875 0.625 -0.796875 C 0.625 -1.035156 0.707031 -1.238281 0.875 -1.40625 C 1.050781 -1.582031 1.257812 -1.671875 1.5 -1.671875 C 1.738281 -1.671875 1.941406 -1.582031 2.109375 -1.40625 C 2.273438 -1.238281 2.359375 -1.035156 2.359375 -0.796875 C 2.359375 -0.546875 2.273438 -0.335938 2.109375 -0.171875 C 1.941406 -0.00390625 1.738281 0.078125 1.5 0.078125 Z M 1.5 0.078125 "/></g></g></g><path fill="#ffffff" d="M 86.777344 161.683594 C 86.851562 161.445312 86.957031 161.296875 87.097656 161.230469 L 88.996094 160.40625 C 90.773438 159.761719 93.171875 158.964844 94.996094 158.453125 L 95.890625 158.246094 C 95.738281 158.304688 95.625 158.457031 95.550781 158.703125 C 94.183594 159.175781 92.367188 159.824219 91.035156 160.386719 C 89.75 160.742188 88.035156 161.234375 86.777344 161.683594 " fill-opacity="1" fill-rule="nonzero"/><path fill="#ffffff" d="M 77.898438 167.214844 C 77.953125 167.039062 78.027344 166.914062 78.121094 166.835938 L 78.15625 166.808594 C 81.738281 164.136719 81.808594 164.082031 83.820312 162.925781 L 85.808594 161.859375 C 85.675781 161.925781 85.570312 162.074219 85.5 162.300781 C 84.269531 163.085938 82.628906 164.148438 81.453125 165.011719 C 80.367188 165.644531 78.929688 166.5 77.898438 167.214844 " fill-opacity="1" fill-rule="nonzero"/><path fill="#ffffff" d="M 143.949219 182.011719 L 143.988281 182.035156 L 144.816406 184.035156 L 143.949219 182.011719 " fill-opacity="1" fill-rule="nonzero"/><path fill="#ffffff" d="M 141.25 177.308594 C 141.265625 177.261719 141.285156 177.234375 141.3125 177.226562 C 142.019531 178.417969 142.949219 180.015625 143.582031 181.246094 L 144.816406 184.035156 L 143.535156 181.3125 C 142.867188 180.097656 141.972656 178.488281 141.25 177.308594 " fill-opacity="1" fill-rule="nonzero"/><path fill="#ffffff" d="M 134.628906 169.402344 C 134.660156 169.300781 134.707031 169.238281 134.769531 169.214844 C 135.730469 170.167969 137 171.449219 137.902344 172.457031 C 138.714844 173.523438 139.789062 174.953125 140.550781 176.058594 C 140.515625 176.070312 140.492188 176.101562 140.476562 176.15625 C 139.664062 175.113281 138.566406 173.734375 137.6875 172.746094 C 136.785156 171.726562 135.578125 170.378906 134.628906 169.402344 " fill-opacity="1" fill-rule="nonzero"/><path fill="#ffffff" d="M 126.46875 163.390625 C 126.515625 163.238281 126.585938 163.144531 126.679688 163.105469 C 127.835938 163.800781 129.375 164.738281 130.488281 165.5 C 131.488281 166.316406 132.820312 167.421875 133.777344 168.289062 C 133.710938 168.316406 133.660156 168.382812 133.625 168.492188 C 132.59375 167.714844 131.207031 166.691406 130.125 165.988281 C 129.042969 165.191406 127.589844 164.132812 126.46875 163.390625 " fill-opacity="1" fill-rule="nonzero"/><path fill="#ffffff" d="M 117.1875 159.441406 C 117.246094 159.246094 117.335938 159.128906 117.453125 159.082031 C 118.753906 159.492188 120.480469 160.058594 121.75 160.546875 C 122.890625 161.09375 124.40625 161.835938 125.511719 162.449219 C 125.414062 162.488281 125.339844 162.585938 125.292969 162.742188 C 124.09375 162.253906 122.492188 161.613281 121.261719 161.203125 C 120.050781 160.652344 118.425781 159.925781 117.1875 159.441406 " fill-opacity="1" fill-rule="nonzero"/><g clip-path="url(#fd2b4c6bc4)"><path fill="#ffffff" d="M 107.195312 157.726562 C 107.265625 157.5 107.371094 157.363281 107.507812 157.308594 C 108.851562 157.414062 110.648438 157.566406 111.984375 157.753906 L 112.167969 157.785156 C 113.375 158.035156 114.980469 158.382812 116.167969 158.710938 C 116.046875 158.757812 115.953125 158.882812 115.890625 159.078125 C 114.582031 158.894531 112.835938 158.660156 111.515625 158.5625 C 110.226562 158.285156 108.5 157.925781 107.195312 157.726562 " fill-opacity="1" fill-rule="nonzero"/></g><g clip-path="url(#a5fd14f6ec)"><path fill="#ffffff" d="M 96.914062 158.417969 C 96.988281 158.175781 97.101562 158.027344 97.253906 157.96875 L 99.023438 157.664062 C 100.054688 157.554688 101.425781 157.367188 102.460938 157.300781 L 103.730469 157.238281 L 106.15625 157.253906 C 106.015625 157.308594 105.910156 157.449219 105.839844 157.675781 C 104.472656 157.8125 102.652344 158.007812 101.300781 158.234375 C 99.984375 158.257812 98.226562 158.304688 96.914062 158.417969 " fill-opacity="1" fill-rule="nonzero"/></g><path fill="#ffffff" d="M 70.851562 174.5 C 70.882812 174.390625 70.925781 174.304688 70.972656 174.238281 C 71.660156 173.402344 72.546875 172.265625 73.265625 171.457031 C 74.378906 170.3125 75.882812 168.796875 77.066406 167.722656 C 76.976562 167.800781 76.90625 167.921875 76.855469 168.089844 C 75.855469 169.109375 74.53125 170.476562 73.59375 171.554688 C 72.75 172.417969 71.628906 173.578125 70.851562 174.5 " fill-opacity="1" fill-rule="nonzero"/><path fill="#ffffff" d="M 143.910156 182.144531 C 143.90625 182.117188 143.90625 182.089844 143.90625 182.070312 L 144.816406 184.035156 L 143.910156 182.144531 " fill-opacity="1" fill-rule="nonzero"/><path fill="#ffffff" d="M 138.230469 173.867188 C 138.210938 173.695312 138.203125 173.550781 138.207031 173.4375 C 139.046875 174.449219 140.15625 175.808594 140.929688 176.871094 C 141.648438 178.046875 142.601562 179.621094 143.265625 180.828125 C 143.265625 180.859375 143.265625 180.902344 143.273438 180.953125 C 142.605469 179.878906 141.699219 178.457031 140.957031 177.433594 C 140.15625 176.351562 138.75 175.109375 138.230469 173.867188 " fill-opacity="1" fill-rule="nonzero"/><path fill="#ffffff" d="M 130.800781 167.339844 C 130.765625 167.039062 130.753906 166.792969 130.761719 166.589844 C 131.8125 167.324219 133.203125 168.3125 134.203125 169.113281 C 135.148438 170.089844 136.40625 171.402344 137.3125 172.421875 C 137.308594 172.546875 137.3125 172.707031 137.335938 172.898438 C 136.433594 172.109375 135.222656 171.066406 134.265625 170.347656 C 133.238281 169.433594 131.457031 168.550781 130.800781 167.339844 " fill-opacity="1" fill-rule="nonzero"/><path fill="#ffffff" d="M 122.035156 162.722656 C 121.988281 162.3125 121.96875 161.972656 121.980469 161.699219 C 123.1875 162.132812 124.789062 162.730469 125.960938 163.246094 C 127.082031 164.003906 128.574219 165.019531 129.664062 165.824219 C 129.65625 166.035156 129.667969 166.300781 129.703125 166.613281 C 128.621094 166.125 127.171875 165.480469 126.054688 165.074219 C 124.859375 164.351562 123.257812 163.398438 122.035156 162.722656 " fill-opacity="1" fill-rule="nonzero"/><path fill="#ffffff" d="M 112.347656 160.167969 C 112.292969 159.671875 112.273438 159.257812 112.285156 158.925781 C 113.589844 159.050781 115.328125 159.234375 116.617188 159.449219 C 117.863281 159.953125 119.519531 160.636719 120.738281 161.203125 C 120.726562 161.488281 120.746094 161.839844 120.792969 162.261719 C 119.582031 162.078125 117.960938 161.851562 116.738281 161.765625 C 115.429688 161.265625 113.679688 160.609375 112.347656 160.167969 " fill-opacity="1" fill-rule="nonzero"/><g clip-path="url(#a1bb7e4934)"><path fill="#ffffff" d="M 102.160156 159.832031 C 102.097656 159.273438 102.074219 158.808594 102.089844 158.4375 C 103.4375 158.242188 105.238281 157.992188 106.597656 157.886719 C 107.90625 158.113281 109.65625 158.425781 110.953125 158.726562 C 110.9375 159.0625 110.960938 159.484375 111.015625 159.992188 C 109.726562 160.132812 108.007812 160.332031 106.734375 160.566406 C 105.367188 160.320312 103.539062 160.003906 102.160156 159.832031 " fill-opacity="1" fill-rule="nonzero"/></g><path fill="#ffffff" d="M 91.886719 161.871094 C 91.820312 161.285156 91.796875 160.796875 91.8125 160.402344 C 93.148438 159.871094 94.9375 159.171875 96.308594 158.730469 C 97.628906 158.648438 99.398438 158.550781 100.722656 158.554688 C 100.707031 158.929688 100.730469 159.398438 100.792969 159.960938 C 99.480469 160.429688 97.734375 161.070312 96.457031 161.625 C 95.085938 161.667969 93.253906 161.738281 91.886719 161.871094 " fill-opacity="1" fill-rule="nonzero"/><path fill="#ffffff" d="M 82.199219 166.300781 C 82.132812 165.71875 82.109375 165.238281 82.125 164.847656 C 83.328125 164.007812 84.945312 162.898438 86.203125 162.136719 C 87.472656 161.71875 89.167969 161.179688 90.464844 160.859375 C 90.449219 161.25 90.472656 161.738281 90.539062 162.328125 C 89.265625 163.125 87.574219 164.199219 86.355469 165.074219 C 85.097656 165.410156 83.425781 165.875 82.199219 166.300781 " fill-opacity="1" fill-rule="nonzero"/><path fill="#ffffff" d="M 74.191406 172.585938 C 74.132812 172.046875 74.109375 171.597656 74.125 171.238281 C 75.09375 170.175781 76.390625 168.765625 77.421875 167.765625 C 78.464844 167.085938 79.867188 166.191406 80.960938 165.59375 C 80.945312 165.980469 80.96875 166.460938 81.03125 167.035156 C 79.972656 168.078125 78.566406 169.472656 77.566406 170.574219 C 76.535156 171.148438 75.171875 171.929688 74.191406 172.585938 " fill-opacity="1" fill-rule="nonzero"/><path fill="#ffffff" d="M 68.105469 180.316406 C 68.050781 179.847656 68.03125 179.457031 68.042969 179.144531 C 68.75 177.917969 69.707031 176.292969 70.480469 175.113281 C 71.273438 174.21875 72.34375 173.039062 73.203125 172.207031 C 73.1875 172.5625 73.210938 173.007812 73.269531 173.539062 C 72.453125 174.753906 71.367188 176.378906 70.609375 177.628906 C 69.835938 178.414062 68.808594 179.46875 68.105469 180.316406 " fill-opacity="1" fill-rule="nonzero"/><path fill="#ffffff" d="M 64.101562 189.09375 C 64.058594 188.71875 64.042969 188.40625 64.054688 188.15625 C 64.480469 186.832031 65.058594 185.070312 65.554688 183.769531 C 66.078125 182.710938 66.792969 181.304688 67.390625 180.285156 C 67.378906 180.589844 67.398438 180.972656 67.449219 181.429688 C 66.890625 182.75 66.15625 184.515625 65.664062 185.863281 C 65.167969 186.816406 64.515625 188.097656 64.101562 189.09375 " fill-opacity="1" fill-rule="nonzero"/><g clip-path="url(#ed7014f573)"><path fill="#ffffff" d="M 62.351562 198.519531 C 62.324219 198.265625 62.3125 198.050781 62.320312 197.878906 L 62.347656 197.429688 L 62.527344 195.390625 L 62.898438 192.8125 C 63.121094 191.789062 63.410156 190.421875 63.6875 189.414062 C 63.679688 189.65625 63.695312 189.953125 63.734375 190.3125 C 63.460938 191.679688 63.101562 193.503906 62.890625 194.878906 C 62.703125 195.96875 62.464844 197.421875 62.351562 198.519531 " fill-opacity="1" fill-rule="nonzero"/></g><path fill="#ffffff" d="M 141.375 178.390625 C 141.371094 178.371094 141.363281 178.347656 141.359375 178.324219 C 141.328125 178.1875 141.304688 178.0625 141.285156 177.949219 C 141.988281 178.988281 142.910156 180.382812 143.542969 181.464844 L 144.816406 184.035156 L 143.613281 181.816406 C 142.960938 180.777344 141.875 179.515625 141.375 178.390625 " fill-opacity="1" fill-rule="nonzero"/><path fill="#ffffff" d="M 134.914062 171.894531 C 134.902344 171.839844 134.890625 171.789062 134.878906 171.738281 C 134.808594 171.421875 134.75 171.132812 134.703125 170.875 C 135.628906 171.613281 136.855469 172.609375 137.71875 173.414062 C 138.574219 174.453125 139.707031 175.839844 140.515625 176.914062 C 140.539062 177.046875 140.566406 177.191406 140.605469 177.355469 C 140.609375 177.382812 140.617188 177.410156 140.621094 177.433594 C 139.871094 176.667969 138.855469 175.652344 138.039062 174.957031 C 137.113281 174.027344 135.570312 173.03125 134.914062 171.894531 " fill-opacity="1" fill-rule="nonzero"/><path fill="#ffffff" d="M 126.894531 167.121094 C 126.875 167.042969 126.859375 166.964844 126.84375 166.886719 C 126.734375 166.410156 126.648438 165.980469 126.578125 165.597656 C 127.671875 166.023438 129.125 166.605469 130.179688 167.121094 C 131.25 167.988281 132.671875 169.160156 133.703125 170.070312 C 133.753906 170.34375 133.816406 170.652344 133.890625 170.992188 C 133.90625 171.046875 133.917969 171.101562 133.929688 171.160156 C 132.984375 170.699219 131.710938 170.097656 130.722656 169.730469 C 129.582031 168.933594 127.691406 168.257812 126.894531 167.121094 " fill-opacity="1" fill-rule="nonzero"/><path fill="#ffffff" d="M 117.730469 164.195312 C 117.707031 164.097656 117.683594 163.996094 117.660156 163.898438 C 117.523438 163.292969 117.410156 162.746094 117.324219 162.253906 C 118.53125 162.363281 120.140625 162.527344 121.335938 162.730469 C 122.566406 163.40625 124.203125 164.316406 125.40625 165.039062 C 125.476562 165.4375 125.566406 165.886719 125.679688 166.378906 C 125.699219 166.460938 125.714844 166.539062 125.734375 166.621094 C 124.640625 166.476562 123.171875 166.300781 122.066406 166.253906 C 120.773438 165.621094 119.042969 164.789062 117.730469 164.195312 " fill-opacity="1" fill-rule="nonzero"/><path fill="#ffffff" d="M 107.824219 163.25 C 107.796875 163.132812 107.773438 163.019531 107.746094 162.90625 C 107.585938 162.199219 107.457031 161.566406 107.359375 160.996094 C 108.628906 160.785156 110.324219 160.519531 111.605469 160.402344 C 112.941406 160.851562 114.71875 161.460938 116.035156 161.964844 C 116.125 162.46875 116.238281 163.027344 116.378906 163.648438 C 116.398438 163.75 116.421875 163.851562 116.449219 163.953125 C 115.253906 164.128906 113.660156 164.378906 112.484375 164.644531 C 111.09375 164.210938 109.234375 163.636719 107.824219 163.25 " fill-opacity="1" fill-rule="nonzero"/><path fill="#ffffff" d="M 97.597656 164.410156 C 97.566406 164.28125 97.539062 164.15625 97.511719 164.035156 C 97.339844 163.269531 97.199219 162.582031 97.089844 161.964844 C 98.371094 161.429688 100.085938 160.730469 101.402344 160.289062 C 102.785156 160.472656 104.632812 160.734375 106.003906 160.992188 C 106.105469 161.570312 106.238281 162.214844 106.398438 162.929688 C 106.425781 163.046875 106.453125 163.164062 106.476562 163.28125 C 105.238281 163.773438 103.589844 164.445312 102.382812 165.015625 C 100.949219 164.8125 99.039062 164.546875 97.597656 164.410156 " fill-opacity="1" fill-rule="nonzero"/><path fill="#ffffff" d="M 87.472656 167.789062 C 87.445312 167.660156 87.414062 167.53125 87.386719 167.40625 C 87.210938 166.628906 87.066406 165.925781 86.957031 165.296875 C 88.195312 164.441406 89.851562 163.3125 91.140625 162.535156 C 92.515625 162.425781 94.347656 162.292969 95.726562 162.269531 C 95.835938 162.890625 95.976562 163.582031 96.152344 164.351562 C 96.179688 164.472656 96.207031 164.601562 96.238281 164.726562 C 95 165.53125 93.359375 166.617188 92.167969 167.484375 C 90.757812 167.550781 88.878906 167.648438 87.472656 167.789062 " fill-opacity="1" fill-rule="nonzero"/><path fill="#ffffff" d="M 78.566406 173.066406 C 78.539062 172.941406 78.507812 172.820312 78.484375 172.699219 C 78.3125 171.953125 78.175781 171.28125 78.070312 170.675781 C 79.09375 169.59375 80.46875 168.152344 81.554688 167.125 C 82.78125 166.730469 84.425781 166.214844 85.679688 165.90625 C 85.789062 166.535156 85.933594 167.234375 86.109375 168.011719 C 86.136719 168.136719 86.167969 168.265625 86.195312 168.394531 C 85.085938 169.457031 83.617188 170.882812 82.566406 172 C 81.359375 172.292969 79.75 172.695312 78.566406 173.066406 " fill-opacity="1" fill-rule="nonzero"/><path fill="#ffffff" d="M 71.453125 179.765625 C 71.425781 179.65625 71.398438 179.542969 71.375 179.4375 C 71.222656 178.765625 71.101562 178.160156 71.003906 177.617188 C 71.789062 176.371094 72.84375 174.714844 73.6875 173.511719 C 74.671875 172.886719 75.996094 172.0625 77.023438 171.515625 C 77.128906 172.113281 77.265625 172.78125 77.433594 173.519531 C 77.460938 173.636719 77.488281 173.757812 77.515625 173.882812 C 76.628906 175.109375 75.457031 176.757812 74.625 178.023438 C 73.660156 178.519531 72.375 179.191406 71.453125 179.765625 " fill-opacity="1" fill-rule="nonzero"/><path fill="#ffffff" d="M 66.304688 187.523438 C 66.285156 187.429688 66.261719 187.339844 66.242188 187.246094 C 66.113281 186.6875 66.011719 186.179688 65.933594 185.730469 C 66.457031 184.386719 67.164062 182.601562 67.75 181.289062 C 68.464844 180.46875 69.429688 179.386719 70.214844 178.632812 C 70.308594 179.167969 70.429688 179.761719 70.578125 180.417969 C 70.601562 180.527344 70.625 180.632812 70.652344 180.742188 C 70.003906 182.066406 69.152344 183.839844 68.5625 185.1875 C 67.859375 185.863281 66.933594 186.78125 66.304688 187.523438 " fill-opacity="1" fill-rule="nonzero"/><path fill="#ffffff" d="M 63.304688 195.96875 C 63.289062 195.898438 63.273438 195.832031 63.257812 195.761719 C 63.160156 195.34375 63.085938 194.96875 63.027344 194.628906 C 63.269531 193.253906 63.601562 191.421875 63.910156 190.0625 C 64.335938 189.09375 64.914062 187.800781 65.417969 186.871094 C 65.496094 187.3125 65.597656 187.800781 65.71875 188.34375 C 65.738281 188.433594 65.757812 188.523438 65.78125 188.613281 C 65.390625 189.964844 64.882812 191.773438 64.550781 193.140625 C 64.144531 193.976562 63.621094 195.097656 63.304688 195.96875 " fill-opacity="1" fill-rule="nonzero"/><g clip-path="url(#6462b654aa)"><path fill="#ffffff" d="M 62.621094 204.738281 C 62.613281 204.699219 62.601562 204.65625 62.59375 204.617188 C 62.535156 204.363281 62.492188 204.136719 62.453125 203.933594 C 62.394531 202.589844 62.328125 200.792969 62.335938 199.445312 C 62.453125 198.363281 62.617188 196.917969 62.8125 195.847656 C 62.867188 196.167969 62.941406 196.527344 63.03125 196.925781 C 63.046875 196.992188 63.0625 197.054688 63.074219 197.121094 C 62.964844 198.441406 62.820312 200.203125 62.769531 201.527344 C 62.695312 202.488281 62.613281 203.773438 62.621094 204.738281 " fill-opacity="1" fill-rule="nonzero"/></g><path fill="#ffffff" d="M 144.023438 182.628906 C 144.007812 182.570312 143.992188 182.515625 143.976562 182.460938 L 144.816406 184.035156 L 144.023438 182.628906 " fill-opacity="1" fill-rule="nonzero"/><path fill="#ffffff" d="M 138.875 176.625 C 138.773438 176.285156 138.683594 175.964844 138.605469 175.664062 C 139.378906 176.378906 140.398438 177.351562 141.105469 178.132812 C 141.804688 179.125 142.730469 180.449219 143.378906 181.46875 C 143.402344 181.558594 143.429688 181.652344 143.457031 181.75 C 142.882812 181.019531 142.101562 180.050781 141.453125 179.386719 C 140.691406 178.546875 139.449219 177.605469 138.875 176.625 " fill-opacity="1" fill-rule="nonzero"/><path fill="#ffffff" d="M 131.921875 172.152344 C 131.75 171.558594 131.589844 171 131.453125 170.46875 C 132.40625 170.863281 133.675781 171.40625 134.585938 171.890625 C 135.546875 172.773438 136.820312 173.960938 137.75 174.878906 C 137.835938 175.210938 137.9375 175.566406 138.046875 175.941406 C 137.257812 175.523438 136.191406 174.972656 135.359375 174.648438 C 134.335938 173.890625 132.664062 173.1875 131.921875 172.152344 " fill-opacity="1" fill-rule="nonzero"/><path fill="#ffffff" d="M 123.566406 169.292969 C 123.328125 168.484375 123.113281 167.714844 122.925781 166.996094 C 124.007812 167.070312 125.457031 167.183594 126.527344 167.355469 C 127.695312 168.109375 129.246094 169.121094 130.390625 169.90625 C 130.535156 170.460938 130.703125 171.054688 130.886719 171.675781 C 129.921875 171.570312 128.636719 171.445312 127.667969 171.433594 C 126.441406 170.78125 124.804688 169.917969 123.566406 169.292969 " fill-opacity="1" fill-rule="nonzero"/><path fill="#ffffff" d="M 114.207031 168.132812 C 113.917969 167.152344 113.660156 166.222656 113.429688 165.351562 C 114.597656 165.109375 116.15625 164.804688 117.339844 164.65625 C 118.65625 165.246094 120.410156 166.039062 121.710938 166.671875 C 121.90625 167.414062 122.128906 168.203125 122.375 169.039062 C 121.289062 169.242188 119.847656 169.53125 118.785156 169.824219 C 117.414062 169.304688 115.589844 168.617188 114.207031 168.132812 " fill-opacity="1" fill-rule="nonzero"/><path fill="#ffffff" d="M 94.078125 171.261719 C 93.738281 170.105469 93.433594 169.007812 93.160156 167.980469 C 94.359375 167.132812 95.964844 166.015625 97.210938 165.234375 C 98.652344 165.394531 100.582031 165.613281 102.015625 165.832031 C 102.277344 166.820312 102.574219 167.871094 102.898438 168.984375 C 101.71875 169.777344 100.152344 170.84375 99.015625 171.695312 C 97.535156 171.542969 95.5625 171.351562 94.078125 171.261719 " fill-opacity="1" fill-rule="nonzero"/><path fill="#ffffff" d="M 84.367188 175.589844 C 84.03125 174.445312 83.726562 173.359375 83.457031 172.34375 C 84.539062 171.246094 85.984375 169.789062 87.117188 168.746094 C 88.527344 168.628906 90.40625 168.492188 91.816406 168.449219 C 92.089844 169.480469 92.394531 170.578125 92.738281 171.738281 C 91.585938 172.789062 90.058594 174.203125 88.953125 175.304688 C 87.574219 175.371094 85.738281 175.464844 84.367188 175.589844 " fill-opacity="1" fill-rule="nonzero"/><path fill="#ffffff" d="M 76.210938 181.226562 C 75.898438 180.164062 75.613281 179.15625 75.367188 178.207031 C 76.226562 176.957031 77.382812 175.292969 78.296875 174.078125 C 79.484375 173.742188 81.074219 173.304688 82.285156 173.042969 C 82.550781 174.054688 82.851562 175.132812 83.1875 176.269531 C 82.230469 177.480469 80.960938 179.101562 80.046875 180.34375 C 78.890625 180.585938 77.347656 180.914062 76.210938 181.226562 " fill-opacity="1" fill-rule="nonzero"/><path fill="#ffffff" d="M 69.855469 187.832031 C 69.585938 186.90625 69.339844 186.027344 69.125 185.203125 C 69.746094 183.867188 70.589844 182.085938 71.265625 180.773438 C 72.199219 180.238281 73.453125 179.535156 74.425781 179.078125 C 74.671875 180.011719 74.949219 181.007812 75.257812 182.054688 C 74.519531 183.347656 73.535156 185.078125 72.835938 186.394531 C 71.929688 186.796875 70.726562 187.351562 69.855469 187.832031 " fill-opacity="1" fill-rule="nonzero"/><path fill="#ffffff" d="M 65.496094 195.074219 C 65.28125 194.335938 65.085938 193.640625 64.910156 192.984375 C 65.28125 191.625 65.785156 189.816406 66.207031 188.472656 C 66.855469 187.769531 67.730469 186.835938 68.441406 186.199219 C 68.65625 187.003906 68.894531 187.859375 69.160156 188.761719 C 68.652344 190.070312 67.980469 191.816406 67.511719 193.140625 C 66.886719 193.695312 66.054688 194.449219 65.496094 195.074219 " fill-opacity="1" fill-rule="nonzero"/><g clip-path="url(#b6b5b8822c)"><path fill="#ffffff" d="M 63.3125 202.632812 C 63.164062 202.125 63.027344 201.644531 62.910156 201.195312 C 63.007812 199.878906 63.144531 198.125 63.296875 196.816406 C 63.628906 195.976562 64.09375 194.855469 64.515625 194.054688 C 64.679688 194.6875 64.867188 195.359375 65.078125 196.066406 C 64.816406 197.324219 64.476562 199.007812 64.261719 200.273438 C 63.945312 200.96875 63.539062 201.902344 63.3125 202.632812 " fill-opacity="1" fill-rule="nonzero"/></g><g clip-path="url(#3a41f7e8fb)"><path fill="#ffffff" d="M 63.492188 210.179688 C 63.421875 209.9375 63.355469 209.707031 63.300781 209.492188 C 63.097656 208.28125 62.84375 206.660156 62.707031 205.441406 C 62.710938 204.496094 62.730469 203.238281 62.820312 202.300781 C 62.933594 202.71875 63.058594 203.167969 63.195312 203.640625 C 63.203125 204.792969 63.214844 206.332031 63.277344 207.484375 C 63.3125 208.292969 63.375 209.378906 63.492188 210.179688 " fill-opacity="1" fill-rule="nonzero"/></g><path fill="#ffffff" d="M 63.8125 211.621094 L 63.628906 210.929688 L 63.539062 210.578125 C 63.589844 210.761719 63.644531 210.957031 63.703125 211.164062 L 64.042969 212.414062 C 63.972656 212.175781 63.878906 211.859375 63.8125 211.621094 " fill-opacity="1" fill-rule="nonzero"/><path fill="#ffffff" d="M 142 180.519531 C 141.917969 180.28125 141.84375 180.050781 141.777344 179.828125 C 142.382812 180.507812 143.175781 181.425781 143.710938 182.160156 L 144.816406 184.035156 L 143.886719 182.710938 C 143.332031 182.042969 142.4375 181.265625 142 180.519531 " fill-opacity="1" fill-rule="nonzero"/><path fill="#ffffff" d="M 136.34375 176.773438 C 136.164062 176.226562 135.992188 175.699219 135.835938 175.195312 C 136.636719 175.542969 137.703125 176.019531 138.460938 176.457031 C 139.261719 177.25 140.324219 178.308594 141.09375 179.132812 C 141.175781 179.390625 141.265625 179.660156 141.355469 179.941406 C 140.738281 179.585938 139.898438 179.121094 139.234375 178.863281 C 138.375 178.226562 136.984375 177.632812 136.34375 176.773438 " fill-opacity="1" fill-rule="nonzero"/><path fill="#ffffff" d="M 129.035156 174.425781 C 128.765625 173.609375 128.507812 172.820312 128.273438 172.0625 C 129.222656 172.089844 130.492188 172.144531 131.433594 172.273438 C 132.484375 172.988281 133.882812 173.949219 134.914062 174.691406 C 135.085938 175.230469 135.265625 175.796875 135.460938 176.382812 C 134.648438 176.335938 133.558594 176.292969 132.746094 176.34375 C 131.636719 175.761719 129.855469 175.375 129.035156 174.425781 " fill-opacity="1" fill-rule="nonzero"/><path fill="#ffffff" d="M 120.457031 173.511719 C 120.109375 172.46875 119.785156 171.464844 119.484375 170.496094 C 120.539062 170.222656 121.953125 169.871094 123.027344 169.6875 C 124.273438 170.300781 125.933594 171.121094 127.167969 171.761719 C 127.414062 172.550781 127.679688 173.371094 127.960938 174.222656 C 127.003906 174.480469 125.730469 174.839844 124.796875 175.179688 C 123.496094 174.671875 121.761719 174 120.457031 173.511719 " fill-opacity="1" fill-rule="nonzero"/><path fill="#ffffff" d="M 110.996094 174.070312 C 110.59375 172.859375 110.214844 171.691406 109.867188 170.570312 C 110.984375 170.007812 112.484375 169.265625 113.636719 168.777344 C 115.023438 169.257812 116.871094 169.902344 118.246094 170.410156 C 118.554688 171.402344 118.890625 172.433594 119.246094 173.5 C 118.191406 174.042969 116.789062 174.785156 115.769531 175.390625 C 114.339844 174.984375 112.433594 174.449219 110.996094 174.070312 " fill-opacity="1" fill-rule="nonzero"/><path fill="#ffffff" d="M 101.035156 176.136719 C 100.597656 174.824219 100.1875 173.558594 99.808594 172.339844 C 100.953125 171.507812 102.484375 170.402344 103.667969 169.625 C 105.136719 169.933594 107.089844 170.355469 108.546875 170.703125 C 108.902344 171.84375 109.285156 173.027344 109.695312 174.257812 C 108.585938 175.0625 107.117188 176.144531 106.046875 176.996094 C 104.542969 176.726562 102.542969 176.371094 101.035156 176.136719 " fill-opacity="1" fill-rule="nonzero"/><path fill="#ffffff" d="M 90.976562 179.742188 C 90.53125 178.40625 90.117188 177.113281 89.730469 175.875 C 90.851562 174.789062 92.351562 173.347656 93.511719 172.308594 C 95 172.410156 96.980469 172.550781 98.460938 172.707031 C 98.84375 173.929688 99.257812 175.207031 99.695312 176.527344 C 98.574219 177.566406 97.089844 178.953125 96.003906 180.027344 C 94.496094 179.925781 92.484375 179.796875 90.976562 179.742188 " fill-opacity="1" fill-rule="nonzero"/><path fill="#ffffff" d="M 74.472656 190.078125 C 74.089844 188.925781 73.730469 187.8125 73.398438 186.742188 C 74.117188 185.4375 75.089844 183.699219 75.851562 182.417969 C 76.988281 182.132812 78.503906 181.769531 79.65625 181.554688 C 80.019531 182.730469 80.417969 183.953125 80.839844 185.222656 C 80.011719 186.484375 78.914062 188.167969 78.121094 189.449219 C 77.023438 189.617188 75.558594 189.847656 74.472656 190.078125 " fill-opacity="1" fill-rule="nonzero"/><path fill="#ffffff" d="M 68.828125 196.128906 C 68.507812 195.167969 68.207031 194.238281 67.929688 193.34375 C 68.421875 192.03125 69.085938 190.285156 69.621094 188.988281 C 70.488281 188.539062 71.65625 187.957031 72.558594 187.585938 C 72.886719 188.636719 73.238281 189.730469 73.617188 190.859375 C 72.996094 192.117188 72.171875 193.796875 71.582031 195.066406 C 70.746094 195.359375 69.632812 195.761719 68.828125 196.128906 " fill-opacity="1" fill-rule="nonzero"/><path fill="#ffffff" d="M 65.1875 202.398438 C 64.949219 201.679688 64.722656 200.984375 64.515625 200.316406 C 64.761719 199.0625 65.097656 197.386719 65.386719 196.136719 C 65.953125 195.550781 66.722656 194.773438 67.355469 194.253906 C 67.625 195.121094 67.914062 196.023438 68.222656 196.957031 C 67.828125 198.148438 67.300781 199.734375 66.933594 200.9375 C 66.390625 201.351562 65.667969 201.914062 65.1875 202.398438 " fill-opacity="1" fill-rule="nonzero"/><path fill="#ffffff" d="M 63.753906 208.609375 C 63.613281 208.175781 63.476562 207.757812 63.351562 207.355469 C 63.328125 206.214844 63.304688 204.695312 63.335938 203.554688 C 63.570312 202.851562 63.902344 201.917969 64.226562 201.253906 C 64.425781 201.886719 64.640625 202.550781 64.867188 203.230469 C 64.707031 204.300781 64.5 205.722656 64.382812 206.796875 C 64.160156 207.328125 63.882812 208.046875 63.753906 208.609375 " fill-opacity="1" fill-rule="nonzero"/><path fill="#ffffff" d="M 64.480469 213.808594 C 64.398438 213.546875 64.285156 213.199219 64.199219 212.9375 L 64.132812 212.71875 L 63.65625 210.910156 C 63.542969 210.125 63.402344 209.074219 63.375 208.28125 C 63.488281 208.644531 63.613281 209.023438 63.742188 209.414062 C 63.839844 210.308594 63.972656 211.5 64.132812 212.382812 C 64.234375 212.8125 64.34375 213.390625 64.480469 213.808594 " fill-opacity="1" fill-rule="nonzero"/><path fill="#ffffff" d="M 144.261719 183.34375 C 144.234375 183.269531 144.207031 183.195312 144.183594 183.121094 L 144.816406 184.035156 L 144.261719 183.34375 " fill-opacity="1" fill-rule="nonzero"/><path fill="#ffffff" d="M 140.222656 180.6875 C 140.070312 180.253906 139.921875 179.835938 139.777344 179.425781 C 140.402344 179.707031 141.230469 180.101562 141.804688 180.472656 C 142.390625 181.089844 143.167969 181.914062 143.71875 182.558594 C 143.761719 182.675781 143.804688 182.796875 143.847656 182.921875 C 143.429688 182.648438 142.855469 182.289062 142.386719 182.113281 C 141.742188 181.679688 140.710938 181.292969 140.222656 180.6875 " fill-opacity="1" fill-rule="nonzero"/><path fill="#ffffff" d="M 134.277344 179.230469 C 134.003906 178.480469 133.742188 177.746094 133.496094 177.03125 C 134.285156 176.996094 135.34375 176.96875 136.128906 177.039062 C 137.007812 177.628906 138.179688 178.421875 139.042969 179.03125 C 139.199219 179.484375 139.367188 179.949219 139.535156 180.425781 C 138.894531 180.457031 138.039062 180.519531 137.40625 180.648438 C 136.46875 180.222656 135.214844 179.652344 134.277344 179.230469 " fill-opacity="1" fill-rule="nonzero"/><path fill="#ffffff" d="M 126.78125 178.957031 C 126.410156 177.933594 126.054688 176.929688 125.714844 175.953125 C 126.636719 175.632812 127.867188 175.210938 128.8125 174.972656 C 129.933594 175.519531 131.429688 176.25 132.542969 176.8125 C 132.804688 177.5625 133.078125 178.335938 133.363281 179.125 C 132.554688 179.457031 131.480469 179.914062 130.703125 180.3125 C 129.527344 179.902344 127.957031 179.363281 126.78125 178.957031 " fill-opacity="1" fill-rule="nonzero"/><path fill="#ffffff" d="M 108.613281 181.898438 C 108.109375 180.507812 107.628906 179.144531 107.167969 177.816406 C 108.238281 176.976562 109.671875 175.863281 110.773438 175.070312 C 112.214844 175.445312 114.136719 175.949219 115.570312 176.347656 C 115.988281 177.554688 116.425781 178.792969 116.882812 180.058594 C 115.871094 180.898438 114.527344 182.019531 113.546875 182.894531 C 112.066406 182.589844 110.097656 182.1875 108.613281 181.898438 " fill-opacity="1" fill-rule="nonzero"/><path fill="#ffffff" d="M 88.910156 189.257812 C 88.386719 187.808594 87.886719 186.390625 87.40625 185.007812 C 88.410156 183.792969 89.75 182.179688 90.789062 180.996094 C 92.296875 181.066406 94.3125 181.171875 95.816406 181.28125 C 96.300781 182.683594 96.808594 184.121094 97.339844 185.585938 C 96.277344 186.777344 94.863281 188.367188 93.832031 189.582031 C 92.355469 189.476562 90.386719 189.339844 88.910156 189.257812 " fill-opacity="1" fill-rule="nonzero"/><path fill="#ffffff" d="M 80.4375 193.941406 C 79.949219 192.59375 79.484375 191.273438 79.039062 189.988281 C 79.855469 188.71875 80.953125 187.03125 81.800781 185.78125 C 83.125 185.71875 84.886719 185.648438 86.210938 185.632812 C 86.683594 187.003906 87.183594 188.417969 87.703125 189.855469 C 86.796875 191.089844 85.589844 192.734375 84.707031 193.984375 C 83.425781 193.960938 81.71875 193.929688 80.4375 193.941406 " fill-opacity="1" fill-rule="nonzero"/><path fill="#ffffff" d="M 73.535156 198.890625 C 73.109375 197.71875 72.703125 196.570312 72.316406 195.453125 C 72.933594 194.191406 73.765625 192.515625 74.410156 191.269531 C 75.5 191.074219 76.949219 190.828125 78.046875 190.691406 C 78.484375 191.960938 78.945312 193.261719 79.425781 194.589844 C 78.695312 195.796875 77.726562 197.410156 77.015625 198.628906 C 75.96875 198.6875 74.574219 198.777344 73.535156 198.890625 " fill-opacity="1" fill-rule="nonzero"/><path fill="#ffffff" d="M 65.324219 208.683594 C 65.09375 208.042969 64.871094 207.414062 64.660156 206.800781 C 64.816406 205.742188 65.035156 204.332031 65.230469 203.277344 C 65.730469 202.839844 66.40625 202.265625 66.960938 201.898438 C 67.253906 202.753906 67.566406 203.632812 67.890625 204.527344 C 67.566406 205.511719 67.136719 206.820312 66.835938 207.804688 C 66.367188 208.042969 65.742188 208.367188 65.324219 208.683594 " fill-opacity="1" fill-rule="nonzero"/><path fill="#ffffff" d="M 64.457031 213.082031 C 64.347656 212.777344 64.238281 212.476562 64.140625 212.179688 C 64.03125 211.304688 63.902344 210.136719 63.851562 209.253906 C 64 208.730469 64.210938 208.027344 64.453125 207.539062 C 64.652344 208.109375 64.859375 208.695312 65.074219 209.292969 C 64.980469 210.085938 64.855469 211.136719 64.796875 211.929688 C 64.660156 212.265625 64.496094 212.726562 64.457031 213.082031 " fill-opacity="1" fill-rule="nonzero"/><path fill="#ffffff" d="M 64.792969 214.699219 C 64.71875 214.492188 64.621094 214.214844 64.550781 214.007812 L 64.253906 212.859375 C 64.339844 213.109375 64.429688 213.363281 64.523438 213.625 C 64.628906 214.027344 64.746094 214.570312 64.886719 214.960938 L 64.792969 214.699219 " fill-opacity="1" fill-rule="nonzero"/><path fill="#ffffff" d="M 142.972656 183.214844 C 142.867188 182.941406 142.765625 182.671875 142.664062 182.402344 C 143.097656 182.59375 143.671875 182.875 144.046875 183.160156 L 144.816406 184.035156 L 144.292969 183.8125 C 143.898438 183.632812 143.269531 183.53125 142.972656 183.214844 " fill-opacity="1" fill-rule="nonzero"/><path fill="#ffffff" d="M 138.582031 182.96875 C 138.339844 182.339844 138.101562 181.714844 137.875 181.101562 C 138.488281 180.988281 139.308594 180.847656 139.933594 180.828125 C 140.597656 181.226562 141.484375 181.757812 142.144531 182.164062 C 142.261719 182.480469 142.382812 182.800781 142.507812 183.125 C 142.046875 183.261719 141.441406 183.464844 141.011719 183.675781 C 140.28125 183.46875 139.308594 183.191406 138.582031 182.96875 " fill-opacity="1" fill-rule="nonzero"/><path fill="#ffffff" d="M 132.386719 183.703125 C 132.023438 182.757812 131.671875 181.824219 131.328125 180.902344 C 132.09375 180.511719 133.125 179.996094 133.925781 179.675781 C 134.875 180.078125 136.148438 180.609375 137.097656 181.011719 C 137.34375 181.667969 137.597656 182.335938 137.855469 183.011719 C 137.214844 183.4375 136.359375 184.019531 135.75 184.496094 C 134.742188 184.261719 133.394531 183.949219 132.386719 183.703125 " fill-opacity="1" fill-rule="nonzero"/><path fill="#ffffff" d="M 124.734375 185.339844 C 124.269531 184.136719 123.816406 182.945312 123.378906 181.773438 C 124.269531 181.125 125.460938 180.269531 126.386719 179.675781 C 127.574219 180.058594 129.160156 180.574219 130.34375 180.957031 C 130.703125 181.914062 131.070312 182.886719 131.449219 183.867188 C 130.660156 184.546875 129.613281 185.460938 128.855469 186.175781 C 127.617188 185.929688 125.96875 185.597656 124.734375 185.339844 " fill-opacity="1" fill-rule="nonzero"/><path fill="#ffffff" d="M 115.960938 187.804688 C 115.421875 186.40625 114.894531 185.023438 114.390625 183.664062 C 115.367188 182.792969 116.675781 181.636719 117.6875 180.800781 C 119.050781 181.148438 120.875 181.613281 122.238281 181.964844 C 122.6875 183.167969 123.148438 184.386719 123.625 185.621094 C 122.722656 186.511719 121.527344 187.710938 120.65625 188.628906 C 119.246094 188.382812 117.367188 188.054688 115.960938 187.804688 " fill-opacity="1" fill-rule="nonzero"/><path fill="#ffffff" d="M 96.464844 194.917969 C 95.867188 193.375 95.289062 191.847656 94.726562 190.339844 C 95.773438 189.136719 97.171875 187.53125 98.238281 186.34375 C 99.785156 186.53125 101.851562 186.78125 103.394531 186.988281 C 103.949219 188.472656 104.519531 189.984375 105.109375 191.507812 C 104.082031 192.695312 102.71875 194.28125 101.703125 195.480469 C 100.132812 195.308594 98.035156 195.082031 96.464844 194.917969 " fill-opacity="1" fill-rule="nonzero"/><path fill="#ffffff" d="M 79.207031 203.171875 C 78.691406 201.839844 78.191406 200.523438 77.707031 199.226562 C 78.4375 198.015625 79.410156 196.40625 80.15625 195.207031 C 81.429688 195.214844 83.125 195.234375 84.394531 195.28125 C 84.929688 196.707031 85.476562 198.160156 86.042969 199.625 C 85.222656 200.792969 84.128906 202.355469 83.3125 203.53125 C 82.082031 203.414062 80.441406 203.265625 79.207031 203.171875 " fill-opacity="1" fill-rule="nonzero"/><path fill="#ffffff" d="M 72.777344 207.058594 C 72.347656 205.945312 71.929688 204.847656 71.527344 203.761719 C 72.066406 202.644531 72.789062 201.15625 73.34375 200.042969 C 74.375 199.964844 75.753906 199.867188 76.789062 199.832031 C 77.261719 201.105469 77.753906 202.398438 78.257812 203.707031 C 77.601562 204.765625 76.726562 206.179688 76.074219 207.242188 C 75.085938 207.175781 73.765625 207.089844 72.777344 207.058594 " fill-opacity="1" fill-rule="nonzero"/><path fill="#ffffff" d="M 68.136719 210.5625 C 67.816406 209.730469 67.503906 208.910156 67.203125 208.101562 C 67.535156 207.128906 67.976562 205.832031 68.324219 204.863281 C 69.074219 204.6875 70.078125 204.46875 70.839844 204.355469 C 71.230469 205.40625 71.636719 206.472656 72.054688 207.550781 C 71.582031 208.449219 70.949219 209.648438 70.476562 210.546875 C 69.777344 210.535156 68.839844 210.523438 68.136719 210.5625 " fill-opacity="1" fill-rule="nonzero"/><path fill="#ffffff" d="M 65.53125 213.519531 C 65.335938 213.019531 65.152344 212.527344 64.96875 212.039062 C 65.0625 211.261719 65.195312 210.226562 65.320312 209.453125 C 65.742188 209.183594 66.320312 208.84375 66.78125 208.648438 C 67.070312 209.417969 67.367188 210.199219 67.667969 210.988281 C 67.402344 211.679688 67.042969 212.601562 66.777344 213.292969 C 66.398438 213.339844 65.894531 213.40625 65.53125 213.519531 " fill-opacity="1" fill-rule="nonzero"/><path fill="#ffffff" d="M 65.160156 215.6875 L 65.042969 215.378906 L 64.941406 215.109375 C 64.816406 214.65625 64.640625 214.054688 64.558594 213.589844 C 64.609375 213.261719 64.691406 212.816406 64.839844 212.519531 C 65.003906 212.960938 65.175781 213.410156 65.351562 213.863281 C 65.300781 214.304688 65.234375 214.894531 65.21875 215.335938 C 65.183594 215.4375 65.132812 215.582031 65.160156 215.6875 " fill-opacity="1" fill-rule="nonzero"/><path fill="#ffffff" d="M 144.578125 184.167969 C 144.546875 184.089844 144.515625 184.007812 144.480469 183.925781 L 144.816406 184.035156 L 144.578125 184.167969 " fill-opacity="1" fill-rule="nonzero"/><path fill="#ffffff" d="M 142.035156 185.375 C 141.847656 184.914062 141.664062 184.453125 141.480469 183.996094 C 141.886719 183.792969 142.4375 183.523438 142.875 183.398438 C 143.273438 183.546875 143.808594 183.742188 144.210938 183.878906 C 144.265625 184.011719 144.316406 184.144531 144.371094 184.277344 C 144.128906 184.539062 143.8125 184.902344 143.597656 185.191406 C 143.132812 185.269531 142.507812 185.355469 142.035156 185.375 " fill-opacity="1" fill-rule="nonzero"/><path fill="#ffffff" d="M 131.09375 190.121094 C 130.644531 189.023438 130.203125 187.929688 129.773438 186.839844 C 130.515625 186.125 131.511719 185.175781 132.289062 184.496094 C 133.300781 184.710938 134.652344 185 135.667969 185.199219 C 136 186.039062 136.339844 186.882812 136.6875 187.726562 C 136.0625 188.503906 135.238281 189.539062 134.640625 190.328125 C 133.578125 190.28125 132.15625 190.207031 131.09375 190.121094 " fill-opacity="1" fill-rule="nonzero"/><path fill="#ffffff" d="M 123.335938 193.390625 C 122.789062 192.0625 122.253906 190.730469 121.730469 189.410156 C 122.59375 188.492188 123.75 187.269531 124.640625 186.375 C 125.878906 186.609375 127.53125 186.917969 128.773438 187.140625 C 129.21875 188.265625 129.675781 189.394531 130.140625 190.527344 C 129.375 191.492188 128.363281 192.785156 127.617188 193.765625 C 126.332031 193.664062 124.617188 193.519531 123.335938 193.390625 " fill-opacity="1" fill-rule="nonzero"/><path fill="#ffffff" d="M 86.113281 208.625 C 85.519531 207.183594 84.941406 205.742188 84.371094 204.308594 C 85.203125 203.140625 86.3125 201.582031 87.148438 200.414062 C 88.578125 200.566406 90.480469 200.769531 91.910156 200.933594 C 92.515625 202.464844 93.136719 204.003906 93.769531 205.546875 C 92.867188 206.699219 91.664062 208.234375 90.761719 209.382812 C 89.367188 209.15625 87.507812 208.851562 86.113281 208.625 " fill-opacity="1" fill-rule="nonzero"/><path fill="#ffffff" d="M 72.351562 214.042969 C 71.941406 213.042969 71.539062 212.046875 71.148438 211.054688 C 71.644531 210.164062 72.304688 208.980469 72.800781 208.09375 C 73.789062 208.160156 75.101562 208.253906 76.085938 208.351562 C 76.570312 209.570312 77.0625 210.792969 77.5625 212.015625 C 76.949219 212.847656 76.125 213.953125 75.492188 214.769531 C 74.550781 214.546875 73.296875 214.25 72.351562 214.042969 " fill-opacity="1" fill-rule="nonzero"/><path fill="#ffffff" d="M 68.023438 215.667969 C 67.742188 214.984375 67.464844 214.296875 67.195312 213.617188 C 67.492188 212.9375 67.886719 212.03125 68.179688 211.355469 C 68.878906 211.363281 69.8125 211.382812 70.511719 211.429688 C 70.886719 212.382812 71.273438 213.34375 71.667969 214.304688 C 71.226562 214.910156 70.640625 215.714844 70.175781 216.304688 C 69.53125 216.109375 68.671875 215.851562 68.023438 215.667969 " fill-opacity="1" fill-rule="nonzero"/><path fill="#ffffff" d="M 65.753906 216.4375 C 65.621094 216.109375 65.484375 215.777344 65.355469 215.453125 C 65.417969 215.023438 65.511719 214.453125 65.59375 214.027344 C 65.960938 213.96875 66.453125 213.910156 66.824219 213.902344 C 67.078125 214.542969 67.335938 215.183594 67.597656 215.824219 C 67.359375 216.167969 67.039062 216.625 66.773438 216.949219 C 66.464844 216.796875 65.984375 216.6875 65.753906 216.4375 " fill-opacity="1" fill-rule="nonzero"/><path fill="#ffffff" d="M 65.527344 216.609375 C 65.363281 216.207031 65.363281 216.207031 65.285156 216.003906 L 65.21875 215.835938 C 65.230469 215.777344 65.246094 215.703125 65.257812 215.648438 L 65.285156 215.632812 C 65.394531 215.910156 65.507812 216.191406 65.621094 216.46875 C 65.597656 216.523438 65.597656 216.617188 65.546875 216.648438 L 65.527344 216.609375 " fill-opacity="1" fill-rule="nonzero"/><path fill="#ffffff" d="M 144.15625 186.109375 C 144.039062 185.832031 143.921875 185.554688 143.804688 185.277344 C 144.003906 184.980469 144.265625 184.582031 144.492188 184.304688 L 144.816406 184.035156 L 144.773438 184.96875 C 144.625 185.328125 144.402344 185.804688 144.15625 186.109375 " fill-opacity="1" fill-rule="nonzero"/><path fill="#ffffff" d="M 141.300781 189.609375 C 141.027344 188.976562 140.757812 188.339844 140.488281 187.703125 C 140.898438 187.132812 141.445312 186.375 141.878906 185.828125 C 142.363281 185.765625 143.011719 185.683594 143.484375 185.554688 C 143.625 185.882812 143.761719 186.210938 143.902344 186.535156 C 143.667969 187.195312 143.351562 188.074219 143.117188 188.730469 C 142.585938 189.023438 141.867188 189.394531 141.300781 189.609375 " fill-opacity="1" fill-rule="nonzero"/><path fill="#ffffff" d="M 136.460938 193.644531 C 136.050781 192.699219 135.644531 191.746094 135.242188 190.789062 C 135.828125 189.988281 136.609375 188.921875 137.21875 188.140625 C 138.023438 188.136719 139.09375 188.128906 139.898438 188.078125 C 140.183594 188.761719 140.476562 189.441406 140.769531 190.117188 C 140.328125 191 139.746094 192.171875 139.316406 193.058594 C 138.464844 193.253906 137.324219 193.507812 136.460938 193.644531 " fill-opacity="1" fill-rule="nonzero"/><path fill="#ffffff" d="M 93.566406 214.664062 C 92.925781 213.183594 92.289062 211.6875 91.660156 210.1875 C 92.570312 209.039062 93.78125 207.507812 94.691406 206.359375 C 96.230469 206.566406 98.285156 206.839844 99.824219 207.039062 C 100.480469 208.601562 101.144531 210.15625 101.8125 211.699219 C 100.855469 212.855469 99.574219 214.394531 98.605469 215.539062 C 97.09375 215.28125 95.078125 214.941406 93.566406 214.664062 " fill-opacity="1" fill-rule="nonzero"/><path fill="#ffffff" d="M 84.953125 217.207031 C 84.375 215.875 83.800781 214.527344 83.234375 213.175781 C 84.023438 212.175781 85.070312 210.835938 85.847656 209.828125 C 87.238281 210.066406 89.085938 210.386719 90.472656 210.625 C 91.097656 212.109375 91.726562 213.589844 92.363281 215.058594 C 91.503906 216.042969 90.351562 217.355469 89.472656 218.324219 C 88.117188 217.992188 86.308594 217.550781 84.953125 217.207031 " fill-opacity="1" fill-rule="nonzero"/><path fill="#ffffff" d="M 77.574219 218.773438 C 77.089844 217.65625 76.613281 216.535156 76.140625 215.40625 C 76.78125 214.59375 77.636719 213.511719 78.265625 212.6875 C 79.449219 212.933594 81.027344 213.265625 82.210938 213.519531 C 82.765625 214.84375 83.328125 216.164062 83.898438 217.472656 C 83.15625 218.25 82.164062 219.28125 81.398438 220.03125 C 80.25 219.65625 78.71875 219.152344 77.574219 218.773438 " fill-opacity="1" fill-rule="nonzero"/><path fill="#ffffff" d="M 71.722656 219.3125 C 71.359375 218.480469 71.003906 217.640625 70.648438 216.796875 C 71.125 216.21875 71.753906 215.4375 72.207031 214.839844 C 73.140625 215.078125 74.382812 215.394531 75.3125 215.640625 C 75.769531 216.734375 76.234375 217.824219 76.703125 218.902344 C 76.109375 219.4375 75.308594 220.144531 74.679688 220.640625 C 73.789062 220.242188 72.402344 220.003906 71.722656 219.3125 " fill-opacity="1" fill-rule="nonzero"/><path fill="#ffffff" d="M 67.6875 218.785156 C 67.46875 218.285156 67.253906 217.78125 67.042969 217.273438 C 67.324219 216.957031 67.691406 216.53125 67.945312 216.195312 C 68.582031 216.410156 69.425781 216.695312 70.054688 216.914062 C 70.394531 217.714844 70.734375 218.511719 71.074219 219.304688 C 70.648438 219.566406 70.078125 219.917969 69.617188 220.117188 C 69.035156 219.722656 68.128906 219.332031 67.6875 218.785156 " fill-opacity="1" fill-rule="nonzero"/><path fill="#ffffff" d="M 65.832031 217.324219 L 65.789062 217.222656 C 65.730469 217.089844 65.65625 216.910156 65.601562 216.777344 C 65.652344 216.753906 65.71875 216.703125 65.75 216.65625 C 66.039062 216.84375 66.425781 217.085938 66.71875 217.261719 C 66.910156 217.722656 67.105469 218.179688 67.304688 218.632812 C 67.058594 218.609375 66.722656 218.558594 66.511719 218.4375 C 66.300781 218.109375 65.996094 217.679688 65.832031 217.324219 " fill-opacity="1" fill-rule="nonzero"/><path fill="#ffffff" d="M 144.9375 184.992188 C 144.902344 184.917969 144.867188 184.839844 144.832031 184.761719 L 144.816406 184.035156 L 144.9375 184.992188 " fill-opacity="1" fill-rule="nonzero"/><path fill="#ffffff" d="M 144.074219 190.066406 C 143.875 189.636719 143.675781 189.195312 143.476562 188.75 C 143.683594 188.078125 143.957031 187.179688 144.15625 186.503906 C 144.378906 186.148438 144.664062 185.65625 144.789062 185.253906 C 144.84375 185.378906 144.902344 185.507812 144.960938 185.632812 C 144.964844 186.40625 144.960938 187.441406 144.929688 188.214844 C 144.707031 188.785156 144.394531 189.546875 144.074219 190.066406 " fill-opacity="1" fill-rule="nonzero"/><g clip-path="url(#5160200c23)"><path fill="#ffffff" d="M 71.058594 222.664062 C 70.761719 222.019531 70.46875 221.367188 70.171875 220.703125 C 70.648438 220.492188 71.277344 220.195312 71.71875 219.925781 C 72.605469 220.355469 73.785156 220.925781 74.671875 221.34375 C 75.085938 222.273438 75.5 223.1875 75.914062 224.085938 C 75.308594 224.285156 74.492188 224.539062 73.859375 224.648438 C 73.015625 224.0625 71.710938 223.460938 71.058594 222.664062 " fill-opacity="1" fill-rule="nonzero"/></g><path fill="#ffffff" d="M 67.210938 219.792969 C 67.070312 219.484375 66.925781 219.171875 66.785156 218.851562 C 67.042969 218.957031 67.40625 219.085938 67.683594 219.085938 C 68.253906 219.527344 69.019531 220.105469 69.605469 220.523438 C 69.882812 221.144531 70.160156 221.757812 70.433594 222.355469 C 69.980469 222.25 69.367188 222.082031 68.949219 221.875 C 68.414062 221.261719 67.628906 220.492188 67.210938 219.792969 " fill-opacity="1" fill-rule="nonzero"/><path fill="#ffffff" d="M 66.082031 217.886719 C 66.027344 217.765625 65.957031 217.605469 65.902344 217.484375 C 66.078125 217.796875 66.292969 218.222656 66.496094 218.515625 C 66.617188 218.785156 66.738281 219.054688 66.855469 219.316406 L 66.320312 218.402344 C 66.25 218.25 66.152344 218.042969 66.082031 217.886719 " fill-opacity="1" fill-rule="nonzero"/><g clip-path="url(#289ce190f8)"><path fill="#ffffff" d="M 145.398438 188.792969 C 145.285156 188.570312 145.171875 188.332031 145.050781 188.082031 L 145.050781 188.074219 C 145.042969 187.285156 145.03125 186.226562 144.988281 185.4375 L 144.816406 184.035156 L 145.265625 186.011719 C 145.339844 186.84375 145.425781 187.957031 145.398438 188.792969 " fill-opacity="1" fill-rule="nonzero"/></g><g clip-path="url(#4aa10a4210)"><path fill="#ffffff" d="M 145.273438 185.667969 C 145.246094 185.617188 145.214844 185.5625 145.183594 185.503906 L 144.816406 184.035156 L 145.273438 185.667969 " fill-opacity="1" fill-rule="nonzero"/></g><g clip-path="url(#50d11b40de)"><path fill="#ffffff" d="M 145.507812 186.039062 C 145.488281 186.019531 145.472656 185.996094 145.453125 185.964844 L 144.816406 184.035156 L 145.507812 186.039062 " fill-opacity="1" fill-rule="nonzero"/></g></svg>