<svg xmlns="http://www.w3.org/2000/svg" xmlns:xlink="http://www.w3.org/1999/xlink" width="500" zoomAndPan="magnify" viewBox="0 0 375 374.999991" height="500" preserveAspectRatio="xMidYMid meet" version="1.0"><defs><g/><clipPath id="9ed668906c"><path d="M 48.824219 139.351562 L 145.121094 139.351562 L 145.121094 235.648438 L 48.824219 235.648438 Z M 48.824219 139.351562 " clip-rule="nonzero"/></clipPath><clipPath id="26b19d7bdf"><path d="M 139.71875 139.351562 L 326.175781 139.351562 L 326.175781 145.785156 L 139.71875 145.785156 Z M 319.605469 145.785156 L 326.175781 145.785156 L 326.175781 229.078125 L 319.605469 229.078125 Z M 139.71875 145.785156 L 146.152344 145.785156 L 146.152344 229.078125 L 139.71875 229.078125 Z M 139.71875 229.078125 L 326.175781 229.078125 L 326.175781 235.648438 L 139.71875 235.648438 Z M 139.71875 229.078125 " clip-rule="nonzero"/></clipPath><clipPath id="6bff9dd3d9"><path d="M 100 153.789062 L 110 153.789062 L 110 156 L 100 156 Z M 100 153.789062 " clip-rule="nonzero"/></clipPath><clipPath id="e3e3ba0924"><path d="M 90 153.789062 L 100 153.789062 L 100 155 L 90 155 Z M 90 153.789062 " clip-rule="nonzero"/></clipPath><clipPath id="240e240f67"><path d="M 56.082031 185 L 58 185 L 58 196 L 56.082031 196 Z M 56.082031 185 " clip-rule="nonzero"/></clipPath><clipPath id="02f5e6b548"><path d="M 56.082031 183 L 60 183 L 60 193 L 56.082031 193 Z M 56.082031 183 " clip-rule="nonzero"/></clipPath><clipPath id="8fdef06df1"><path d="M 56.082031 192 L 57 192 L 57 202 L 56.082031 202 Z M 56.082031 192 " clip-rule="nonzero"/></clipPath><clipPath id="457b43c432"><path d="M 56.082031 190 L 59 190 L 59 200 L 56.082031 200 Z M 56.082031 190 " clip-rule="nonzero"/></clipPath><clipPath id="bcfa265604"><path d="M 56.082031 198 L 58 198 L 58 207 L 56.082031 207 Z M 56.082031 198 " clip-rule="nonzero"/></clipPath><clipPath id="a09adc0695"><path d="M 63 216 L 70 216 L 70 221.289062 L 63 221.289062 Z M 63 216 " clip-rule="nonzero"/></clipPath><clipPath id="c1b9ab0359"><path d="M 138 180 L 139.332031 180 L 139.332031 186 L 138 186 Z M 138 180 " clip-rule="nonzero"/></clipPath><clipPath id="6a132c1e2b"><path d="M 138 180 L 139.332031 180 L 139.332031 183 L 138 183 Z M 138 180 " clip-rule="nonzero"/></clipPath></defs><g clip-path="url(#9ed668906c)"><path fill="#000000" d="M 48.824219 139.351562 L 145.121094 139.351562 L 145.121094 235.648438 L 48.824219 235.648438 Z M 48.824219 139.351562 " fill-opacity="1" fill-rule="nonzero"/></g><g clip-path="url(#26b19d7bdf)"><path fill="#000000" d="M 139.71875 139.351562 L 326.292969 139.351562 L 326.292969 235.648438 L 139.71875 235.648438 Z M 139.71875 139.351562 " fill-opacity="1" fill-rule="nonzero"/></g><g fill="#000000" fill-opacity="1"><g transform="translate(170.240678, 190.025028)"><g><path d="M 5.40625 -6.40625 L 5.46875 -8.453125 L 5.15625 -9.09375 L 4.453125 -9.4375 L 3.78125 -9.3125 L 3.078125 -9.28125 L 2.46875 -9.375 L 1.859375 -9.59375 L 1.46875 -10.234375 L 1.4375 -10.9375 L 1.5 -11.578125 L 1.5 -13.03125 L 1.828125 -13.703125 L 2.46875 -14.015625 L 3.078125 -13.984375 L 4.421875 -13.984375 L 5.09375 -14.296875 L 5.4375 -14.90625 L 5.4375 -16.921875 L 5.734375 -17.65625 L 6.40625 -17.953125 L 7.015625 -17.921875 L 7.75 -17.984375 L 9.03125 -17.984375 L 9.765625 -17.59375 L 10.078125 -16.640625 L 10.078125 -14.9375 L 10.34375 -14.34375 L 11.078125 -14.015625 L 11.6875 -13.984375 L 13.03125 -14.046875 L 13.625 -13.65625 L 13.953125 -12.953125 L 13.921875 -11.640625 L 13.984375 -11.046875 L 13.984375 -10.296875 L 13.65625 -9.65625 L 13.03125 -9.375 L 12.359375 -9.3125 L 11.109375 -9.34375 L 10.375 -8.984375 L 10.078125 -8.0625 L 10.015625 -7.109375 L 10.078125 -6.40625 L 9.703125 -5.765625 L 9.0625 -5.4375 L 8.359375 -5.40625 L 6.40625 -5.5 L 5.703125 -5.765625 Z M 5.40625 -6.40625 "/></g></g></g><g fill="#000000" fill-opacity="1"><g transform="translate(187.13293, 190.025028)"><g><path d="M 3.328125 0.09375 L 2.6875 -0.3125 L 2.34375 -0.984375 L 2.375 -8.0625 L 2.296875 -8.671875 L 2.40625 -11.90625 L 2.34375 -12.546875 L 2.375 -17.65625 L 2.296875 -18.234375 L 2.40625 -19.484375 L 2.296875 -21.4375 L 2.65625 -22.109375 L 3.359375 -22.4375 L 4.25 -22.171875 L 4.984375 -21.625 L 5.828125 -20.765625 L 6.34375 -20.3125 L 7.171875 -19.328125 L 7.609375 -18.9375 L 10.53125 -15.71875 L 11.234375 -15.078125 L 11.8125 -14.34375 L 12.25 -13.890625 L 12.640625 -13.34375 L 13.3125 -13.09375 L 13.890625 -13.46875 L 15.84375 -15.453125 L 16.25 -16 L 19.078125 -18.875 L 19.515625 -19.453125 L 19.90625 -19.8125 L 20.3125 -20.3125 L 21.65625 -21.734375 L 22.34375 -22.140625 L 23.265625 -22.4375 L 23.9375 -22.078125 L 24.3125 -21.40625 L 24.25 -20.796875 L 24.28125 -19.484375 L 24.25 -18.9375 L 24.3125 -17.5625 L 24.28125 -16.953125 L 24.3125 -13.796875 L 24.25 -13.09375 L 24.3125 -3.484375 L 24.25 -2.84375 L 24.359375 -1.1875 L 23.96875 -0.25 L 23.296875 0.09375 L 19.421875 -0.03125 L 18.75 -0.21875 L 18.5 -0.953125 L 18.5 -1.4375 L 18.4375 -2.875 L 18.5 -3.453125 L 18.4375 -4.640625 L 18.5 -5.890625 L 18.40625 -7.171875 L 18.46875 -8.921875 L 18.203125 -9.40625 L 17.796875 -9.21875 L 16.484375 -7.875 L 16.03125 -7.546875 L 15.140625 -6.5 L 14.75 -6.109375 L 14.296875 -5.625 L 13.65625 -5.15625 L 12.953125 -5.1875 L 12.28125 -5.65625 L 11.421875 -6.5 L 11.015625 -7.015625 L 9.703125 -8.3125 L 9.3125 -8.796875 L 8.796875 -9.21875 L 8.484375 -9.34375 L 8.1875 -9.0625 L 8.1875 -7.8125 L 8.25 -7.109375 L 8.1875 -5.953125 L 8.21875 -5.28125 L 8.125 -4.28125 L 8.21875 -0.921875 L 7.84375 -0.359375 L 6.9375 0.03125 L 5.921875 -0.03125 L 5.21875 0.0625 L 3.96875 0 Z M 3.328125 0.09375 "/></g></g></g><g fill="#000000" fill-opacity="1"><g transform="translate(215.54236, 190.025028)"><g><path d="M 18.875 0.0625 L 18.203125 0 L 17.46875 -0.3125 L 16.828125 -0.796875 L 16.640625 -1.375 L 16.359375 -1.984375 L 15.75 -2.5 L 15.046875 -2.84375 L 14.34375 -2.75 L 13.765625 -2.8125 L 10.625 -2.78125 L 10.046875 -2.875 L 8.703125 -2.75 L 8.09375 -2.84375 L 7.421875 -2.5 L 6.8125 -1.890625 L 6.234375 -0.828125 L 5.625 -0.25 L 4.890625 -0.03125 L 3.109375 0.03125 L 2.46875 -0.03125 L 1.21875 0.03125 L 0.578125 -0.15625 L 0.421875 -0.953125 L 0.609375 -1.59375 L 1.25 -2.875 L 1.40625 -3.453125 L 1.765625 -3.90625 L 2.234375 -5.1875 L 2.8125 -6.203125 L 3.046875 -6.84375 L 3.359375 -7.328125 L 3.546875 -8.03125 L 6.8125 -14.875 L 7.015625 -15.453125 L 7.359375 -16.0625 L 7.515625 -16.703125 L 7.875 -17.1875 L 9.15625 -20.125 L 9.4375 -20.578125 L 9.65625 -21.21875 L 9.953125 -21.765625 L 10.53125 -22.296875 L 11.546875 -22.65625 L 12.609375 -22.34375 L 13.15625 -21.765625 L 13.765625 -20.640625 L 13.953125 -20.0625 L 14.296875 -19.484375 L 14.5 -18.84375 L 16.609375 -14.40625 L 16.828125 -13.734375 L 17.5 -12.546875 L 17.703125 -12.03125 L 17.984375 -11.546875 L 18.171875 -10.84375 L 18.5 -10.234375 L 18.8125 -9.765625 L 20.03125 -6.84375 L 20.671875 -5.703125 L 21.125 -4.515625 L 21.984375 -2.84375 L 22.46875 -1.65625 L 22.6875 -0.921875 L 22.59375 -0.15625 L 21.703125 0 L 20.703125 0.03125 L 20.09375 -0.03125 Z M 11.609375 -7.90625 L 12.890625 -7.9375 L 13.375 -8.1875 L 13.5 -8.765625 L 12 -12.28125 L 11.546875 -12.546875 L 11.203125 -12.25 L 9.703125 -8.796875 L 9.734375 -8.1875 L 10.234375 -7.96875 L 10.96875 -8.03125 Z M 11.609375 -7.90625 "/></g></g></g><g fill="#000000" fill-opacity="1"><g transform="translate(240.432646, 190.025028)"><g><path d="M 0.421875 -0.796875 L 0.703125 -1.53125 L 1.03125 -2.140625 L 1.375 -2.59375 L 1.703125 -3.203125 L 2.40625 -4.15625 L 3.421875 -5.859375 L 3.8125 -6.34375 L 4.453125 -7.484375 L 4.859375 -7.90625 L 5.1875 -8.484375 L 5.5 -8.859375 L 6.140625 -10.015625 L 6.875 -11.078125 L 7.015625 -11.78125 L 6.8125 -12.640625 L 6.53125 -13.125 L 6.078125 -13.703125 L 5.4375 -14.78125 L 5.0625 -15.265625 L 4.703125 -15.875 L 4.3125 -16.359375 L 3.640625 -17.5 L 2.75 -18.75 L 2.234375 -19.6875 L 1.4375 -20.734375 L 1.125 -21.4375 L 1.1875 -22.140625 L 1.921875 -22.34375 L 2.875 -22.296875 L 3.875 -22.4375 L 4.609375 -22.34375 L 5.25 -22.34375 L 5.953125 -22.4375 L 6.71875 -22.078125 L 7.390625 -21.53125 L 9.03125 -18.90625 L 9.25 -18.34375 L 9.59375 -17.921875 L 9.921875 -17.28125 L 10.234375 -16.765625 L 10.6875 -16.859375 L 12.125 -18.875 L 12.359375 -19.515625 L 13.40625 -20.984375 L 13.65625 -21.59375 L 14.40625 -22.078125 L 15.171875 -22.375 L 15.78125 -22.4375 L 18.078125 -22.34375 L 19.109375 -22.40625 L 19.8125 -22.171875 L 19.96875 -21.5 L 18.109375 -18.625 L 17.828125 -18.046875 L 15.546875 -14.8125 L 15.234375 -14.203125 L 14.59375 -13.21875 L 14.140625 -12.640625 L 13.984375 -11.875 L 14.171875 -11.078125 L 14.5625 -10.59375 L 16.03125 -8.125 L 16.984375 -6.875 L 17.59375 -5.765625 L 18.015625 -5.1875 L 18.234375 -4.765625 L 19.359375 -3.234375 L 19.640625 -2.6875 L 20.359375 -1.65625 L 20.734375 -0.859375 L 20.640625 -0.125 L 20 0.03125 L 19.359375 -0.0625 L 15.6875 0.125 L 14.90625 -0.21875 L 14.296875 -0.828125 L 11.109375 -6.203125 L 10.71875 -6.6875 L 10.34375 -6.71875 L 9.984375 -6.234375 L 9.375 -5.03125 L 8.953125 -4.609375 L 8.671875 -4 L 7.75 -2.4375 L 7.453125 -1.796875 L 7.109375 -1.3125 L 6.84375 -0.796875 L 6.140625 -0.28125 L 5.40625 -0.0625 L 4.453125 0.03125 L 1.09375 0.0625 L 0.515625 -0.15625 Z M 0.421875 -0.796875 "/></g></g></g><g fill="#000000" fill-opacity="1"><g transform="translate(263.307433, 190.025028)"><g><path d="M 0.421875 -0.796875 L 0.703125 -1.53125 L 1.03125 -2.140625 L 1.375 -2.59375 L 1.703125 -3.203125 L 2.40625 -4.15625 L 3.421875 -5.859375 L 3.8125 -6.34375 L 4.453125 -7.484375 L 4.859375 -7.90625 L 5.1875 -8.484375 L 5.5 -8.859375 L 6.140625 -10.015625 L 6.875 -11.078125 L 7.015625 -11.78125 L 6.8125 -12.640625 L 6.53125 -13.125 L 6.078125 -13.703125 L 5.4375 -14.78125 L 5.0625 -15.265625 L 4.703125 -15.875 L 4.3125 -16.359375 L 3.640625 -17.5 L 2.75 -18.75 L 2.234375 -19.6875 L 1.4375 -20.734375 L 1.125 -21.4375 L 1.1875 -22.140625 L 1.921875 -22.34375 L 2.875 -22.296875 L 3.875 -22.4375 L 4.609375 -22.34375 L 5.25 -22.34375 L 5.953125 -22.4375 L 6.71875 -22.078125 L 7.390625 -21.53125 L 9.03125 -18.90625 L 9.25 -18.34375 L 9.59375 -17.921875 L 9.921875 -17.28125 L 10.234375 -16.765625 L 10.6875 -16.859375 L 12.125 -18.875 L 12.359375 -19.515625 L 13.40625 -20.984375 L 13.65625 -21.59375 L 14.40625 -22.078125 L 15.171875 -22.375 L 15.78125 -22.4375 L 18.078125 -22.34375 L 19.109375 -22.40625 L 19.8125 -22.171875 L 19.96875 -21.5 L 18.109375 -18.625 L 17.828125 -18.046875 L 15.546875 -14.8125 L 15.234375 -14.203125 L 14.59375 -13.21875 L 14.140625 -12.640625 L 13.984375 -11.875 L 14.171875 -11.078125 L 14.5625 -10.59375 L 16.03125 -8.125 L 16.984375 -6.875 L 17.59375 -5.765625 L 18.015625 -5.1875 L 18.234375 -4.765625 L 19.359375 -3.234375 L 19.640625 -2.6875 L 20.359375 -1.65625 L 20.734375 -0.859375 L 20.640625 -0.125 L 20 0.03125 L 19.359375 -0.0625 L 15.6875 0.125 L 14.90625 -0.21875 L 14.296875 -0.828125 L 11.109375 -6.203125 L 10.71875 -6.6875 L 10.34375 -6.71875 L 9.984375 -6.234375 L 9.375 -5.03125 L 8.953125 -4.609375 L 8.671875 -4 L 7.75 -2.4375 L 7.453125 -1.796875 L 7.109375 -1.3125 L 6.84375 -0.796875 L 6.140625 -0.28125 L 5.40625 -0.0625 L 4.453125 0.03125 L 1.09375 0.0625 L 0.515625 -0.15625 Z M 0.421875 -0.796875 "/></g></g></g><g fill="#000000" fill-opacity="1"><g transform="translate(286.18222, 190.025028)"><g><path d="M 1.15625 -9.796875 L 1.15625 -12.515625 L 1.4375 -13.125 L 2.109375 -13.5 L 2.71875 -13.5625 L 3.359375 -13.5 L 7.078125 -13.5625 L 7.6875 -13.4375 L 10.90625 -13.46875 L 11.546875 -13.125 L 11.78125 -12.421875 L 11.84375 -9.828125 L 11.453125 -9.15625 L 10.5 -8.828125 L 8.609375 -8.796875 L 7.96875 -8.890625 L 5.796875 -8.890625 L 5.25 -8.796875 L 3.96875 -8.890625 L 3.359375 -8.765625 L 2.6875 -8.828125 L 2.015625 -8.796875 L 1.4375 -9.1875 Z M 1.15625 -9.796875 "/></g></g></g><g fill="#000000" fill-opacity="1"><g transform="translate(152.453155, 210.925006)"><g><path d="M 1.015625 -0.390625 L 1.0625 -1.546875 L 1.015625 -1.796875 L 1.015625 -5.984375 L 1.046875 -6.265625 L 1.03125 -6.59375 L 1.0625 -7.125 L 1.015625 -7.703125 L 1.03125 -7.984375 L 1.015625 -9.078125 L 1.03125 -9.375 L 1.171875 -9.65625 L 1.484375 -9.796875 L 2.875 -9.765625 L 3.171875 -9.796875 L 3.46875 -9.640625 L 3.59375 -9.375 L 3.625 -8.859375 L 3.59375 -8.546875 L 3.578125 -7.46875 L 3.59375 -7.203125 L 3.59375 -6.921875 L 3.609375 -6.609375 L 3.75 -6.34375 L 4.015625 -6.21875 L 4.84375 -6.203125 L 5.09375 -6.234375 L 5.390625 -6.203125 L 5.9375 -6.265625 L 6.203125 -6.21875 L 6.484375 -6.375 L 6.640625 -6.65625 L 6.65625 -7.734375 L 6.609375 -8.015625 L 6.640625 -8.578125 L 6.609375 -8.8125 L 6.625 -9.359375 L 6.765625 -9.6875 L 7.171875 -9.78125 L 8.78125 -9.765625 L 9.0625 -9.65625 L 9.1875 -9.359375 L 9.171875 -2.34375 L 9.21875 -2.109375 L 9.171875 -1.671875 L 9.203125 -0.390625 L 9.03125 -0.15625 L 8.765625 0.03125 L 8.1875 -0.015625 L 7.90625 0.015625 L 7.1875 0.015625 L 6.78125 -0.171875 L 6.625 -0.390625 L 6.609375 -3.484375 L 6.46875 -3.75 L 6.203125 -3.90625 L 5.953125 -3.90625 L 5.65625 -3.953125 L 4 -3.9375 L 3.703125 -3.75 L 3.578125 -3.453125 L 3.578125 -0.984375 L 3.609375 -0.671875 L 3.578125 -0.40625 L 3.46875 -0.140625 L 3.171875 0.03125 L 2.59375 0.015625 L 2.296875 0.046875 L 1.734375 0.015625 L 1.453125 0.03125 L 1.1875 -0.125 Z M 1.015625 -0.390625 "/></g></g></g><g fill="#000000" fill-opacity="1"><g transform="translate(164.333436, 210.925006)"><g><path d="M 3.21875 -0.390625 L 3.25 -0.6875 L 3.171875 -1.265625 L 3.1875 -1.796875 L 3.21875 -2.046875 L 3.203125 -2.3125 L 3.171875 -2.59375 L 3.1875 -3.703125 L 3.125 -4.109375 L 3.015625 -4.46875 L 1.765625 -6.421875 L 1.65625 -6.65625 L 0.140625 -9.0625 L 0 -9.390625 L 0.03125 -9.703125 L 0.34375 -9.78125 L 2.1875 -9.8125 L 2.53125 -9.65625 L 2.84375 -9.4375 L 2.953125 -9.15625 L 3.109375 -8.921875 L 3.8125 -7.6875 L 3.890625 -7.40625 L 4.015625 -7.15625 L 4.34375 -6.65625 L 4.53125 -6.671875 L 5 -7.4375 L 5.203125 -7.9375 L 5.53125 -8.40625 L 5.609375 -8.671875 L 5.796875 -8.9375 L 6.03125 -9.40625 L 6.328125 -9.671875 L 6.671875 -9.8125 L 6.9375 -9.78125 L 7.46875 -9.78125 L 7.765625 -9.828125 L 8.3125 -9.78125 L 8.59375 -9.828125 L 8.859375 -9.71875 L 8.90625 -9.375 L 8.703125 -9.046875 L 8.609375 -8.796875 L 8.4375 -8.578125 L 6.828125 -5.921875 L 6.484375 -5.453125 L 6.328125 -5.21875 L 6.21875 -4.953125 L 5.71875 -4.109375 L 5.65625 -3.703125 L 5.71875 -3.4375 L 5.671875 -2.625 L 5.71875 -2.34375 L 5.640625 -1.484375 L 5.65625 -1.234375 L 5.640625 -0.96875 L 5.671875 -0.671875 L 5.671875 -0.4375 L 5.53125 -0.15625 L 5.109375 -0.015625 L 4.71875 0 L 4.421875 -0.015625 L 4.140625 0.015625 L 3.640625 -0.015625 L 3.375 -0.15625 Z M 3.21875 -0.390625 "/></g></g></g><g fill="#000000" fill-opacity="1"><g transform="translate(174.870467, 210.925006)"><g><path d="M 1.03125 -0.4375 L 1.015625 -0.703125 L 1.0625 -0.96875 L 1.015625 -1.234375 L 1.078125 -1.515625 L 1.03125 -2.390625 L 1.078125 -2.953125 L 1.03125 -3.21875 L 1.03125 -3.8125 L 1.0625 -4.078125 L 1.015625 -4.5 L 1.078125 -4.875 L 1.03125 -5.453125 L 1.0625 -5.75 L 1.03125 -6 L 1.0625 -6.28125 L 1.0625 -7.71875 L 1.015625 -8.015625 L 1.015625 -8.28125 L 1.0625 -8.53125 L 1.0625 -9.09375 L 1.09375 -9.390625 L 1.234375 -9.65625 L 1.609375 -9.78125 L 5.796875 -9.765625 L 6.046875 -9.71875 L 6.328125 -9.609375 L 6.625 -9.546875 L 7.125 -9.28125 L 7.546875 -9 L 7.78125 -8.796875 L 7.9375 -8.578125 L 8.125 -8.390625 L 8.296875 -8.140625 L 8.578125 -7.640625 L 8.828125 -6.546875 L 8.8125 -5.71875 L 8.796875 -5.46875 L 8.671875 -4.90625 L 8.5625 -4.640625 L 8.4375 -4.390625 L 8 -3.71875 L 7.578125 -3.3125 L 7.34375 -3.15625 L 6.875 -2.859375 L 6.0625 -2.625 L 5.484375 -2.5 L 4.765625 -2.484375 L 4.34375 -2.53125 L 4.03125 -2.484375 L 3.65625 -2.359375 L 3.5625 -2.109375 L 3.5625 -1.8125 L 3.578125 -1.515625 L 3.546875 -1.265625 L 3.5625 -1 L 3.5625 -0.4375 L 3.4375 -0.140625 L 3.15625 0.015625 L 2.859375 0.015625 L 2.546875 -0.015625 L 1.71875 0 L 1.4375 -0.03125 L 1.140625 -0.140625 Z M 4 -4.78125 L 4.328125 -4.75 L 5.46875 -4.8125 L 5.703125 -4.9375 L 5.921875 -5.09375 L 6.25 -5.484375 L 6.390625 -6.125 L 6.265625 -6.796875 L 6.125 -7.03125 L 5.90625 -7.234375 L 5.703125 -7.390625 L 5.453125 -7.515625 L 4.34375 -7.578125 L 3.984375 -7.546875 L 3.703125 -7.4375 L 3.546875 -7.125 L 3.5625 -5.1875 L 3.734375 -4.90625 Z M 4 -4.78125 "/></g></g></g><g fill="#000000" fill-opacity="1"><g transform="translate(185.715331, 210.925006)"><g><path d="M 1.015625 -0.40625 L 1.0625 -0.6875 L 1.078125 -0.96875 L 1.046875 -1.515625 L 1.046875 -1.796875 L 1.015625 -2.109375 L 1.0625 -2.359375 L 1.046875 -2.625 L 1.078125 -2.9375 L 1.03125 -3.234375 L 1.0625 -3.796875 L 1.015625 -4.34375 L 1.0625 -4.640625 L 1.0625 -7.140625 L 1.03125 -7.390625 L 1.0625 -7.6875 L 1.015625 -8.40625 L 1.0625 -8.8125 L 1.03125 -9.359375 L 1.171875 -9.671875 L 1.578125 -9.765625 L 3.421875 -9.8125 L 3.671875 -9.78125 L 4.21875 -9.796875 L 4.5 -9.765625 L 5.109375 -9.796875 L 5.390625 -9.765625 L 5.640625 -9.78125 L 6.765625 -9.765625 L 7.0625 -9.640625 L 7.203125 -9.359375 L 7.15625 -9.09375 L 7.140625 -8.796875 L 7.1875 -8.53125 L 7.203125 -7.953125 L 7.0625 -7.703125 L 6.765625 -7.546875 L 4.078125 -7.53125 L 3.640625 -7.40625 L 3.5 -7 L 3.53125 -6.5625 L 3.703125 -6.3125 L 3.9375 -6.15625 L 5.046875 -6.171875 L 5.359375 -6.140625 L 5.65625 -6.140625 L 5.9375 -6.171875 L 6.5 -6.15625 L 6.734375 -6 L 6.859375 -5.734375 L 6.890625 -5.453125 L 6.859375 -4.359375 L 6.71875 -4.09375 L 6.4375 -3.9375 L 6.1875 -3.921875 L 5.890625 -3.953125 L 5.515625 -3.921875 L 4.78125 -3.96875 L 4.5 -3.9375 L 3.953125 -3.9375 L 3.703125 -3.78125 L 3.5625 -3.484375 L 3.5625 -2.796875 L 3.6875 -2.359375 L 3.96875 -2.203125 L 4.28125 -2.21875 L 4.59375 -2.203125 L 4.859375 -2.234375 L 6.703125 -2.21875 L 7.125 -2.078125 L 7.3125 -1.796875 L 7.28125 -1.53125 L 7.296875 -0.65625 L 7.265625 -0.390625 L 7.140625 -0.125 L 6.84375 0.015625 L 6.578125 0.046875 L 5.71875 -0.015625 L 4.875 0.03125 L 4.625 -0.015625 L 1.453125 0.015625 L 1.1875 -0.140625 Z M 1.015625 -0.40625 "/></g></g></g><g fill="#000000" fill-opacity="1"><g transform="translate(195.370859, 210.925006)"><g><path d="M 1.078125 -0.453125 L 1.03125 -1.546875 L 1.0625 -1.828125 L 1.015625 -2.640625 L 1.046875 -3.21875 L 1.015625 -3.53125 L 1.015625 -4.0625 L 1.046875 -4.359375 L 1.046875 -5.046875 L 1.015625 -5.453125 L 1.046875 -9.375 L 1.15625 -9.671875 L 1.421875 -9.796875 L 1.734375 -9.78125 L 2 -9.828125 L 2.578125 -9.765625 L 2.84375 -9.8125 L 3.6875 -9.78125 L 3.921875 -9.8125 L 4.234375 -9.78125 L 4.515625 -9.8125 L 4.8125 -9.796875 L 5.21875 -9.8125 L 5.578125 -9.78125 L 6.734375 -9.546875 L 7.21875 -9.296875 L 7.921875 -8.765625 L 8.046875 -8.546875 L 8.25 -8.34375 L 8.625 -7.578125 L 8.6875 -7.296875 L 8.734375 -7.03125 L 8.8125 -6.765625 L 8.796875 -5.65625 L 8.640625 -5.125 L 8.546875 -4.890625 L 8.390625 -4.640625 L 8.28125 -4.375 L 8.125 -4.125 L 7.734375 -3.75 L 7.578125 -3.453125 L 7.609375 -3.125 L 8.03125 -2.390625 L 8.21875 -2.171875 L 8.359375 -1.921875 L 8.53125 -1.671875 L 8.65625 -1.421875 L 9.09375 -0.734375 L 9.28125 -0.390625 L 9.21875 -0.09375 L 8.9375 -0.03125 L 8.625 0 L 8.0625 0 L 7.78125 -0.03125 L 7.46875 0 L 6.96875 -0.03125 L 6.625 -0.109375 L 6.34375 -0.359375 L 6.171875 -0.59375 L 6.046875 -0.828125 L 5.859375 -1.09375 L 5.46875 -1.796875 L 5.375 -2.0625 L 5.015625 -2.546875 L 4.78125 -2.78125 L 4.4375 -2.890625 L 3.9375 -2.890625 L 3.65625 -2.75 L 3.53125 -2.46875 L 3.5625 -1.59375 L 3.515625 -1 L 3.5625 -0.703125 L 3.546875 -0.40625 L 3.4375 -0.140625 L 3.015625 0 L 2.59375 0 L 2.296875 -0.03125 L 1.71875 0.015625 L 1.453125 0 L 1.171875 -0.140625 Z M 3.9375 -5.15625 L 4.234375 -5.15625 L 4.515625 -5.109375 L 5.609375 -5.203125 L 5.828125 -5.3125 L 5.984375 -5.46875 L 6.140625 -5.71875 L 6.265625 -5.984375 L 6.296875 -6.375 L 6.265625 -6.78125 L 6.171875 -7 L 6.03125 -7.203125 L 5.59375 -7.46875 L 4.953125 -7.5625 L 4.1875 -7.578125 L 3.96875 -7.5625 L 3.6875 -7.421875 L 3.515625 -7.140625 L 3.5625 -5.578125 L 3.703125 -5.28125 Z M 3.9375 -5.15625 "/></g></g></g><g fill="#000000" fill-opacity="1"><g transform="translate(206.705453, 210.925006)"><g/></g></g><g fill="#000000" fill-opacity="1"><g transform="translate(212.135343, 210.925006)"><g><path d="M 3.65625 0.03125 L 3.21875 0.015625 L 2.8125 -0.125 L 2.625 -0.4375 L 2.65625 -0.703125 L 2.671875 -1.515625 L 2.640625 -1.8125 L 2.65625 -2.9375 L 2.6875 -3.21875 L 2.640625 -5.3125 L 2.671875 -5.703125 L 2.65625 -5.984375 L 2.671875 -6.28125 L 2.640625 -6.671875 L 2.671875 -7.125 L 2.515625 -7.40625 L 2.25 -7.546875 L 0.921875 -7.578125 L 0.640625 -7.546875 L 0.390625 -7.6875 L 0.265625 -7.9375 L 0.234375 -8.375 L 0.265625 -9.078125 L 0.25 -9.359375 L 0.421875 -9.671875 L 0.6875 -9.8125 L 1.671875 -9.765625 L 2.09375 -9.796875 L 2.921875 -9.765625 L 3.171875 -9.8125 L 3.484375 -9.78125 L 3.78125 -9.828125 L 4.046875 -9.8125 L 4.328125 -9.765625 L 5.453125 -9.8125 L 5.71875 -9.78125 L 6.015625 -9.828125 L 6.28125 -9.796875 L 7.15625 -9.796875 L 7.421875 -9.625 L 7.578125 -9.34375 L 7.5625 -8.015625 L 7.390625 -7.703125 L 7.15625 -7.546875 L 6.90625 -7.5625 L 6.609375 -7.515625 L 6.09375 -7.59375 L 5.546875 -7.5625 L 5.28125 -7.390625 L 5.171875 -6.96875 L 5.125 -5.75 L 5.171875 -5.453125 L 5.140625 -3.203125 L 5.1875 -2.890625 L 5.15625 -2.640625 L 5.171875 -2.09375 L 5.140625 -1.796875 L 5.1875 -1.265625 L 5.140625 -0.53125 L 5 -0.140625 L 4.59375 0 Z M 3.65625 0.03125 "/></g></g></g><g fill="#000000" fill-opacity="1"><g transform="translate(221.594982, 210.925006)"><g><path d="M 1.015625 -0.40625 L 1.0625 -0.6875 L 1.078125 -0.96875 L 1.046875 -1.515625 L 1.046875 -1.796875 L 1.015625 -2.109375 L 1.0625 -2.359375 L 1.046875 -2.625 L 1.078125 -2.9375 L 1.03125 -3.234375 L 1.0625 -3.796875 L 1.015625 -4.34375 L 1.0625 -4.640625 L 1.0625 -7.140625 L 1.03125 -7.390625 L 1.0625 -7.6875 L 1.015625 -8.40625 L 1.0625 -8.8125 L 1.03125 -9.359375 L 1.171875 -9.671875 L 1.578125 -9.765625 L 3.421875 -9.8125 L 3.671875 -9.78125 L 4.21875 -9.796875 L 4.5 -9.765625 L 5.109375 -9.796875 L 5.390625 -9.765625 L 5.640625 -9.78125 L 6.765625 -9.765625 L 7.0625 -9.640625 L 7.203125 -9.359375 L 7.15625 -9.09375 L 7.140625 -8.796875 L 7.1875 -8.53125 L 7.203125 -7.953125 L 7.0625 -7.703125 L 6.765625 -7.546875 L 4.078125 -7.53125 L 3.640625 -7.40625 L 3.5 -7 L 3.53125 -6.5625 L 3.703125 -6.3125 L 3.9375 -6.15625 L 5.046875 -6.171875 L 5.359375 -6.140625 L 5.65625 -6.140625 L 5.9375 -6.171875 L 6.5 -6.15625 L 6.734375 -6 L 6.859375 -5.734375 L 6.890625 -5.453125 L 6.859375 -4.359375 L 6.71875 -4.09375 L 6.4375 -3.9375 L 6.1875 -3.921875 L 5.890625 -3.953125 L 5.515625 -3.921875 L 4.78125 -3.96875 L 4.5 -3.9375 L 3.953125 -3.9375 L 3.703125 -3.78125 L 3.5625 -3.484375 L 3.5625 -2.796875 L 3.6875 -2.359375 L 3.96875 -2.203125 L 4.28125 -2.21875 L 4.59375 -2.203125 L 4.859375 -2.234375 L 6.703125 -2.21875 L 7.125 -2.078125 L 7.3125 -1.796875 L 7.28125 -1.53125 L 7.296875 -0.65625 L 7.265625 -0.390625 L 7.140625 -0.125 L 6.84375 0.015625 L 6.578125 0.046875 L 5.71875 -0.015625 L 4.875 0.03125 L 4.625 -0.015625 L 1.453125 0.015625 L 1.1875 -0.140625 Z M 1.015625 -0.40625 "/></g></g></g><g fill="#000000" fill-opacity="1"><g transform="translate(231.250511, 210.925006)"><g><path d="M 5.15625 0.140625 L 4.890625 0.140625 L 4.640625 0.078125 L 4.34375 0.0625 L 4.046875 -0.046875 L 3.84375 -0.09375 L 3.5625 -0.203125 L 2.609375 -0.71875 L 2.390625 -0.875 L 2.15625 -1.03125 L 1.65625 -1.53125 L 1.09375 -2.34375 L 1 -2.578125 L 0.859375 -2.828125 L 0.8125 -3.078125 L 0.703125 -3.34375 L 0.5625 -3.890625 L 0.5625 -4.453125 L 0.5 -4.90625 L 0.75 -6.65625 L 1.40625 -7.90625 L 1.5625 -8.140625 L 1.953125 -8.5 L 2.109375 -8.71875 L 3.09375 -9.359375 L 3.34375 -9.453125 L 3.5625 -9.578125 L 3.828125 -9.671875 L 4.375 -9.78125 L 4.640625 -9.875 L 4.875 -9.890625 L 6.140625 -9.890625 L 6.84375 -9.796875 L 7.390625 -9.640625 L 8.1875 -9.28125 L 8.5 -9.078125 L 9.21875 -8.40625 L 9.75 -7.703125 L 9.96875 -7.171875 L 10.015625 -6.921875 L 10.125 -6.640625 L 10.03125 -6.34375 L 9.8125 -6.21875 L 9.53125 -6.1875 L 8.125 -6.21875 L 7.8125 -6.34375 L 7.5625 -6.609375 L 7.4375 -6.84375 L 7.21875 -7.0625 L 6.8125 -7.40625 L 6.53125 -7.5 L 5.984375 -7.609375 L 5.125 -7.625 L 4.640625 -7.484375 L 4.375 -7.375 L 3.90625 -7.046875 L 3.5625 -6.609375 L 3.3125 -6.109375 L 3.234375 -5.859375 L 3.21875 -5.578125 L 3.125 -5.3125 L 3.109375 -4.875 L 3.15625 -4.21875 L 3.3125 -3.671875 L 3.4375 -3.4375 L 3.953125 -2.765625 L 4.125 -2.5625 L 4.390625 -2.4375 L 5.15625 -2.15625 L 5.9375 -2.140625 L 6.234375 -2.171875 L 6.515625 -2.25 L 6.984375 -2.484375 L 7.515625 -3.0625 L 7.625 -3.296875 L 7.90625 -3.5625 L 8.21875 -3.703125 L 9.71875 -3.703125 L 10.0625 -3.546875 L 10.15625 -3.296875 L 10.109375 -3.03125 L 10.015625 -2.75 L 9.9375 -2.484375 L 9.8125 -2.21875 L 9.390625 -1.5 L 9.15625 -1.3125 L 9 -1.078125 L 8.8125 -0.890625 L 8.578125 -0.734375 L 8.328125 -0.578125 L 8.125 -0.4375 L 7.34375 -0.09375 L 5.984375 0.1875 Z M 5.15625 0.140625 "/></g></g></g><g fill="#000000" fill-opacity="1"><g transform="translate(243.564559, 210.925006)"><g><path d="M 1.0625 -0.390625 L 1.03125 -1.8125 L 1.0625 -2.09375 L 1.015625 -2.359375 L 1.0625 -2.625 L 1.03125 -2.9375 L 1.078125 -3.59375 L 1.046875 -3.921875 L 1.078125 -4.359375 L 1.03125 -4.625 L 1.03125 -5.4375 L 1.0625 -5.71875 L 1.015625 -6.578125 L 1.0625 -6.859375 L 1.03125 -7.09375 L 1.078125 -7.40625 L 1.015625 -8.25 L 1.046875 -8.515625 L 1.015625 -8.8125 L 1.015625 -9.09375 L 1.0625 -9.390625 L 1.21875 -9.625 L 1.65625 -9.765625 L 1.921875 -9.78125 L 2.203125 -9.765625 L 3.03125 -9.78125 L 3.453125 -9.640625 L 3.625 -9.359375 L 3.609375 -9.109375 L 3.65625 -7.734375 L 3.625 -7.46875 L 3.625 -6.640625 L 3.734375 -6.375 L 4.03125 -6.25 L 5.390625 -6.265625 L 5.640625 -6.234375 L 6.203125 -6.234375 L 6.4375 -6.375 L 6.59375 -6.65625 L 6.59375 -7.46875 L 6.65625 -7.703125 L 6.625 -9.21875 L 6.734375 -9.625 L 7.15625 -9.765625 L 7.4375 -9.765625 L 7.875 -9.796875 L 8.59375 -9.78125 L 9.03125 -9.640625 L 9.171875 -9.359375 L 9.203125 -9.09375 L 9.140625 -8.8125 L 9.171875 -8.546875 L 9.21875 -8.28125 L 9.15625 -7.109375 L 9.203125 -5.734375 L 9.171875 -5.4375 L 9.1875 -4.90625 L 9.140625 -4.609375 L 9.140625 -4.328125 L 9.171875 -4.03125 L 9.15625 -3.75 L 9.21875 -3.21875 L 9.21875 -0.96875 L 9.15625 -0.390625 L 9 -0.125 L 8.71875 0.03125 L 7.75 0.03125 L 7.34375 -0.015625 L 7.0625 0.015625 L 6.78125 -0.125 L 6.640625 -0.421875 L 6.59375 -0.96875 L 6.65625 -1.390625 L 6.59375 -2.375 L 6.640625 -2.640625 L 6.59375 -3.5 L 6.453125 -3.78125 L 6.203125 -3.921875 L 5.9375 -3.921875 L 5.65625 -3.953125 L 5.375 -3.921875 L 4.546875 -3.921875 L 4.296875 -3.953125 L 4 -3.953125 L 3.71875 -3.78125 L 3.578125 -3.484375 L 3.625 -2.375 L 3.59375 -2.09375 L 3.609375 -1.78125 L 3.578125 -1.515625 L 3.609375 -1.234375 L 3.578125 -0.984375 L 3.625 -0.671875 L 3.609375 -0.390625 L 3.5 -0.109375 L 3.1875 0.015625 L 2.890625 0.046875 L 2.609375 0 L 2.203125 -0.015625 L 1.765625 0.03125 L 1.5 0.03125 L 1.171875 -0.09375 Z M 1.0625 -0.390625 "/></g></g></g><g fill="#000000" fill-opacity="1"><g transform="translate(255.444836, 210.925006)"><g/></g></g><g fill="#000000" fill-opacity="1"><g transform="translate(260.874725, 210.925006)"><g><path d="M 3.734375 0.171875 L 3.46875 0.140625 L 2.890625 -0.03125 L 2.625 -0.140625 L 2.359375 -0.21875 L 1.921875 -0.484375 L 1.6875 -0.671875 L 1.3125 -1.078125 L 1 -1.515625 L 0.859375 -1.796875 L 0.6875 -2.3125 L 0.625 -2.96875 L 0.65625 -3.671875 L 0.8125 -4.1875 L 1.234375 -4.890625 L 1.40625 -5.0625 L 1.59375 -5.3125 L 1.6875 -5.59375 L 1.671875 -5.84375 L 1.421875 -6.3125 L 1.25 -6.796875 L 1.25 -7.671875 L 1.3125 -7.921875 L 1.375 -8.234375 L 1.484375 -8.453125 L 1.671875 -8.6875 L 1.78125 -8.890625 L 1.953125 -9.09375 L 2.421875 -9.484375 L 2.640625 -9.609375 L 3.15625 -9.828125 L 3.71875 -9.96875 L 4.40625 -10.015625 L 5.28125 -9.9375 L 5.953125 -9.734375 L 6.1875 -9.625 L 6.703125 -9.234375 L 7.0625 -8.84375 L 7.203125 -8.609375 L 7.34375 -8.34375 L 7.46875 -7.765625 L 7.34375 -7.46875 L 6.921875 -7.390625 L 5.640625 -7.375 L 5.328125 -7.5 L 5.0625 -7.6875 L 4.8125 -7.84375 L 4.4375 -7.90625 L 4.0625 -7.859375 L 3.84375 -7.71875 L 3.671875 -7.5 L 3.640625 -7.109375 L 3.734375 -6.71875 L 4.015625 -6.5625 L 4.40625 -6.46875 L 4.78125 -6.28125 L 4.859375 -5.984375 L 4.890625 -4.78125 L 4.765625 -4.5 L 4.40625 -4.375 L 4.03125 -4.328125 L 3.734375 -4.1875 L 3.5 -4 L 3.34375 -3.828125 L 3.21875 -3.53125 L 3.171875 -3.15625 L 3.203125 -2.6875 L 3.34375 -2.46875 L 3.546875 -2.234375 L 3.765625 -2.078125 L 4.015625 -1.984375 L 4.421875 -1.921875 L 4.84375 -1.96875 L 5.09375 -2.09375 L 5.34375 -2.25 L 5.640625 -2.703125 L 5.703125 -6.078125 L 5.859375 -6.3125 L 6.140625 -6.46875 L 6.421875 -6.46875 L 6.703125 -6.421875 L 7.09375 -6.46875 L 7.8125 -6.46875 L 8.109375 -6.5 L 8.390625 -6.453125 L 8.640625 -6.3125 L 8.78125 -5.921875 L 8.765625 -5.484375 L 8.8125 -5.234375 L 8.8125 -4.703125 L 8.671875 -4.4375 L 8.359375 -4.25 L 8.0625 -4.140625 L 7.921875 -3.765625 L 7.890625 -2.765625 L 7.828125 -2.203125 L 7.671875 -1.6875 L 7.4375 -1.140625 L 7.0625 -0.734375 L 6.65625 -0.359375 L 6.1875 -0.0625 L 5.640625 0.09375 L 4.984375 0.1875 Z M 3.734375 0.171875 "/></g></g></g><g fill="#000000" fill-opacity="1"><g transform="translate(271.761569, 210.925006)"><g/></g></g><g fill="#000000" fill-opacity="1"><g transform="translate(277.191458, 210.925006)"><g><path d="M 4.6875 0.0625 L 4.40625 -0.015625 L 3.71875 -0.015625 L 3.296875 0.046875 L 2.75 -0.015625 L 2.46875 0.015625 L 2.03125 0.03125 L 1.625 -0.03125 L 1.359375 0 L 1.09375 0 L 0.8125 -0.125 L 0.671875 -0.5 L 0.71875 -1.796875 L 0.875 -2.046875 L 1.796875 -2.328125 L 1.953125 -2.75 L 1.90625 -7.046875 L 1.78125 -7.421875 L 1.515625 -7.59375 L 1.234375 -7.59375 L 0.921875 -7.734375 L 0.765625 -8.015625 L 0.796875 -8.28125 L 0.75 -9.328125 L 0.890625 -9.65625 L 1.171875 -9.796875 L 1.5 -9.796875 L 1.765625 -9.765625 L 2.90625 -9.765625 L 3.1875 -9.8125 L 3.4375 -9.78125 L 5.140625 -9.78125 L 5.390625 -9.625 L 5.5625 -9.359375 L 5.546875 -7.984375 L 5.40625 -7.75 L 5.109375 -7.640625 L 4.828125 -7.609375 L 4.515625 -7.46875 L 4.421875 -7.15625 L 4.375 -5.734375 L 4.421875 -4.734375 L 4.390625 -4.421875 L 4.40625 -2.890625 L 4.375 -2.625 L 4.53125 -2.296875 L 4.875 -2.1875 L 5.171875 -2.1875 L 5.46875 -2.03125 L 5.640625 -1.765625 L 5.640625 -0.375 L 5.5 -0.109375 L 5.25 0.03125 Z M 4.6875 0.0625 "/></g></g></g><g fill="#000000" fill-opacity="1"><g transform="translate(285.181917, 210.925006)"><g><path d="M 8.265625 -0.21875 L 8.078125 -0.40625 L 7.90625 -0.609375 L 7.6875 -0.796875 L 7.5 -1.015625 L 6.140625 -2.375 L 5.921875 -2.5625 L 3.921875 -4.515625 L 3.734375 -4.5625 L 3.59375 -4.390625 L 3.65625 -4.109375 L 3.609375 -0.671875 L 3.65625 -0.390625 L 3.53125 -0.109375 L 3.25 0.03125 L 2.921875 0 L 2.625 0.046875 L 1.9375 0 L 1.453125 0.03125 L 1.1875 -0.125 L 1.0625 -0.4375 L 1.0625 -0.703125 L 1.015625 -0.984375 L 1.0625 -1.515625 L 1.03125 -1.796875 L 1.046875 -2.359375 L 1.015625 -2.65625 L 1.015625 -2.921875 L 1.03125 -3.234375 L 1.03125 -3.5 L 1.0625 -3.75 L 1.015625 -5.75 L 1.046875 -6.046875 L 1.03125 -6.34375 L 1.0625 -6.59375 L 1.015625 -7.171875 L 1.046875 -7.453125 L 1.015625 -9.40625 L 1.203125 -9.671875 L 1.546875 -9.84375 L 1.921875 -9.734375 L 2.484375 -9.359375 L 3.234375 -8.578125 L 3.421875 -8.34375 L 3.65625 -8.171875 L 3.796875 -7.96875 L 4.0625 -7.78125 L 4.21875 -7.578125 L 4.640625 -7.203125 L 4.9375 -6.90625 L 5.09375 -6.703125 L 5.3125 -6.53125 L 5.8125 -6.03125 L 6.015625 -5.859375 L 6.640625 -5.234375 L 6.828125 -5.1875 L 6.90625 -5.40625 L 6.890625 -5.96875 L 6.9375 -6.265625 L 6.9375 -6.53125 L 6.890625 -6.8125 L 6.90625 -9.359375 L 7.046875 -9.65625 L 7.375 -9.796875 L 7.65625 -9.78125 L 7.90625 -9.8125 L 8.203125 -9.765625 L 8.515625 -9.796875 L 8.78125 -9.796875 L 9.0625 -9.765625 L 9.359375 -9.625 L 9.53125 -9.375 L 9.5 -8.65625 L 9.53125 -8.234375 L 9.484375 -7.953125 L 9.484375 -7.390625 L 9.5 -7.125 L 9.46875 -6.5625 L 9.515625 -4.890625 L 9.484375 -4.578125 L 9.546875 -4.1875 L 9.484375 -0.375 L 9.359375 -0.078125 L 9.03125 0.0625 L 8.671875 -0.046875 Z M 8.265625 -0.21875 "/></g></g></g><g fill="#000000" fill-opacity="1"><g transform="translate(297.370034, 210.925006)"><g><path d="M 8.265625 -0.21875 L 8.078125 -0.40625 L 7.90625 -0.609375 L 7.6875 -0.796875 L 7.5 -1.015625 L 6.140625 -2.375 L 5.921875 -2.5625 L 3.921875 -4.515625 L 3.734375 -4.5625 L 3.59375 -4.390625 L 3.65625 -4.109375 L 3.609375 -0.671875 L 3.65625 -0.390625 L 3.53125 -0.109375 L 3.25 0.03125 L 2.921875 0 L 2.625 0.046875 L 1.9375 0 L 1.453125 0.03125 L 1.1875 -0.125 L 1.0625 -0.4375 L 1.0625 -0.703125 L 1.015625 -0.984375 L 1.0625 -1.515625 L 1.03125 -1.796875 L 1.046875 -2.359375 L 1.015625 -2.65625 L 1.015625 -2.921875 L 1.03125 -3.234375 L 1.03125 -3.5 L 1.0625 -3.75 L 1.015625 -5.75 L 1.046875 -6.046875 L 1.03125 -6.34375 L 1.0625 -6.59375 L 1.015625 -7.171875 L 1.046875 -7.453125 L 1.015625 -9.40625 L 1.203125 -9.671875 L 1.546875 -9.84375 L 1.921875 -9.734375 L 2.484375 -9.359375 L 3.234375 -8.578125 L 3.421875 -8.34375 L 3.65625 -8.171875 L 3.796875 -7.96875 L 4.0625 -7.78125 L 4.21875 -7.578125 L 4.640625 -7.203125 L 4.9375 -6.90625 L 5.09375 -6.703125 L 5.3125 -6.53125 L 5.8125 -6.03125 L 6.015625 -5.859375 L 6.640625 -5.234375 L 6.828125 -5.1875 L 6.90625 -5.40625 L 6.890625 -5.96875 L 6.9375 -6.265625 L 6.9375 -6.53125 L 6.890625 -6.8125 L 6.90625 -9.359375 L 7.046875 -9.65625 L 7.375 -9.796875 L 7.65625 -9.78125 L 7.90625 -9.8125 L 8.203125 -9.765625 L 8.515625 -9.796875 L 8.78125 -9.796875 L 9.0625 -9.765625 L 9.359375 -9.625 L 9.53125 -9.375 L 9.5 -8.65625 L 9.53125 -8.234375 L 9.484375 -7.953125 L 9.484375 -7.390625 L 9.5 -7.125 L 9.46875 -6.5625 L 9.515625 -4.890625 L 9.484375 -4.578125 L 9.546875 -4.1875 L 9.484375 -0.375 L 9.359375 -0.078125 L 9.03125 0.0625 L 8.671875 -0.046875 Z M 8.265625 -0.21875 "/></g></g></g><g fill="#000000" fill-opacity="1"><g transform="translate(309.558151, 210.925006)"><g><path d="M 1.765625 0.0625 L 1.625 0.0625 L 1.4375 0.015625 L 1.3125 -0.03125 L 1 -0.203125 L 0.921875 -0.328125 L 0.765625 -0.453125 L 0.6875 -0.5625 L 0.609375 -0.71875 L 0.578125 -0.875 L 0.5625 -1.546875 L 0.625 -1.6875 L 0.671875 -1.828125 L 0.890625 -2.078125 L 1.171875 -2.3125 L 1.28125 -2.359375 L 1.46875 -2.421875 L 1.78125 -2.484375 L 2.25 -2.484375 L 2.4375 -2.40625 L 2.609375 -2.375 L 2.734375 -2.296875 L 2.890625 -2.21875 L 2.984375 -2.078125 L 3.078125 -1.984375 L 3.171875 -1.84375 L 3.265625 -1.671875 L 3.296875 -1.515625 L 3.34375 -1.34375 L 3.328125 -1.015625 L 3.203125 -0.59375 L 3.109375 -0.453125 L 2.984375 -0.3125 L 2.859375 -0.203125 L 2.75 -0.140625 L 2.5625 -0.03125 L 2.40625 0.03125 L 2.265625 0.03125 L 2.109375 0.0625 Z M 1.765625 0.0625 "/></g></g></g><path fill="#ffffff" d="M 80.554688 158.230469 C 80.625 157.996094 80.734375 157.847656 80.875 157.78125 L 82.769531 156.957031 C 84.550781 156.3125 86.949219 155.515625 88.769531 155.003906 L 89.664062 154.796875 C 89.515625 154.855469 89.402344 155.003906 89.324219 155.25 C 87.960938 155.726562 86.144531 156.375 84.8125 156.9375 C 83.523438 157.292969 81.8125 157.78125 80.554688 158.230469 " fill-opacity="1" fill-rule="nonzero"/><path fill="#ffffff" d="M 71.675781 163.761719 C 71.730469 163.585938 71.804688 163.460938 71.898438 163.382812 L 71.929688 163.359375 C 75.511719 160.683594 75.582031 160.632812 77.597656 159.476562 L 79.585938 158.40625 C 79.449219 158.476562 79.347656 158.621094 79.277344 158.851562 C 78.042969 159.636719 76.40625 160.699219 75.226562 161.5625 C 74.144531 162.195312 72.707031 163.050781 71.675781 163.761719 " fill-opacity="1" fill-rule="nonzero"/><path fill="#ffffff" d="M 137.726562 178.558594 L 137.761719 178.585938 L 138.59375 180.585938 L 137.726562 178.558594 " fill-opacity="1" fill-rule="nonzero"/><path fill="#ffffff" d="M 135.027344 173.855469 C 135.039062 173.8125 135.0625 173.785156 135.089844 173.773438 C 135.792969 174.964844 136.722656 176.5625 137.359375 177.796875 L 138.59375 180.585938 L 137.308594 177.859375 C 136.644531 176.648438 135.75 175.035156 135.027344 173.855469 " fill-opacity="1" fill-rule="nonzero"/><path fill="#ffffff" d="M 128.40625 165.949219 C 128.4375 165.851562 128.484375 165.789062 128.546875 165.761719 C 129.503906 166.71875 130.777344 168 131.679688 169.007812 C 132.488281 170.074219 133.566406 171.503906 134.324219 172.609375 C 134.292969 172.621094 134.269531 172.652344 134.25 172.703125 C 133.4375 171.664062 132.34375 170.28125 131.464844 169.292969 C 130.5625 168.277344 129.351562 166.925781 128.40625 165.949219 " fill-opacity="1" fill-rule="nonzero"/><path fill="#ffffff" d="M 120.246094 159.9375 C 120.292969 159.785156 120.363281 159.691406 120.457031 159.65625 C 121.613281 160.351562 123.148438 161.289062 124.261719 162.050781 C 125.265625 162.867188 126.59375 163.96875 127.550781 164.839844 C 127.484375 164.863281 127.433594 164.929688 127.402344 165.039062 C 126.371094 164.265625 124.984375 163.242188 123.902344 162.535156 C 122.816406 161.738281 121.367188 160.683594 120.246094 159.9375 " fill-opacity="1" fill-rule="nonzero"/><path fill="#ffffff" d="M 110.960938 155.988281 C 111.019531 155.796875 111.109375 155.675781 111.230469 155.628906 C 112.527344 156.042969 114.257812 156.605469 115.527344 157.09375 C 116.667969 157.644531 118.183594 158.386719 119.289062 159 C 119.191406 159.035156 119.117188 159.132812 119.070312 159.289062 C 117.871094 158.800781 116.265625 158.160156 115.039062 157.753906 C 113.824219 157.203125 112.203125 156.476562 110.960938 155.988281 " fill-opacity="1" fill-rule="nonzero"/><g clip-path="url(#6bff9dd3d9)"><path fill="#ffffff" d="M 100.972656 154.273438 C 101.039062 154.050781 101.144531 153.914062 101.285156 153.859375 C 102.628906 153.964844 104.425781 154.113281 105.761719 154.300781 L 105.945312 154.332031 C 107.148438 154.585938 108.757812 154.933594 109.941406 155.261719 C 109.820312 155.308594 109.730469 155.429688 109.667969 155.628906 C 108.359375 155.441406 106.609375 155.207031 105.289062 155.113281 C 104 154.835938 102.277344 154.476562 100.972656 154.273438 " fill-opacity="1" fill-rule="nonzero"/></g><g clip-path="url(#e3e3ba0924)"><path fill="#ffffff" d="M 90.691406 154.96875 C 90.765625 154.726562 90.878906 154.574219 91.027344 154.515625 L 92.800781 154.210938 C 93.832031 154.101562 95.203125 153.917969 96.238281 153.851562 L 97.503906 153.789062 L 99.929688 153.800781 C 99.789062 153.855469 99.683594 153.996094 99.613281 154.226562 C 98.25 154.359375 96.429688 154.554688 95.078125 154.785156 C 93.757812 154.808594 92.003906 154.855469 90.691406 154.96875 " fill-opacity="1" fill-rule="nonzero"/></g><path fill="#ffffff" d="M 64.625 171.046875 C 64.660156 170.941406 64.699219 170.855469 64.75 170.789062 C 65.433594 169.953125 66.324219 168.816406 67.042969 168.007812 C 68.15625 166.859375 69.65625 165.347656 70.839844 164.273438 C 70.753906 164.351562 70.683594 164.472656 70.628906 164.636719 C 69.628906 165.65625 68.304688 167.027344 67.371094 168.105469 C 66.523438 168.964844 65.40625 170.125 64.625 171.046875 " fill-opacity="1" fill-rule="nonzero"/><path fill="#ffffff" d="M 137.6875 178.695312 C 137.683594 178.664062 137.679688 178.640625 137.683594 178.621094 L 138.59375 180.585938 L 137.6875 178.695312 " fill-opacity="1" fill-rule="nonzero"/><path fill="#ffffff" d="M 132.007812 170.417969 C 131.988281 170.246094 131.980469 170.101562 131.984375 169.984375 C 132.824219 170.996094 133.933594 172.359375 134.703125 173.421875 C 135.425781 174.597656 136.378906 176.167969 137.042969 177.375 C 137.039062 177.410156 137.042969 177.453125 137.046875 177.5 C 136.378906 176.429688 135.476562 175.003906 134.734375 173.984375 C 133.929688 172.902344 132.527344 171.660156 132.007812 170.417969 " fill-opacity="1" fill-rule="nonzero"/><path fill="#ffffff" d="M 124.574219 163.890625 C 124.542969 163.589844 124.527344 163.339844 124.539062 163.140625 C 125.585938 163.871094 126.980469 164.859375 127.976562 165.660156 C 128.925781 166.640625 130.183594 167.953125 131.085938 168.96875 C 131.082031 169.097656 131.089844 169.253906 131.113281 169.445312 C 130.210938 168.65625 129 167.613281 128.042969 166.898438 C 127.015625 165.980469 125.230469 165.101562 124.574219 163.890625 " fill-opacity="1" fill-rule="nonzero"/><path fill="#ffffff" d="M 115.808594 159.273438 C 115.761719 158.863281 115.746094 158.519531 115.757812 158.246094 C 116.960938 158.683594 118.5625 159.277344 119.734375 159.796875 C 120.859375 160.550781 122.351562 161.570312 123.441406 162.375 C 123.429688 162.585938 123.445312 162.847656 123.480469 163.164062 C 122.398438 162.671875 120.945312 162.027344 119.828125 161.625 C 118.632812 160.902344 117.035156 159.945312 115.808594 159.273438 " fill-opacity="1" fill-rule="nonzero"/><path fill="#ffffff" d="M 106.125 156.71875 C 106.066406 156.21875 106.046875 155.804688 106.0625 155.472656 C 107.363281 155.601562 109.101562 155.78125 110.394531 156 C 111.640625 156.503906 113.296875 157.1875 114.515625 157.753906 C 114.503906 158.035156 114.519531 158.386719 114.566406 158.8125 C 113.355469 158.628906 111.734375 158.402344 110.515625 158.3125 C 109.203125 157.816406 107.453125 157.15625 106.125 156.71875 " fill-opacity="1" fill-rule="nonzero"/><path fill="#ffffff" d="M 95.9375 156.382812 C 95.875 155.824219 95.851562 155.359375 95.867188 154.988281 C 97.214844 154.789062 99.015625 154.539062 100.371094 154.4375 C 101.683594 154.660156 103.433594 154.972656 104.726562 155.273438 C 104.714844 155.613281 104.734375 156.035156 104.792969 156.542969 C 103.503906 156.679688 101.785156 156.882812 100.511719 157.113281 C 99.140625 156.871094 97.316406 156.554688 95.9375 156.382812 " fill-opacity="1" fill-rule="nonzero"/><path fill="#ffffff" d="M 85.664062 158.417969 C 85.597656 157.832031 85.574219 157.34375 85.589844 156.953125 C 86.925781 156.421875 88.714844 155.722656 90.082031 155.28125 C 91.40625 155.195312 93.171875 155.097656 94.5 155.101562 C 94.480469 155.480469 94.503906 155.949219 94.570312 156.511719 C 93.257812 156.980469 91.511719 157.617188 90.230469 158.171875 C 88.859375 158.214844 87.03125 158.289062 85.664062 158.417969 " fill-opacity="1" fill-rule="nonzero"/><path fill="#ffffff" d="M 75.976562 162.847656 C 75.910156 162.269531 75.882812 161.785156 75.902344 161.398438 C 77.105469 160.558594 78.722656 159.445312 79.976562 158.683594 C 81.246094 158.269531 82.945312 157.730469 84.242188 157.40625 C 84.226562 157.800781 84.25 158.289062 84.316406 158.875 C 83.042969 159.671875 81.351562 160.75 80.128906 161.625 C 78.875 161.960938 77.203125 162.421875 75.976562 162.847656 " fill-opacity="1" fill-rule="nonzero"/><path fill="#ffffff" d="M 67.96875 169.136719 C 67.90625 168.597656 67.886719 168.148438 67.902344 167.785156 C 68.867188 166.722656 70.167969 165.316406 71.195312 164.3125 C 72.238281 163.632812 73.640625 162.742188 74.734375 162.144531 C 74.71875 162.527344 74.742188 163.007812 74.808594 163.585938 C 73.746094 164.625 72.339844 166.023438 71.339844 167.121094 C 70.3125 167.695312 68.945312 168.476562 67.96875 169.136719 " fill-opacity="1" fill-rule="nonzero"/><path fill="#ffffff" d="M 61.878906 176.867188 C 61.824219 176.394531 61.804688 176.003906 61.820312 175.691406 C 62.527344 174.46875 63.480469 172.84375 64.257812 171.660156 C 65.050781 170.769531 66.121094 169.585938 66.980469 168.757812 C 66.964844 169.113281 66.988281 169.554688 67.046875 170.085938 C 66.226562 171.300781 65.144531 172.925781 64.386719 174.179688 C 63.609375 174.960938 62.585938 176.019531 61.878906 176.867188 " fill-opacity="1" fill-rule="nonzero"/><path fill="#ffffff" d="M 57.875 185.640625 C 57.832031 185.265625 57.816406 184.957031 57.828125 184.707031 C 58.253906 183.382812 58.835938 181.621094 59.332031 180.320312 C 59.855469 179.261719 60.566406 177.851562 61.167969 176.832031 C 61.152344 177.140625 61.171875 177.519531 61.222656 177.976562 C 60.667969 179.296875 59.933594 181.066406 59.4375 182.410156 C 58.941406 183.367188 58.292969 184.648438 57.875 185.640625 " fill-opacity="1" fill-rule="nonzero"/><g clip-path="url(#240e240f67)"><path fill="#ffffff" d="M 56.128906 195.070312 C 56.101562 194.8125 56.089844 194.597656 56.097656 194.429688 L 56.121094 193.980469 L 56.304688 191.941406 L 56.675781 189.359375 C 56.898438 188.339844 57.183594 186.972656 57.464844 185.964844 C 57.453125 186.203125 57.46875 186.503906 57.511719 186.863281 C 57.234375 188.230469 56.878906 190.050781 56.667969 191.429688 C 56.476562 192.519531 56.238281 193.972656 56.128906 195.070312 " fill-opacity="1" fill-rule="nonzero"/></g><path fill="#ffffff" d="M 135.152344 174.941406 C 135.144531 174.917969 135.140625 174.894531 135.136719 174.875 C 135.105469 174.734375 135.078125 174.609375 135.058594 174.5 C 135.761719 175.535156 136.6875 176.929688 137.316406 178.015625 L 138.59375 180.585938 L 137.390625 178.367188 C 136.734375 177.328125 135.652344 176.0625 135.152344 174.941406 " fill-opacity="1" fill-rule="nonzero"/><path fill="#ffffff" d="M 128.691406 168.441406 C 128.675781 168.390625 128.664062 168.339844 128.652344 168.285156 C 128.582031 167.96875 128.523438 167.683594 128.480469 167.425781 C 129.40625 168.160156 130.628906 169.15625 131.496094 169.964844 C 132.351562 171 133.480469 172.390625 134.289062 173.460938 C 134.3125 173.59375 134.34375 173.742188 134.378906 173.902344 C 134.386719 173.929688 134.390625 173.957031 134.398438 173.984375 C 133.648438 173.21875 132.632812 172.203125 131.816406 171.503906 C 130.890625 170.574219 129.347656 169.582031 128.691406 168.441406 " fill-opacity="1" fill-rule="nonzero"/><path fill="#ffffff" d="M 120.671875 163.667969 C 120.652344 163.589844 120.632812 163.511719 120.617188 163.433594 C 120.507812 162.960938 120.421875 162.53125 120.355469 162.144531 C 121.449219 162.570312 122.902344 163.15625 123.957031 163.667969 C 125.027344 164.539062 126.445312 165.707031 127.480469 166.617188 C 127.527344 166.894531 127.589844 167.199219 127.667969 167.539062 C 127.679688 167.59375 127.691406 167.652344 127.707031 167.707031 C 126.757812 167.246094 125.484375 166.648438 124.496094 166.277344 C 123.359375 165.484375 121.46875 164.808594 120.671875 163.667969 " fill-opacity="1" fill-rule="nonzero"/><path fill="#ffffff" d="M 111.503906 160.746094 C 111.480469 160.644531 111.457031 160.546875 111.4375 160.449219 C 111.296875 159.839844 111.1875 159.292969 111.101562 158.804688 C 112.308594 158.914062 113.917969 159.074219 115.113281 159.28125 C 116.34375 159.957031 117.980469 160.867188 119.183594 161.589844 C 119.253906 161.988281 119.34375 162.433594 119.457031 162.929688 C 119.472656 163.007812 119.492188 163.089844 119.511719 163.171875 C 118.414062 163.027344 116.949219 162.851562 115.84375 162.804688 C 114.546875 162.171875 112.816406 161.335938 111.503906 160.746094 " fill-opacity="1" fill-rule="nonzero"/><path fill="#ffffff" d="M 101.601562 159.800781 C 101.574219 159.683594 101.546875 159.566406 101.523438 159.453125 C 101.363281 158.75 101.234375 158.113281 101.132812 157.546875 C 102.402344 157.335938 104.097656 157.066406 105.378906 156.953125 C 106.714844 157.402344 108.496094 158.007812 109.8125 158.515625 C 109.898438 159.015625 110.011719 159.578125 110.152344 160.199219 C 110.175781 160.300781 110.199219 160.402344 110.222656 160.503906 C 109.03125 160.679688 107.4375 160.929688 106.261719 161.195312 C 104.867188 160.757812 103.007812 160.183594 101.601562 159.800781 " fill-opacity="1" fill-rule="nonzero"/><path fill="#ffffff" d="M 91.375 160.957031 C 91.34375 160.832031 91.316406 160.707031 91.285156 160.582031 C 91.113281 159.820312 90.976562 159.128906 90.867188 158.511719 C 92.148438 157.980469 93.863281 157.28125 95.175781 156.835938 C 96.5625 157.023438 98.40625 157.285156 99.78125 157.542969 C 99.882812 158.121094 100.011719 158.765625 100.171875 159.480469 C 100.199219 159.59375 100.226562 159.710938 100.253906 159.828125 C 99.011719 160.324219 97.363281 160.996094 96.15625 161.566406 C 94.726562 161.359375 92.8125 161.097656 91.375 160.957031 " fill-opacity="1" fill-rule="nonzero"/><path fill="#ffffff" d="M 81.25 164.335938 C 81.21875 164.207031 81.191406 164.082031 81.164062 163.953125 C 80.988281 163.175781 80.84375 162.472656 80.734375 161.84375 C 81.96875 160.992188 83.628906 159.863281 84.917969 159.085938 C 86.289062 158.972656 88.125 158.839844 89.503906 158.816406 C 89.613281 159.4375 89.753906 160.132812 89.925781 160.898438 C 89.953125 161.023438 89.984375 161.148438 90.011719 161.277344 C 88.777344 162.082031 87.136719 163.167969 85.941406 164.035156 C 84.535156 164.097656 82.652344 164.195312 81.25 164.335938 " fill-opacity="1" fill-rule="nonzero"/><path fill="#ffffff" d="M 72.34375 169.613281 C 72.3125 169.492188 72.285156 169.371094 72.257812 169.25 C 72.089844 168.503906 71.953125 167.828125 71.847656 167.226562 C 72.871094 166.140625 74.246094 164.703125 75.328125 163.675781 C 76.558594 163.277344 78.203125 162.765625 79.457031 162.457031 C 79.566406 163.082031 79.707031 163.785156 79.882812 164.5625 C 79.914062 164.6875 79.941406 164.8125 79.972656 164.941406 C 78.863281 166.003906 77.394531 167.429688 76.339844 168.546875 C 75.132812 168.839844 73.527344 169.242188 72.34375 169.613281 " fill-opacity="1" fill-rule="nonzero"/><path fill="#ffffff" d="M 65.226562 176.316406 C 65.203125 176.203125 65.175781 176.09375 65.152344 175.984375 C 65 175.3125 64.878906 174.707031 64.78125 174.164062 C 65.566406 172.921875 66.621094 171.265625 67.464844 170.0625 C 68.449219 169.433594 69.769531 168.609375 70.800781 168.066406 C 70.90625 168.664062 71.042969 169.328125 71.207031 170.066406 C 71.234375 170.1875 71.261719 170.308594 71.292969 170.429688 C 70.40625 171.660156 69.234375 173.304688 68.402344 174.570312 C 67.433594 175.066406 66.148438 175.738281 65.226562 176.316406 " fill-opacity="1" fill-rule="nonzero"/><path fill="#ffffff" d="M 60.082031 184.070312 C 60.058594 183.976562 60.039062 183.886719 60.019531 183.796875 C 59.890625 183.238281 59.789062 182.730469 59.710938 182.277344 C 60.230469 180.9375 60.941406 179.152344 61.527344 177.835938 C 62.242188 177.019531 63.207031 175.9375 63.988281 175.183594 C 64.082031 175.714844 64.203125 176.308594 64.351562 176.96875 C 64.378906 177.074219 64.402344 177.183594 64.425781 177.292969 C 63.78125 178.617188 62.929688 180.386719 62.335938 181.738281 C 61.636719 182.414062 60.710938 183.328125 60.082031 184.070312 " fill-opacity="1" fill-rule="nonzero"/><g clip-path="url(#02f5e6b548)"><path fill="#ffffff" d="M 57.078125 192.519531 C 57.0625 192.449219 57.046875 192.378906 57.03125 192.3125 C 56.9375 191.894531 56.859375 191.515625 56.800781 191.179688 C 57.042969 189.804688 57.378906 187.972656 57.6875 186.609375 C 58.109375 185.640625 58.6875 184.351562 59.195312 183.421875 C 59.273438 183.859375 59.371094 184.351562 59.492188 184.894531 C 59.511719 184.980469 59.535156 185.070312 59.554688 185.160156 C 59.167969 186.515625 58.660156 188.320312 58.324219 189.6875 C 57.921875 190.523438 57.398438 191.648438 57.078125 192.519531 " fill-opacity="1" fill-rule="nonzero"/></g><g clip-path="url(#8fdef06df1)"><path fill="#ffffff" d="M 56.398438 201.289062 C 56.386719 201.246094 56.378906 201.207031 56.367188 201.164062 C 56.3125 200.914062 56.265625 200.6875 56.230469 200.484375 C 56.171875 199.136719 56.101562 197.339844 56.113281 195.996094 C 56.226562 194.910156 56.390625 193.46875 56.585938 192.398438 C 56.644531 192.71875 56.714844 193.078125 56.804688 193.476562 C 56.820312 193.539062 56.835938 193.605469 56.851562 193.671875 C 56.738281 194.992188 56.597656 196.75 56.542969 198.074219 C 56.472656 199.039062 56.386719 200.324219 56.398438 201.289062 " fill-opacity="1" fill-rule="nonzero"/></g><path fill="#ffffff" d="M 137.800781 179.179688 C 137.78125 179.121094 137.765625 179.0625 137.753906 179.011719 L 138.59375 180.585938 L 137.800781 179.179688 " fill-opacity="1" fill-rule="nonzero"/><path fill="#ffffff" d="M 132.648438 173.175781 C 132.550781 172.835938 132.460938 172.515625 132.378906 172.210938 C 133.152344 172.929688 134.175781 173.898438 134.878906 174.683594 C 135.578125 175.671875 136.503906 176.996094 137.15625 178.019531 C 137.179688 178.105469 137.207031 178.199219 137.234375 178.296875 C 136.65625 177.570312 135.878906 176.601562 135.230469 175.9375 C 134.46875 175.097656 133.222656 174.152344 132.648438 173.175781 " fill-opacity="1" fill-rule="nonzero"/><path fill="#ffffff" d="M 125.699219 168.699219 C 125.523438 168.109375 125.367188 167.546875 125.226562 167.019531 C 126.183594 167.414062 127.449219 167.957031 128.363281 168.4375 C 129.320312 169.324219 130.597656 170.507812 131.523438 171.425781 C 131.613281 171.761719 131.710938 172.117188 131.820312 172.492188 C 131.03125 172.070312 129.964844 171.523438 129.132812 171.195312 C 128.109375 170.4375 126.441406 169.734375 125.699219 168.699219 " fill-opacity="1" fill-rule="nonzero"/><path fill="#ffffff" d="M 117.34375 165.839844 C 117.105469 165.03125 116.890625 164.265625 116.699219 163.546875 C 117.785156 163.621094 119.230469 163.734375 120.304688 163.90625 C 121.472656 164.660156 123.023438 165.671875 124.167969 166.457031 C 124.3125 167.011719 124.476562 167.601562 124.660156 168.226562 C 123.699219 168.117188 122.410156 167.992188 121.445312 167.984375 C 120.21875 167.332031 118.582031 166.464844 117.34375 165.839844 " fill-opacity="1" fill-rule="nonzero"/><path fill="#ffffff" d="M 107.984375 164.683594 C 107.695312 163.703125 107.433594 162.773438 107.203125 161.898438 C 108.371094 161.660156 109.933594 161.351562 111.117188 161.203125 C 112.433594 161.796875 114.1875 162.589844 115.488281 163.21875 C 115.683594 163.960938 115.902344 164.753906 116.148438 165.585938 C 115.066406 165.792969 113.625 166.082031 112.558594 166.371094 C 111.191406 165.855469 109.363281 165.167969 107.984375 164.683594 " fill-opacity="1" fill-rule="nonzero"/><path fill="#ffffff" d="M 87.855469 167.8125 C 87.515625 166.65625 87.207031 165.558594 86.9375 164.527344 C 88.136719 163.683594 89.742188 162.566406 90.984375 161.785156 C 92.429688 161.941406 94.355469 162.160156 95.792969 162.378906 C 96.054688 163.367188 96.347656 164.421875 96.675781 165.53125 C 95.496094 166.324219 93.929688 167.394531 92.789062 168.242188 C 91.3125 168.09375 89.335938 167.902344 87.855469 167.8125 " fill-opacity="1" fill-rule="nonzero"/><path fill="#ffffff" d="M 78.140625 172.136719 C 77.804688 170.992188 77.503906 169.910156 77.234375 168.890625 C 78.3125 167.792969 79.761719 166.335938 80.894531 165.292969 C 82.300781 165.179688 84.179688 165.039062 85.59375 165 C 85.863281 166.03125 86.171875 167.128906 86.511719 168.285156 C 85.359375 169.339844 83.832031 170.75 82.726562 171.855469 C 81.351562 171.917969 79.515625 172.011719 78.140625 172.136719 " fill-opacity="1" fill-rule="nonzero"/><path fill="#ffffff" d="M 69.984375 177.777344 C 69.671875 176.714844 69.390625 175.703125 69.140625 174.757812 C 70 173.503906 71.160156 171.839844 72.070312 170.625 C 73.261719 170.289062 74.851562 169.851562 76.058594 169.59375 C 76.328125 170.605469 76.628906 171.683594 76.960938 172.816406 C 76.003906 174.027344 74.734375 175.648438 73.824219 176.894531 C 72.667969 177.132812 71.125 177.464844 69.984375 177.777344 " fill-opacity="1" fill-rule="nonzero"/><path fill="#ffffff" d="M 63.632812 184.378906 C 63.359375 183.453125 63.113281 182.578125 62.898438 181.753906 C 63.523438 180.414062 64.367188 178.636719 65.042969 177.324219 C 65.972656 176.789062 67.226562 176.085938 68.203125 175.628906 C 68.445312 176.5625 68.726562 177.554688 69.035156 178.605469 C 68.292969 179.898438 67.3125 181.625 66.613281 182.941406 C 65.707031 183.347656 64.5 183.898438 63.632812 184.378906 " fill-opacity="1" fill-rule="nonzero"/><path fill="#ffffff" d="M 59.273438 191.625 C 59.054688 190.886719 58.859375 190.1875 58.6875 189.53125 C 59.058594 188.175781 59.5625 186.363281 59.984375 185.023438 C 60.628906 184.316406 61.503906 183.386719 62.21875 182.75 C 62.429688 183.550781 62.667969 184.410156 62.933594 185.3125 C 62.425781 186.621094 61.753906 188.367188 61.289062 189.691406 C 60.660156 190.246094 59.832031 191 59.273438 191.625 " fill-opacity="1" fill-rule="nonzero"/><g clip-path="url(#457b43c432)"><path fill="#ffffff" d="M 57.089844 199.179688 C 56.9375 198.675781 56.804688 198.195312 56.6875 197.746094 C 56.78125 196.429688 56.917969 194.675781 57.070312 193.363281 C 57.40625 192.523438 57.867188 191.40625 58.289062 190.605469 C 58.457031 191.234375 58.644531 191.90625 58.851562 192.613281 C 58.59375 193.875 58.253906 195.554688 58.039062 196.824219 C 57.722656 197.519531 57.3125 198.453125 57.089844 199.179688 " fill-opacity="1" fill-rule="nonzero"/></g><g clip-path="url(#bcfa265604)"><path fill="#ffffff" d="M 57.269531 206.730469 C 57.195312 206.488281 57.132812 206.257812 57.074219 206.039062 C 56.875 204.828125 56.617188 203.210938 56.484375 201.988281 C 56.488281 201.046875 56.503906 199.785156 56.597656 198.847656 C 56.707031 199.269531 56.832031 199.71875 56.972656 200.191406 C 56.976562 201.34375 56.992188 202.882812 57.054688 204.03125 C 57.089844 204.84375 57.152344 205.925781 57.269531 206.730469 " fill-opacity="1" fill-rule="nonzero"/></g><path fill="#ffffff" d="M 57.589844 208.167969 L 57.402344 207.480469 L 57.316406 207.128906 C 57.363281 207.3125 57.417969 207.507812 57.480469 207.710938 L 57.816406 208.964844 C 57.75 208.726562 57.65625 208.40625 57.589844 208.167969 " fill-opacity="1" fill-rule="nonzero"/><path fill="#ffffff" d="M 135.773438 177.066406 C 135.695312 176.828125 135.621094 176.597656 135.550781 176.378906 C 136.15625 177.054688 136.953125 177.972656 137.484375 178.710938 L 138.59375 180.585938 L 137.664062 179.261719 C 137.109375 178.589844 136.214844 177.816406 135.773438 177.066406 " fill-opacity="1" fill-rule="nonzero"/><path fill="#ffffff" d="M 130.121094 173.324219 C 129.9375 172.777344 129.769531 172.25 129.609375 171.742188 C 130.414062 172.089844 131.480469 172.570312 132.234375 173.007812 C 133.035156 173.800781 134.101562 174.859375 134.871094 175.679688 C 134.953125 175.941406 135.039062 176.210938 135.132812 176.492188 C 134.511719 176.132812 133.675781 175.671875 133.011719 175.410156 C 132.148438 174.777344 130.757812 174.179688 130.121094 173.324219 " fill-opacity="1" fill-rule="nonzero"/><path fill="#ffffff" d="M 122.8125 170.976562 C 122.539062 170.15625 122.285156 169.367188 122.046875 168.609375 C 122.996094 168.640625 124.265625 168.695312 125.207031 168.824219 C 126.257812 169.539062 127.660156 170.5 128.691406 171.238281 C 128.859375 171.78125 129.042969 172.347656 129.238281 172.929688 C 128.421875 172.882812 127.332031 172.839844 126.519531 172.894531 C 125.410156 172.3125 123.628906 171.921875 122.8125 170.976562 " fill-opacity="1" fill-rule="nonzero"/><path fill="#ffffff" d="M 114.234375 170.0625 C 113.886719 169.019531 113.5625 168.011719 113.261719 167.046875 C 114.316406 166.773438 115.726562 166.421875 116.800781 166.234375 C 118.046875 166.847656 119.710938 167.671875 120.945312 168.3125 C 121.191406 169.097656 121.457031 169.921875 121.738281 170.769531 C 120.78125 171.027344 119.503906 171.390625 118.574219 171.726562 C 117.273438 171.222656 115.539062 170.550781 114.234375 170.0625 " fill-opacity="1" fill-rule="nonzero"/><path fill="#ffffff" d="M 104.769531 170.617188 C 104.371094 169.410156 103.992188 168.238281 103.640625 167.117188 C 104.761719 166.554688 106.261719 165.816406 107.414062 165.324219 C 108.800781 165.804688 110.648438 166.449219 112.023438 166.960938 C 112.332031 167.949219 112.664062 168.980469 113.019531 170.050781 C 111.964844 170.59375 110.566406 171.332031 109.546875 171.9375 C 108.117188 171.535156 106.207031 171 104.769531 170.617188 " fill-opacity="1" fill-rule="nonzero"/><path fill="#ffffff" d="M 94.808594 172.6875 C 94.375 171.375 93.964844 170.105469 93.585938 168.890625 C 94.730469 168.054688 96.261719 166.953125 97.445312 166.171875 C 98.910156 166.484375 100.867188 166.902344 102.324219 167.253906 C 102.679688 168.390625 103.0625 169.578125 103.46875 170.804688 C 102.363281 171.609375 100.894531 172.695312 99.820312 173.546875 C 98.320312 173.277344 96.316406 172.921875 94.808594 172.6875 " fill-opacity="1" fill-rule="nonzero"/><path fill="#ffffff" d="M 84.753906 176.289062 C 84.308594 174.953125 83.890625 173.660156 83.503906 172.421875 C 84.625 171.335938 86.125 169.898438 87.289062 168.859375 C 88.777344 168.957031 90.757812 169.101562 92.238281 169.257812 C 92.621094 170.480469 93.03125 171.757812 93.46875 173.074219 C 92.351562 174.113281 90.863281 175.503906 89.777344 176.578125 C 88.269531 176.476562 86.261719 176.347656 84.753906 176.289062 " fill-opacity="1" fill-rule="nonzero"/><path fill="#ffffff" d="M 68.25 186.628906 C 67.867188 185.476562 67.503906 184.359375 67.171875 183.292969 C 67.894531 181.984375 68.863281 180.246094 69.628906 178.964844 C 70.761719 178.683594 72.28125 178.316406 73.429688 178.101562 C 73.796875 179.277344 74.191406 180.503906 74.613281 181.773438 C 73.789062 183.03125 72.691406 184.71875 71.894531 185.996094 C 70.796875 186.167969 69.335938 186.398438 68.25 186.628906 " fill-opacity="1" fill-rule="nonzero"/><path fill="#ffffff" d="M 62.601562 192.679688 C 62.28125 191.714844 61.980469 190.785156 61.703125 189.894531 C 62.199219 188.582031 62.863281 186.832031 63.398438 185.535156 C 64.265625 185.089844 65.433594 184.507812 66.335938 184.136719 C 66.664062 185.183594 67.015625 186.277344 67.390625 187.410156 C 66.769531 188.667969 65.949219 190.34375 65.359375 191.617188 C 64.523438 191.910156 63.410156 192.3125 62.601562 192.679688 " fill-opacity="1" fill-rule="nonzero"/><path fill="#ffffff" d="M 58.964844 198.949219 C 58.722656 198.226562 58.5 197.535156 58.292969 196.867188 C 58.539062 195.609375 58.871094 193.9375 59.160156 192.6875 C 59.726562 192.097656 60.496094 191.324219 61.128906 190.804688 C 61.398438 191.667969 61.6875 192.570312 62 193.503906 C 61.601562 194.695312 61.074219 196.285156 60.707031 197.484375 C 60.164062 197.898438 59.445312 198.460938 58.964844 198.949219 " fill-opacity="1" fill-rule="nonzero"/><path fill="#ffffff" d="M 57.53125 205.15625 C 57.386719 204.726562 57.253906 204.308594 57.128906 203.90625 C 57.101562 202.765625 57.082031 201.242188 57.109375 200.101562 C 57.347656 199.402344 57.675781 198.46875 58.003906 197.804688 C 58.203125 198.4375 58.414062 199.097656 58.640625 199.78125 C 58.484375 200.847656 58.273438 202.273438 58.15625 203.34375 C 57.933594 203.875 57.65625 204.597656 57.53125 205.15625 " fill-opacity="1" fill-rule="nonzero"/><path fill="#ffffff" d="M 58.257812 210.355469 C 58.171875 210.097656 58.058594 209.75 57.976562 209.488281 L 57.910156 209.269531 L 57.433594 207.457031 C 57.320312 206.671875 57.179688 205.621094 57.152344 204.828125 C 57.265625 205.191406 57.386719 205.570312 57.519531 205.964844 C 57.613281 206.855469 57.75 208.046875 57.90625 208.933594 C 58.011719 209.359375 58.121094 209.9375 58.257812 210.355469 " fill-opacity="1" fill-rule="nonzero"/><path fill="#ffffff" d="M 138.035156 179.894531 C 138.007812 179.816406 137.984375 179.742188 137.957031 179.671875 L 138.59375 180.585938 L 138.035156 179.894531 " fill-opacity="1" fill-rule="nonzero"/><path fill="#ffffff" d="M 134 177.234375 C 133.84375 176.804688 133.695312 176.382812 133.554688 175.972656 C 134.175781 176.253906 135.007812 176.648438 135.582031 177.023438 C 136.164062 177.640625 136.941406 178.460938 137.496094 179.105469 C 137.535156 179.226562 137.578125 179.347656 137.625 179.46875 C 137.203125 179.195312 136.632812 178.839844 136.160156 178.664062 C 135.515625 178.230469 134.484375 177.84375 134 177.234375 " fill-opacity="1" fill-rule="nonzero"/><path fill="#ffffff" d="M 128.050781 175.777344 C 127.78125 175.027344 127.519531 174.292969 127.273438 173.578125 C 128.0625 173.546875 129.117188 173.519531 129.90625 173.585938 C 130.785156 174.179688 131.953125 174.96875 132.820312 175.578125 C 132.976562 176.03125 133.140625 176.5 133.3125 176.972656 C 132.671875 177.003906 131.8125 177.070312 131.183594 177.195312 C 130.246094 176.769531 128.992188 176.203125 128.050781 175.777344 " fill-opacity="1" fill-rule="nonzero"/><path fill="#ffffff" d="M 120.554688 175.507812 C 120.1875 174.480469 119.828125 173.480469 119.492188 172.503906 C 120.410156 172.179688 121.644531 171.761719 122.585938 171.523438 C 123.707031 172.066406 125.203125 172.800781 126.316406 173.359375 C 126.578125 174.113281 126.851562 174.886719 127.136719 175.675781 C 126.328125 176.003906 125.253906 176.460938 124.476562 176.859375 C 123.300781 176.453125 121.734375 175.910156 120.554688 175.507812 " fill-opacity="1" fill-rule="nonzero"/><path fill="#ffffff" d="M 102.390625 178.449219 C 101.886719 177.058594 101.402344 175.695312 100.945312 174.367188 C 102.015625 173.527344 103.445312 172.410156 104.550781 171.621094 C 105.992188 171.996094 107.910156 172.5 109.347656 172.894531 C 109.761719 174.101562 110.203125 175.34375 110.660156 176.609375 C 109.648438 177.445312 108.300781 178.570312 107.320312 179.445312 C 105.84375 179.140625 103.871094 178.738281 102.390625 178.449219 " fill-opacity="1" fill-rule="nonzero"/><path fill="#ffffff" d="M 82.6875 185.804688 C 82.164062 184.359375 81.660156 182.9375 81.183594 181.558594 C 82.183594 180.34375 83.527344 178.726562 84.566406 177.542969 C 86.074219 177.617188 88.085938 177.71875 89.59375 177.832031 C 90.078125 179.230469 90.585938 180.667969 91.117188 182.136719 C 90.054688 183.324219 88.640625 184.917969 87.605469 186.132812 C 86.132812 186.027344 84.164062 185.886719 82.6875 185.804688 " fill-opacity="1" fill-rule="nonzero"/><path fill="#ffffff" d="M 74.214844 190.492188 C 73.726562 189.144531 73.257812 187.824219 72.8125 186.539062 C 73.632812 185.269531 74.730469 183.578125 75.578125 182.332031 C 76.898438 182.269531 78.664062 182.195312 79.984375 182.183594 C 80.460938 183.554688 80.960938 184.964844 81.480469 186.40625 C 80.574219 187.636719 79.367188 189.285156 78.484375 190.535156 C 77.203125 190.507812 75.496094 190.480469 74.214844 190.492188 " fill-opacity="1" fill-rule="nonzero"/><path fill="#ffffff" d="M 67.308594 195.4375 C 66.886719 194.265625 66.480469 193.117188 66.09375 192 C 66.710938 190.742188 67.539062 189.066406 68.1875 187.820312 C 69.273438 187.625 70.726562 187.378906 71.824219 187.242188 C 72.261719 188.507812 72.722656 189.808594 73.203125 191.136719 C 72.472656 192.34375 71.503906 193.957031 70.792969 195.175781 C 69.746094 195.238281 68.351562 195.324219 67.308594 195.4375 " fill-opacity="1" fill-rule="nonzero"/><path fill="#ffffff" d="M 59.097656 205.230469 C 58.867188 204.589844 58.644531 203.960938 58.433594 203.351562 C 58.59375 202.289062 58.8125 200.878906 59.007812 199.824219 C 59.503906 199.386719 60.183594 198.8125 60.734375 198.449219 C 61.03125 199.304688 61.34375 200.183594 61.667969 201.078125 C 61.34375 202.058594 60.914062 203.367188 60.609375 204.355469 C 60.144531 204.589844 59.519531 204.917969 59.097656 205.230469 " fill-opacity="1" fill-rule="nonzero"/><path fill="#ffffff" d="M 58.234375 209.632812 C 58.121094 209.324219 58.015625 209.023438 57.914062 208.730469 C 57.808594 207.855469 57.679688 206.683594 57.625 205.804688 C 57.773438 205.277344 57.988281 204.574219 58.230469 204.085938 C 58.425781 204.660156 58.636719 205.246094 58.851562 205.84375 C 58.757812 206.632812 58.632812 207.6875 58.574219 208.480469 C 58.4375 208.8125 58.273438 209.273438 58.234375 209.632812 " fill-opacity="1" fill-rule="nonzero"/><path fill="#ffffff" d="M 58.566406 211.246094 C 58.496094 211.039062 58.398438 210.765625 58.328125 210.558594 L 58.027344 209.410156 C 58.113281 209.660156 58.203125 209.914062 58.296875 210.175781 C 58.40625 210.574219 58.523438 211.121094 58.664062 211.507812 L 58.566406 211.246094 " fill-opacity="1" fill-rule="nonzero"/><path fill="#ffffff" d="M 136.75 179.765625 C 136.644531 179.488281 136.539062 179.21875 136.441406 178.953125 C 136.871094 179.144531 137.445312 179.425781 137.824219 179.710938 L 138.59375 180.585938 L 138.070312 180.359375 C 137.671875 180.183594 137.046875 180.082031 136.75 179.765625 " fill-opacity="1" fill-rule="nonzero"/><path fill="#ffffff" d="M 132.359375 179.519531 C 132.117188 178.886719 131.878906 178.265625 131.648438 177.648438 C 132.261719 177.535156 133.085938 177.394531 133.707031 177.378906 C 134.371094 177.777344 135.257812 178.304688 135.917969 178.714844 C 136.035156 179.027344 136.15625 179.347656 136.28125 179.671875 C 135.824219 179.808594 135.214844 180.011719 134.785156 180.222656 C 134.058594 180.019531 133.085938 179.738281 132.359375 179.519531 " fill-opacity="1" fill-rule="nonzero"/><path fill="#ffffff" d="M 126.164062 180.25 C 125.800781 179.308594 125.445312 178.371094 125.101562 177.453125 C 125.871094 177.0625 126.902344 176.546875 127.699219 176.226562 C 128.652344 176.625 129.921875 177.160156 130.875 177.5625 C 131.117188 178.21875 131.371094 178.886719 131.632812 179.5625 C 130.988281 179.988281 130.136719 180.566406 129.527344 181.042969 C 128.515625 180.8125 127.171875 180.5 126.164062 180.25 " fill-opacity="1" fill-rule="nonzero"/><path fill="#ffffff" d="M 118.507812 181.886719 C 118.042969 180.683594 117.589844 179.492188 117.15625 178.320312 C 118.046875 177.675781 119.238281 176.820312 120.164062 176.222656 C 121.351562 176.609375 122.933594 177.121094 124.121094 177.507812 C 124.476562 178.464844 124.84375 179.4375 125.222656 180.417969 C 124.433594 181.097656 123.386719 182.011719 122.628906 182.726562 C 121.394531 182.480469 119.742188 182.148438 118.507812 181.886719 " fill-opacity="1" fill-rule="nonzero"/><path fill="#ffffff" d="M 109.734375 184.355469 C 109.195312 182.957031 108.671875 181.574219 108.164062 180.210938 C 109.144531 179.339844 110.453125 178.183594 111.460938 177.351562 C 112.828125 177.699219 114.648438 178.164062 116.015625 178.515625 C 116.460938 179.714844 116.925781 180.9375 117.402344 182.167969 C 116.5 183.0625 115.304688 184.261719 114.429688 185.179688 C 113.023438 184.933594 111.144531 184.605469 109.734375 184.355469 " fill-opacity="1" fill-rule="nonzero"/><path fill="#ffffff" d="M 90.238281 191.46875 C 89.644531 189.925781 89.0625 188.394531 88.503906 186.890625 C 89.546875 185.683594 90.945312 184.082031 92.011719 182.894531 C 93.5625 183.078125 95.625 183.328125 97.171875 183.539062 C 97.722656 185.023438 98.296875 186.53125 98.882812 188.054688 C 97.859375 189.246094 96.492188 190.832031 95.480469 192.03125 C 93.90625 191.859375 91.8125 191.628906 90.238281 191.46875 " fill-opacity="1" fill-rule="nonzero"/><path fill="#ffffff" d="M 72.980469 199.722656 C 72.46875 198.390625 71.96875 197.070312 71.484375 195.773438 C 72.210938 194.566406 73.1875 192.953125 73.933594 191.753906 C 75.203125 191.765625 76.902344 191.785156 78.171875 191.828125 C 78.703125 193.257812 79.253906 194.707031 79.820312 196.171875 C 78.996094 197.34375 77.902344 198.902344 77.089844 200.078125 C 75.859375 199.964844 74.214844 199.8125 72.980469 199.722656 " fill-opacity="1" fill-rule="nonzero"/><path fill="#ffffff" d="M 66.554688 203.609375 C 66.125 202.496094 65.707031 201.394531 65.300781 200.3125 C 65.84375 199.195312 66.566406 197.703125 67.117188 196.59375 C 68.152344 196.511719 69.53125 196.414062 70.566406 196.378906 C 71.039062 197.652344 71.53125 198.949219 72.035156 200.253906 C 71.378906 201.316406 70.503906 202.730469 69.847656 203.789062 C 68.859375 203.722656 67.542969 203.640625 66.554688 203.609375 " fill-opacity="1" fill-rule="nonzero"/><path fill="#ffffff" d="M 61.914062 207.109375 C 61.59375 206.28125 61.28125 205.457031 60.980469 204.648438 C 61.308594 203.675781 61.753906 202.382812 62.097656 201.414062 C 62.847656 201.238281 63.855469 201.019531 64.617188 200.902344 C 65.007812 201.953125 65.414062 203.019531 65.828125 204.097656 C 65.355469 204.996094 64.726562 206.195312 64.253906 207.09375 C 63.550781 207.082031 62.613281 207.074219 61.914062 207.109375 " fill-opacity="1" fill-rule="nonzero"/><path fill="#ffffff" d="M 59.304688 210.070312 C 59.113281 209.570312 58.925781 209.074219 58.746094 208.585938 C 58.839844 207.808594 58.972656 206.773438 59.097656 206 C 59.519531 205.734375 60.097656 205.390625 60.558594 205.199219 C 60.84375 205.96875 61.140625 206.75 61.445312 207.539062 C 61.175781 208.230469 60.816406 209.148438 60.554688 209.839844 C 60.175781 209.890625 59.667969 209.953125 59.304688 210.070312 " fill-opacity="1" fill-rule="nonzero"/><path fill="#ffffff" d="M 58.9375 212.234375 L 58.816406 211.929688 L 58.71875 211.660156 C 58.59375 211.207031 58.417969 210.601562 58.335938 210.140625 C 58.382812 209.8125 58.464844 209.367188 58.617188 209.070312 C 58.78125 209.511719 58.953125 209.960938 59.125 210.410156 C 59.078125 210.851562 59.011719 211.441406 58.996094 211.886719 C 58.957031 211.984375 58.90625 212.132812 58.9375 212.234375 " fill-opacity="1" fill-rule="nonzero"/><path fill="#ffffff" d="M 138.355469 180.71875 C 138.320312 180.636719 138.289062 180.554688 138.257812 180.476562 L 138.59375 180.585938 L 138.355469 180.71875 " fill-opacity="1" fill-rule="nonzero"/><path fill="#ffffff" d="M 135.8125 181.925781 C 135.625 181.464844 135.4375 181.003906 135.257812 180.546875 C 135.664062 180.34375 136.210938 180.074219 136.648438 179.949219 C 137.050781 180.09375 137.582031 180.292969 137.988281 180.425781 C 138.039062 180.558594 138.09375 180.691406 138.148438 180.824219 C 137.902344 181.089844 137.585938 181.453125 137.371094 181.742188 C 136.90625 181.816406 136.28125 181.902344 135.8125 181.925781 " fill-opacity="1" fill-rule="nonzero"/><path fill="#ffffff" d="M 124.871094 186.671875 C 124.421875 185.574219 123.980469 184.476562 123.546875 183.386719 C 124.292969 182.671875 125.289062 181.722656 126.066406 181.042969 C 127.078125 181.261719 128.425781 181.550781 129.441406 181.746094 C 129.773438 182.589844 130.117188 183.433594 130.460938 184.277344 C 129.839844 185.050781 129.015625 186.085938 128.417969 186.878906 C 127.351562 186.828125 125.933594 186.753906 124.871094 186.671875 " fill-opacity="1" fill-rule="nonzero"/><path fill="#ffffff" d="M 117.109375 189.9375 C 116.566406 188.609375 116.03125 187.28125 115.507812 185.960938 C 116.371094 185.039062 117.527344 183.816406 118.414062 182.921875 C 119.65625 183.15625 121.308594 183.46875 122.550781 183.6875 C 122.996094 184.8125 123.453125 185.945312 123.914062 187.074219 C 123.152344 188.042969 122.136719 189.335938 121.394531 190.316406 C 120.109375 190.210938 118.394531 190.070312 117.109375 189.9375 " fill-opacity="1" fill-rule="nonzero"/><path fill="#ffffff" d="M 79.886719 205.175781 C 79.296875 203.734375 78.714844 202.292969 78.148438 200.859375 C 78.980469 199.6875 80.085938 198.128906 80.921875 196.964844 C 82.351562 197.117188 84.257812 197.320312 85.683594 197.480469 C 86.292969 199.015625 86.914062 200.554688 87.542969 202.09375 C 86.640625 203.246094 85.441406 204.78125 84.535156 205.929688 C 83.140625 205.703125 81.28125 205.402344 79.886719 205.175781 " fill-opacity="1" fill-rule="nonzero"/><path fill="#ffffff" d="M 66.128906 210.589844 C 65.71875 209.59375 65.316406 208.59375 64.921875 207.601562 C 65.417969 206.714844 66.082031 205.53125 66.578125 204.640625 C 67.5625 204.707031 68.878906 204.804688 69.863281 204.902344 C 70.347656 206.117188 70.839844 207.339844 71.339844 208.566406 C 70.722656 209.394531 69.902344 210.503906 69.265625 211.320312 C 68.328125 211.097656 67.070312 210.800781 66.128906 210.589844 " fill-opacity="1" fill-rule="nonzero"/><path fill="#ffffff" d="M 61.800781 212.21875 C 61.519531 211.53125 61.242188 210.847656 60.972656 210.164062 C 61.269531 209.488281 61.660156 208.582031 61.957031 207.902344 C 62.65625 207.910156 63.589844 207.933594 64.285156 207.980469 C 64.664062 208.933594 65.050781 209.894531 65.445312 210.851562 C 65.003906 211.457031 64.414062 212.265625 63.953125 212.851562 C 63.308594 212.660156 62.449219 212.398438 61.800781 212.21875 " fill-opacity="1" fill-rule="nonzero"/><path fill="#ffffff" d="M 59.53125 212.988281 C 59.394531 212.65625 59.261719 212.328125 59.132812 212 C 59.195312 211.570312 59.285156 211 59.371094 210.574219 C 59.734375 210.515625 60.230469 210.457031 60.601562 210.453125 C 60.851562 211.089844 61.113281 211.730469 61.375 212.371094 C 61.132812 212.714844 60.8125 213.175781 60.546875 213.5 C 60.242188 213.347656 59.761719 213.238281 59.53125 212.988281 " fill-opacity="1" fill-rule="nonzero"/><path fill="#ffffff" d="M 59.304688 213.15625 C 59.140625 212.753906 59.140625 212.753906 59.058594 212.550781 L 58.996094 212.382812 C 59.007812 212.328125 59.023438 212.253906 59.035156 212.195312 L 59.0625 212.183594 C 59.171875 212.460938 59.28125 212.738281 59.398438 213.019531 C 59.375 213.070312 59.371094 213.167969 59.320312 213.195312 L 59.304688 213.15625 " fill-opacity="1" fill-rule="nonzero"/><path fill="#ffffff" d="M 137.933594 182.65625 C 137.816406 182.382812 137.695312 182.105469 137.578125 181.824219 C 137.777344 181.527344 138.042969 181.128906 138.269531 180.851562 L 138.59375 180.585938 L 138.550781 181.515625 C 138.402344 181.875 138.179688 182.355469 137.933594 182.65625 " fill-opacity="1" fill-rule="nonzero"/><path fill="#ffffff" d="M 135.078125 186.160156 C 134.804688 185.527344 134.535156 184.890625 134.265625 184.25 C 134.671875 183.683594 135.21875 182.925781 135.652344 182.375 C 136.136719 182.316406 136.789062 182.230469 137.261719 182.105469 C 137.398438 182.433594 137.539062 182.757812 137.679688 183.082031 C 137.441406 183.742188 137.128906 184.621094 136.890625 185.28125 C 136.363281 185.570312 135.644531 185.945312 135.078125 186.160156 " fill-opacity="1" fill-rule="nonzero"/><path fill="#ffffff" d="M 130.234375 190.191406 C 129.824219 189.246094 129.417969 188.292969 129.019531 187.335938 C 129.601562 186.535156 130.386719 185.472656 130.996094 184.6875 C 131.796875 184.6875 132.871094 184.679688 133.671875 184.625 C 133.960938 185.308594 134.25 185.992188 134.542969 186.667969 C 134.105469 187.546875 133.523438 188.722656 133.09375 189.605469 C 132.242188 189.804688 131.101562 190.054688 130.234375 190.191406 " fill-opacity="1" fill-rule="nonzero"/><path fill="#ffffff" d="M 87.34375 211.214844 C 86.699219 209.734375 86.0625 208.238281 85.433594 206.734375 C 86.34375 205.585938 87.558594 204.058594 88.46875 202.90625 C 90.007812 203.117188 92.058594 203.390625 93.601562 203.585938 C 94.257812 205.148438 94.917969 206.707031 95.589844 208.25 C 94.628906 209.402344 93.351562 210.941406 92.382812 212.085938 C 90.867188 211.832031 88.851562 211.488281 87.34375 211.214844 " fill-opacity="1" fill-rule="nonzero"/><path fill="#ffffff" d="M 78.730469 213.757812 C 78.152344 212.421875 77.578125 211.078125 77.011719 209.726562 C 77.796875 208.722656 78.847656 207.386719 79.625 206.375 C 81.011719 206.613281 82.863281 206.933594 84.25 207.171875 C 84.875 208.660156 85.503906 210.140625 86.140625 211.605469 C 85.28125 212.59375 84.128906 213.902344 83.25 214.871094 C 81.890625 214.542969 80.082031 214.097656 78.730469 213.757812 " fill-opacity="1" fill-rule="nonzero"/><path fill="#ffffff" d="M 71.351562 215.320312 C 70.867188 214.207031 70.386719 213.082031 69.914062 211.957031 C 70.558594 211.144531 71.414062 210.058594 72.042969 209.234375 C 73.226562 209.480469 74.804688 209.8125 75.984375 210.066406 C 76.542969 211.390625 77.105469 212.714844 77.671875 214.023438 C 76.929688 214.796875 75.941406 215.832031 75.175781 216.582031 C 74.027344 216.207031 72.496094 215.703125 71.351562 215.320312 " fill-opacity="1" fill-rule="nonzero"/><path fill="#ffffff" d="M 65.496094 215.859375 C 65.136719 215.027344 64.777344 214.191406 64.425781 213.347656 C 64.902344 212.765625 65.53125 211.988281 65.984375 211.390625 C 66.914062 211.625 68.15625 211.945312 69.089844 212.191406 C 69.546875 213.285156 70.011719 214.371094 70.480469 215.453125 C 69.882812 215.984375 69.085938 216.695312 68.457031 217.1875 C 67.566406 216.792969 66.179688 216.554688 65.496094 215.859375 " fill-opacity="1" fill-rule="nonzero"/><path fill="#ffffff" d="M 61.460938 215.332031 C 61.246094 214.832031 61.03125 214.328125 60.816406 213.820312 C 61.097656 213.507812 61.46875 213.082031 61.722656 212.746094 C 62.355469 212.957031 63.199219 213.242188 63.832031 213.464844 C 64.167969 214.265625 64.507812 215.0625 64.851562 215.851562 C 64.425781 216.117188 63.851562 216.464844 63.394531 216.664062 C 62.808594 216.269531 61.902344 215.882812 61.460938 215.332031 " fill-opacity="1" fill-rule="nonzero"/><path fill="#ffffff" d="M 59.609375 213.875 L 59.566406 213.773438 C 59.507812 213.640625 59.433594 213.460938 59.375 213.328125 C 59.429688 213.304688 59.492188 213.253906 59.527344 213.203125 C 59.816406 213.390625 60.199219 213.636719 60.496094 213.8125 C 60.6875 214.269531 60.882812 214.726562 61.078125 215.179688 C 60.835938 215.160156 60.5 215.109375 60.285156 214.984375 C 60.074219 214.65625 59.769531 214.230469 59.609375 213.875 " fill-opacity="1" fill-rule="nonzero"/><path fill="#ffffff" d="M 138.714844 181.542969 C 138.679688 181.46875 138.644531 181.390625 138.609375 181.3125 L 138.59375 180.585938 L 138.714844 181.542969 " fill-opacity="1" fill-rule="nonzero"/><path fill="#ffffff" d="M 137.847656 186.617188 C 137.648438 186.183594 137.449219 185.746094 137.253906 185.300781 C 137.457031 184.625 137.730469 183.726562 137.933594 183.054688 C 138.15625 182.695312 138.441406 182.203125 138.5625 181.800781 C 138.621094 181.929688 138.679688 182.054688 138.734375 182.179688 C 138.738281 182.957031 138.734375 183.988281 138.707031 184.761719 C 138.484375 185.332031 138.167969 186.09375 137.847656 186.617188 " fill-opacity="1" fill-rule="nonzero"/><g clip-path="url(#a09adc0695)"><path fill="#ffffff" d="M 64.835938 219.210938 C 64.539062 218.570312 64.242188 217.914062 63.945312 217.25 C 64.421875 217.042969 65.054688 216.746094 65.496094 216.472656 C 66.378906 216.902344 67.558594 217.472656 68.449219 217.894531 C 68.859375 218.820312 69.277344 219.738281 69.691406 220.636719 C 69.082031 220.832031 68.265625 221.085938 67.636719 221.195312 C 66.789062 220.609375 65.484375 220.011719 64.835938 219.210938 " fill-opacity="1" fill-rule="nonzero"/></g><path fill="#ffffff" d="M 60.984375 216.34375 C 60.84375 216.035156 60.703125 215.71875 60.558594 215.402344 C 60.816406 215.507812 61.179688 215.632812 61.460938 215.636719 C 62.03125 216.074219 62.792969 216.65625 63.378906 217.074219 C 63.65625 217.695312 63.933594 218.304688 64.210938 218.90625 C 63.753906 218.796875 63.144531 218.632812 62.722656 218.425781 C 62.1875 217.8125 61.40625 217.039062 60.984375 216.34375 " fill-opacity="1" fill-rule="nonzero"/><path fill="#ffffff" d="M 59.859375 214.4375 C 59.804688 214.316406 59.734375 214.15625 59.679688 214.035156 C 59.855469 214.34375 60.070312 214.769531 60.269531 215.066406 C 60.390625 215.335938 60.511719 215.601562 60.632812 215.863281 L 60.09375 214.953125 C 60.023438 214.796875 59.929688 214.59375 59.859375 214.4375 " fill-opacity="1" fill-rule="nonzero"/><g clip-path="url(#c1b9ab0359)"><path fill="#ffffff" d="M 139.171875 185.34375 C 139.0625 185.117188 138.945312 184.882812 138.828125 184.632812 L 138.824219 184.625 C 138.820312 183.832031 138.808594 182.777344 138.765625 181.988281 L 138.59375 180.585938 L 139.042969 182.558594 C 139.113281 183.390625 139.199219 184.507812 139.171875 185.34375 " fill-opacity="1" fill-rule="nonzero"/></g><g clip-path="url(#6a132c1e2b)"><path fill="#ffffff" d="M 139.046875 182.214844 C 139.019531 182.164062 138.992188 182.109375 138.960938 182.050781 L 138.59375 180.585938 L 139.046875 182.214844 " fill-opacity="1" fill-rule="nonzero"/><path fill="#ffffff" d="M 139.28125 182.589844 C 139.265625 182.570312 139.246094 182.542969 139.226562 182.515625 L 138.59375 180.585938 L 139.28125 182.589844 " fill-opacity="1" fill-rule="nonzero"/></g></svg>